<svg xmlns="http://www.w3.org/2000/svg" version="1.1" height="281px" width="361px" viewBox="-10 -10 381 301" content="&lt;mxGraphModel dx=&quot;1319&quot; dy=&quot;519&quot; grid=&quot;1&quot; gridSize=&quot;10&quot; guides=&quot;1&quot; tooltips=&quot;1&quot; connect=&quot;1&quot; arrows=&quot;1&quot; fold=&quot;1&quot; page=&quot;0&quot; pageScale=&quot;1&quot; pageWidth=&quot;827&quot; pageHeight=&quot;1169&quot; math=&quot;0&quot; shadow=&quot;0&quot;&gt;&lt;root&gt;&lt;mxCell id=&quot;0&quot;/&gt;&lt;mxCell id=&quot;1&quot; parent=&quot;0&quot;/&gt;&lt;mxCell id=&quot;9&quot; value=&quot;Availability Zone&quot; style=&quot;dashed=1;verticalAlign=top;fontStyle=0;fillColor=none;strokeColor=#FF8000;fontColor=#FF8000;&quot; vertex=&quot;1&quot; parent=&quot;1&quot;&gt;&lt;mxGeometry x=&quot;-120&quot; y=&quot;120&quot; width=&quot;360&quot; height=&quot;280&quot; as=&quot;geometry&quot;/&gt;&lt;/mxCell&gt;&lt;mxCell id=&quot;2&quot; value=&quot;&quot; style=&quot;outlineConnect=0;fontColor=#232F3E;gradientColor=none;fillColor=#D86613;strokeColor=none;dashed=0;verticalLabelPosition=bottom;verticalAlign=top;align=center;html=1;fontSize=12;fontStyle=0;aspect=fixed;pointerEvents=1;shape=mxgraph.aws4.instance2;&quot; vertex=&quot;1&quot; parent=&quot;1&quot;&gt;&lt;mxGeometry x=&quot;120&quot; y=&quot;200&quot; width=&quot;40&quot; height=&quot;40&quot; as=&quot;geometry&quot;/&gt;&lt;/mxCell&gt;&lt;mxCell id=&quot;3&quot; value=&quot;&quot; style=&quot;outlineConnect=0;fontColor=#232F3E;gradientColor=none;fillColor=#D86613;strokeColor=none;dashed=0;verticalLabelPosition=bottom;verticalAlign=top;align=center;html=1;fontSize=12;fontStyle=0;aspect=fixed;pointerEvents=1;shape=mxgraph.aws4.instance2;&quot; vertex=&quot;1&quot; parent=&quot;1&quot;&gt;&lt;mxGeometry x=&quot;40&quot; y=&quot;200&quot; width=&quot;40&quot; height=&quot;40&quot; as=&quot;geometry&quot;/&gt;&lt;/mxCell&gt;&lt;mxCell id=&quot;4&quot; value=&quot;&quot; style=&quot;outlineConnect=0;fontColor=#232F3E;gradientColor=none;fillColor=#D86613;strokeColor=none;dashed=0;verticalLabelPosition=bottom;verticalAlign=top;align=center;html=1;fontSize=12;fontStyle=0;aspect=fixed;pointerEvents=1;shape=mxgraph.aws4.instance2;&quot; vertex=&quot;1&quot; parent=&quot;1&quot;&gt;&lt;mxGeometry x=&quot;120&quot; y=&quot;280&quot; width=&quot;40&quot; height=&quot;40&quot; as=&quot;geometry&quot;/&gt;&lt;/mxCell&gt;&lt;mxCell id=&quot;5&quot; value=&quot;&quot; style=&quot;outlineConnect=0;fontColor=#232F3E;gradientColor=none;fillColor=#D86613;strokeColor=none;dashed=0;verticalLabelPosition=bottom;verticalAlign=top;align=center;html=1;fontSize=12;fontStyle=0;aspect=fixed;pointerEvents=1;shape=mxgraph.aws4.instance2;&quot; vertex=&quot;1&quot; parent=&quot;1&quot;&gt;&lt;mxGeometry x=&quot;40&quot; y=&quot;280&quot; width=&quot;40&quot; height=&quot;40&quot; as=&quot;geometry&quot;/&gt;&lt;/mxCell&gt;&lt;mxCell id=&quot;6&quot; value=&quot;&quot; style=&quot;outlineConnect=0;fontColor=#232F3E;gradientColor=none;fillColor=#D86613;strokeColor=none;dashed=0;verticalLabelPosition=bottom;verticalAlign=top;align=center;html=1;fontSize=12;fontStyle=0;aspect=fixed;pointerEvents=1;shape=mxgraph.aws4.instance2;&quot; vertex=&quot;1&quot; parent=&quot;1&quot;&gt;&lt;mxGeometry x=&quot;-40&quot; y=&quot;200&quot; width=&quot;40&quot; height=&quot;40&quot; as=&quot;geometry&quot;/&gt;&lt;/mxCell&gt;&lt;mxCell id=&quot;7&quot; value=&quot;&quot; style=&quot;outlineConnect=0;fontColor=#232F3E;gradientColor=none;fillColor=#D86613;strokeColor=none;dashed=0;verticalLabelPosition=bottom;verticalAlign=top;align=center;html=1;fontSize=12;fontStyle=0;aspect=fixed;pointerEvents=1;shape=mxgraph.aws4.instance2;&quot; vertex=&quot;1&quot; parent=&quot;1&quot;&gt;&lt;mxGeometry x=&quot;-40&quot; y=&quot;280&quot; width=&quot;40&quot; height=&quot;40&quot; as=&quot;geometry&quot;/&gt;&lt;/mxCell&gt;&lt;mxCell id=&quot;10&quot; value=&quot;Server Rack&quot; style=&quot;strokeColor=#006EAF;dashed=1;verticalAlign=top;fontStyle=0;fillColor=none;fontColor=#7EA6E0;&quot; vertex=&quot;1&quot; parent=&quot;1&quot;&gt;&lt;mxGeometry x=&quot;-80&quot; y=&quot;160&quot; width=&quot;280&quot; height=&quot;200&quot; as=&quot;geometry&quot;/&gt;&lt;/mxCell&gt;&lt;/root&gt;&lt;/mxGraphModel&gt;"><style type="text/css"></style><rect x="0.5" y="0.5" width="360" height="280" fill="none" stroke="#ff8000" stroke-dasharray="3 3" pointer-events="none"/><g fill="#FF8000" font-family="Helvetica" pointer-events="none" text-anchor="middle" font-size="12px"><text x="180.5" y="18.5">Availability Zone</text></g><path d="M 280.5 90.5 L 280.5 88.68 L 275.95 88.68 L 275.95 85.95 C 275.95 85.45 275.55 85.05 275.05 85.05 L 272.32 85.05 L 272.32 80.5 L 270.5 80.5 L 270.5 85.05 L 266.86 85.05 L 266.86 80.5 L 265.05 80.5 L 265.05 85.05 L 261.41 85.05 L 261.41 80.5 L 259.59 80.5 L 259.59 85.05 L 255.95 85.05 L 255.95 80.5 L 254.14 80.5 L 254.14 85.05 L 250.5 85.05 L 250.5 80.5 L 248.68 80.5 L 248.68 85.05 L 245.95 85.05 C 245.45 85.05 245.05 85.45 245.05 85.95 L 245.05 88.68 L 240.5 88.68 L 240.5 90.5 L 245.05 90.5 L 245.05 94.14 L 240.5 94.14 L 240.5 95.95 L 245.05 95.95 L 245.05 99.59 L 240.5 99.59 L 240.5 101.41 L 245.05 101.41 L 245.05 105.05 L 240.5 105.05 L 240.5 106.86 L 245.05 106.86 L 245.05 110.5 L 240.5 110.5 L 240.5 112.32 L 245.05 112.32 L 245.05 115.05 C 245.05 115.55 245.45 115.95 245.95 115.95 L 248.68 115.95 L 248.68 120.5 L 250.5 120.5 L 250.5 115.95 L 254.14 115.95 L 254.14 120.5 L 255.95 120.5 L 255.95 115.95 L 259.59 115.95 L 259.59 120.5 L 261.41 120.5 L 261.41 115.95 L 265.05 115.95 L 265.05 120.5 L 266.86 120.5 L 266.86 115.95 L 270.5 115.95 L 270.5 120.5 L 272.32 120.5 L 272.32 115.95 L 275.05 115.95 C 275.55 115.95 275.95 115.55 275.95 115.05 L 275.95 112.32 L 280.5 112.32 L 280.5 110.5 L 275.95 110.5 L 275.95 106.86 L 280.5 106.86 L 280.5 105.05 L 275.95 105.05 L 275.95 101.41 L 280.5 101.41 L 280.5 99.59 L 275.95 99.59 L 275.95 95.95 L 280.5 95.95 L 280.5 94.14 L 275.95 94.14 L 275.95 90.5 Z M 246.86 114.14 L 246.86 86.86 L 274.14 86.86 L 274.14 114.14 Z" fill="#d86613" stroke="none" pointer-events="none"/><path d="M 200.5 90.5 L 200.5 88.68 L 195.95 88.68 L 195.95 85.95 C 195.95 85.45 195.55 85.05 195.05 85.05 L 192.32 85.05 L 192.32 80.5 L 190.5 80.5 L 190.5 85.05 L 186.86 85.05 L 186.86 80.5 L 185.05 80.5 L 185.05 85.05 L 181.41 85.05 L 181.41 80.5 L 179.59 80.5 L 179.59 85.05 L 175.95 85.05 L 175.95 80.5 L 174.14 80.5 L 174.14 85.05 L 170.5 85.05 L 170.5 80.5 L 168.68 80.5 L 168.68 85.05 L 165.95 85.05 C 165.45 85.05 165.05 85.45 165.05 85.95 L 165.05 88.68 L 160.5 88.68 L 160.5 90.5 L 165.05 90.5 L 165.05 94.14 L 160.5 94.14 L 160.5 95.95 L 165.05 95.95 L 165.05 99.59 L 160.5 99.59 L 160.5 101.41 L 165.05 101.41 L 165.05 105.05 L 160.5 105.05 L 160.5 106.86 L 165.05 106.86 L 165.05 110.5 L 160.5 110.5 L 160.5 112.32 L 165.05 112.32 L 165.05 115.05 C 165.05 115.55 165.45 115.95 165.95 115.95 L 168.68 115.95 L 168.68 120.5 L 170.5 120.5 L 170.5 115.95 L 174.14 115.95 L 174.14 120.5 L 175.95 120.5 L 175.95 115.95 L 179.59 115.95 L 179.59 120.5 L 181.41 120.5 L 181.41 115.95 L 185.05 115.95 L 185.05 120.5 L 186.86 120.5 L 186.86 115.95 L 190.5 115.95 L 190.5 120.5 L 192.32 120.5 L 192.32 115.95 L 195.05 115.95 C 195.55 115.95 195.95 115.55 195.95 115.05 L 195.95 112.32 L 200.5 112.32 L 200.5 110.5 L 195.95 110.5 L 195.95 106.86 L 200.5 106.86 L 200.5 105.05 L 195.95 105.05 L 195.95 101.41 L 200.5 101.41 L 200.5 99.59 L 195.95 99.59 L 195.95 95.95 L 200.5 95.95 L 200.5 94.14 L 195.95 94.14 L 195.95 90.5 Z M 166.86 114.14 L 166.86 86.86 L 194.14 86.86 L 194.14 114.14 Z" fill="#d86613" stroke="none" pointer-events="none"/><path d="M 280.5 170.5 L 280.5 168.68 L 275.95 168.68 L 275.95 165.95 C 275.95 165.45 275.55 165.05 275.05 165.05 L 272.32 165.05 L 272.32 160.5 L 270.5 160.5 L 270.5 165.05 L 266.86 165.05 L 266.86 160.5 L 265.05 160.5 L 265.05 165.05 L 261.41 165.05 L 261.41 160.5 L 259.59 160.5 L 259.59 165.05 L 255.95 165.05 L 255.95 160.5 L 254.14 160.5 L 254.14 165.05 L 250.5 165.05 L 250.5 160.5 L 248.68 160.5 L 248.68 165.05 L 245.95 165.05 C 245.45 165.05 245.05 165.45 245.05 165.95 L 245.05 168.68 L 240.5 168.68 L 240.5 170.5 L 245.05 170.5 L 245.05 174.14 L 240.5 174.14 L 240.5 175.95 L 245.05 175.95 L 245.05 179.59 L 240.5 179.59 L 240.5 181.41 L 245.05 181.41 L 245.05 185.05 L 240.5 185.05 L 240.5 186.86 L 245.05 186.86 L 245.05 190.5 L 240.5 190.5 L 240.5 192.32 L 245.05 192.32 L 245.05 195.05 C 245.05 195.55 245.45 195.95 245.95 195.95 L 248.68 195.95 L 248.68 200.5 L 250.5 200.5 L 250.5 195.95 L 254.14 195.95 L 254.14 200.5 L 255.95 200.5 L 255.95 195.95 L 259.59 195.95 L 259.59 200.5 L 261.41 200.5 L 261.41 195.95 L 265.05 195.95 L 265.05 200.5 L 266.86 200.5 L 266.86 195.95 L 270.5 195.95 L 270.5 200.5 L 272.32 200.5 L 272.32 195.95 L 275.05 195.95 C 275.55 195.95 275.95 195.55 275.95 195.05 L 275.95 192.32 L 280.5 192.32 L 280.5 190.5 L 275.95 190.5 L 275.95 186.86 L 280.5 186.86 L 280.5 185.05 L 275.95 185.05 L 275.95 181.41 L 280.5 181.41 L 280.5 179.59 L 275.95 179.59 L 275.95 175.95 L 280.5 175.95 L 280.5 174.14 L 275.95 174.14 L 275.95 170.5 Z M 246.86 194.14 L 246.86 166.86 L 274.14 166.86 L 274.14 194.14 Z" fill="#d86613" stroke="none" pointer-events="none"/><path d="M 200.5 170.5 L 200.5 168.68 L 195.95 168.68 L 195.95 165.95 C 195.95 165.45 195.55 165.05 195.05 165.05 L 192.32 165.05 L 192.32 160.5 L 190.5 160.5 L 190.5 165.05 L 186.86 165.05 L 186.86 160.5 L 185.05 160.5 L 185.05 165.05 L 181.41 165.05 L 181.41 160.5 L 179.59 160.5 L 179.59 165.05 L 175.95 165.05 L 175.95 160.5 L 174.14 160.5 L 174.14 165.05 L 170.5 165.05 L 170.5 160.5 L 168.68 160.5 L 168.68 165.05 L 165.95 165.05 C 165.45 165.05 165.05 165.45 165.05 165.95 L 165.05 168.68 L 160.5 168.68 L 160.5 170.5 L 165.05 170.5 L 165.05 174.14 L 160.5 174.14 L 160.5 175.95 L 165.05 175.95 L 165.05 179.59 L 160.5 179.59 L 160.5 181.41 L 165.05 181.41 L 165.05 185.05 L 160.5 185.05 L 160.5 186.86 L 165.05 186.86 L 165.05 190.5 L 160.5 190.5 L 160.5 192.32 L 165.05 192.32 L 165.05 195.05 C 165.05 195.55 165.45 195.95 165.95 195.95 L 168.68 195.95 L 168.68 200.5 L 170.5 200.5 L 170.5 195.95 L 174.14 195.95 L 174.14 200.5 L 175.95 200.5 L 175.95 195.95 L 179.59 195.95 L 179.59 200.5 L 181.41 200.5 L 181.41 195.95 L 185.05 195.95 L 185.05 200.5 L 186.86 200.5 L 186.86 195.95 L 190.5 195.95 L 190.5 200.5 L 192.32 200.5 L 192.32 195.95 L 195.05 195.95 C 195.55 195.95 195.95 195.55 195.95 195.05 L 195.95 192.32 L 200.5 192.32 L 200.5 190.5 L 195.95 190.5 L 195.95 186.86 L 200.5 186.86 L 200.5 185.05 L 195.95 185.05 L 195.95 181.41 L 200.5 181.41 L 200.5 179.59 L 195.95 179.59 L 195.95 175.95 L 200.5 175.95 L 200.5 174.14 L 195.95 174.14 L 195.95 170.5 Z M 166.86 194.14 L 166.86 166.86 L 194.14 166.86 L 194.14 194.14 Z" fill="#d86613" stroke="none" pointer-events="none"/><path d="M 120.5 90.5 L 120.5 88.68 L 115.95 88.68 L 115.95 85.95 C 115.95 85.45 115.55 85.05 115.05 85.05 L 112.32 85.05 L 112.32 80.5 L 110.5 80.5 L 110.5 85.05 L 106.86 85.05 L 106.86 80.5 L 105.05 80.5 L 105.05 85.05 L 101.41 85.05 L 101.41 80.5 L 99.59 80.5 L 99.59 85.05 L 95.95 85.05 L 95.95 80.5 L 94.14 80.5 L 94.14 85.05 L 90.5 85.05 L 90.5 80.5 L 88.68 80.5 L 88.68 85.05 L 85.95 85.05 C 85.45 85.05 85.05 85.45 85.05 85.95 L 85.05 88.68 L 80.5 88.68 L 80.5 90.5 L 85.05 90.5 L 85.05 94.14 L 80.5 94.14 L 80.5 95.95 L 85.05 95.95 L 85.05 99.59 L 80.5 99.59 L 80.5 101.41 L 85.05 101.41 L 85.05 105.05 L 80.5 105.05 L 80.5 106.86 L 85.05 106.86 L 85.05 110.5 L 80.5 110.5 L 80.5 112.32 L 85.05 112.32 L 85.05 115.05 C 85.05 115.55 85.45 115.95 85.95 115.95 L 88.68 115.95 L 88.68 120.5 L 90.5 120.5 L 90.5 115.95 L 94.14 115.95 L 94.14 120.5 L 95.95 120.5 L 95.95 115.95 L 99.59 115.95 L 99.59 120.5 L 101.41 120.5 L 101.41 115.95 L 105.05 115.95 L 105.05 120.5 L 106.86 120.5 L 106.86 115.95 L 110.5 115.95 L 110.5 120.5 L 112.32 120.5 L 112.32 115.95 L 115.05 115.95 C 115.55 115.95 115.95 115.55 115.95 115.05 L 115.95 112.32 L 120.5 112.32 L 120.5 110.5 L 115.95 110.5 L 115.95 106.86 L 120.5 106.86 L 120.5 105.05 L 115.95 105.05 L 115.95 101.41 L 120.5 101.41 L 120.5 99.59 L 115.95 99.59 L 115.95 95.95 L 120.5 95.95 L 120.5 94.14 L 115.95 94.14 L 115.95 90.5 Z M 86.86 114.14 L 86.86 86.86 L 114.14 86.86 L 114.14 114.14 Z" fill="#d86613" stroke="none" pointer-events="none"/><path d="M 120.5 170.5 L 120.5 168.68 L 115.95 168.68 L 115.95 165.95 C 115.95 165.45 115.55 165.05 115.05 165.05 L 112.32 165.05 L 112.32 160.5 L 110.5 160.5 L 110.5 165.05 L 106.86 165.05 L 106.86 160.5 L 105.05 160.5 L 105.05 165.05 L 101.41 165.05 L 101.41 160.5 L 99.59 160.5 L 99.59 165.05 L 95.95 165.05 L 95.95 160.5 L 94.14 160.5 L 94.14 165.05 L 90.5 165.05 L 90.5 160.5 L 88.68 160.5 L 88.68 165.05 L 85.95 165.05 C 85.45 165.05 85.05 165.45 85.05 165.95 L 85.05 168.68 L 80.5 168.68 L 80.5 170.5 L 85.05 170.5 L 85.05 174.14 L 80.5 174.14 L 80.5 175.95 L 85.05 175.95 L 85.05 179.59 L 80.5 179.59 L 80.5 181.41 L 85.05 181.41 L 85.05 185.05 L 80.5 185.05 L 80.5 186.86 L 85.05 186.86 L 85.05 190.5 L 80.5 190.5 L 80.5 192.32 L 85.05 192.32 L 85.05 195.05 C 85.05 195.55 85.45 195.95 85.95 195.95 L 88.68 195.95 L 88.68 200.5 L 90.5 200.5 L 90.5 195.95 L 94.14 195.95 L 94.14 200.5 L 95.95 200.5 L 95.95 195.95 L 99.59 195.95 L 99.59 200.5 L 101.41 200.5 L 101.41 195.95 L 105.05 195.95 L 105.05 200.5 L 106.86 200.5 L 106.86 195.95 L 110.5 195.95 L 110.5 200.5 L 112.32 200.5 L 112.32 195.95 L 115.05 195.95 C 115.55 195.95 115.95 195.55 115.95 195.05 L 115.95 192.32 L 120.5 192.32 L 120.5 190.5 L 115.95 190.5 L 115.95 186.86 L 120.5 186.86 L 120.5 185.05 L 115.95 185.05 L 115.95 181.41 L 120.5 181.41 L 120.5 179.59 L 115.95 179.59 L 115.95 175.95 L 120.5 175.95 L 120.5 174.14 L 115.95 174.14 L 115.95 170.5 Z M 86.86 194.14 L 86.86 166.86 L 114.14 166.86 L 114.14 194.14 Z" fill="#d86613" stroke="none" pointer-events="none"/><rect x="40.5" y="40.5" width="280" height="200" fill="none" stroke="#006eaf" stroke-dasharray="3 3" pointer-events="none"/><g fill="#7EA6E0" font-family="Helvetica" pointer-events="none" text-anchor="middle" font-size="12px"><text x="180.5" y="58.5">Server Rack</text></g></svg>