<svg xmlns="http://www.w3.org/2000/svg" version="1.1" height="241px" width="341px" viewBox="-10 -10 361 261" content="&lt;mxGraphModel dx=&quot;1269&quot; dy=&quot;839&quot; grid=&quot;1&quot; gridSize=&quot;10&quot; guides=&quot;1&quot; tooltips=&quot;1&quot; connect=&quot;1&quot; arrows=&quot;1&quot; fold=&quot;1&quot; page=&quot;0&quot; pageScale=&quot;1&quot; pageWidth=&quot;827&quot; pageHeight=&quot;1169&quot; math=&quot;0&quot; shadow=&quot;0&quot;&gt;&lt;root&gt;&lt;mxCell id=&quot;0&quot;/&gt;&lt;mxCell id=&quot;1&quot; parent=&quot;0&quot;/&gt;&lt;mxCell id=&quot;2&quot; value=&quot;Availability Zone&quot; style=&quot;dashed=1;verticalAlign=top;fontStyle=0;fillColor=none;strokeColor=#FA6800;fontColor=#FA6800;&quot; vertex=&quot;1&quot; parent=&quot;1&quot;&gt;&lt;mxGeometry x=&quot;-670&quot; y=&quot;-400&quot; width=&quot;100&quot; height=&quot;240&quot; as=&quot;geometry&quot;/&gt;&lt;/mxCell&gt;&lt;mxCell id=&quot;3&quot; value=&quot;Hardware 1&quot; style=&quot;fillColor=none;strokeColor=#5A6C86;dashed=1;verticalAlign=top;fontStyle=0;fontColor=#5A6C86;&quot; vertex=&quot;1&quot; parent=&quot;1&quot;&gt;&lt;mxGeometry x=&quot;-660&quot; y=&quot;-360&quot; width=&quot;80&quot; height=&quot;90&quot; as=&quot;geometry&quot;/&gt;&lt;/mxCell&gt;&lt;mxCell id=&quot;4&quot; value=&quot;&quot; style=&quot;outlineConnect=0;fontColor=#232F3E;gradientColor=none;fillColor=#D86613;strokeColor=none;dashed=0;verticalLabelPosition=bottom;verticalAlign=top;align=center;html=1;fontSize=12;fontStyle=0;aspect=fixed;pointerEvents=1;shape=mxgraph.aws4.instance2;&quot; vertex=&quot;1&quot; parent=&quot;1&quot;&gt;&lt;mxGeometry x=&quot;-639&quot; y=&quot;-320&quot; width=&quot;40&quot; height=&quot;40&quot; as=&quot;geometry&quot;/&gt;&lt;/mxCell&gt;&lt;mxCell id=&quot;5&quot; value=&quot;Hardware 1&quot; style=&quot;fillColor=none;strokeColor=#5A6C86;dashed=1;verticalAlign=top;fontStyle=0;fontColor=#5A6C86;&quot; vertex=&quot;1&quot; parent=&quot;1&quot;&gt;&lt;mxGeometry x=&quot;-660&quot; y=&quot;-260&quot; width=&quot;80&quot; height=&quot;90&quot; as=&quot;geometry&quot;/&gt;&lt;/mxCell&gt;&lt;mxCell id=&quot;6&quot; value=&quot;&quot; style=&quot;outlineConnect=0;fontColor=#232F3E;gradientColor=none;fillColor=#D86613;strokeColor=none;dashed=0;verticalLabelPosition=bottom;verticalAlign=top;align=center;html=1;fontSize=12;fontStyle=0;aspect=fixed;pointerEvents=1;shape=mxgraph.aws4.instance2;&quot; vertex=&quot;1&quot; parent=&quot;1&quot;&gt;&lt;mxGeometry x=&quot;-639&quot; y=&quot;-220&quot; width=&quot;40&quot; height=&quot;40&quot; as=&quot;geometry&quot;/&gt;&lt;/mxCell&gt;&lt;mxCell id=&quot;18&quot; value=&quot;Availability Zone&quot; style=&quot;dashed=1;verticalAlign=top;fontStyle=0;fillColor=none;strokeColor=#FA6800;fontColor=#FA6800;&quot; vertex=&quot;1&quot; parent=&quot;1&quot;&gt;&lt;mxGeometry x=&quot;-550&quot; y=&quot;-400&quot; width=&quot;100&quot; height=&quot;240&quot; as=&quot;geometry&quot;/&gt;&lt;/mxCell&gt;&lt;mxCell id=&quot;19&quot; value=&quot;Hardware 1&quot; style=&quot;fillColor=none;strokeColor=#5A6C86;dashed=1;verticalAlign=top;fontStyle=0;fontColor=#5A6C86;&quot; vertex=&quot;1&quot; parent=&quot;1&quot;&gt;&lt;mxGeometry x=&quot;-540&quot; y=&quot;-360&quot; width=&quot;80&quot; height=&quot;90&quot; as=&quot;geometry&quot;/&gt;&lt;/mxCell&gt;&lt;mxCell id=&quot;20&quot; value=&quot;&quot; style=&quot;outlineConnect=0;fontColor=#232F3E;gradientColor=none;fillColor=#D86613;strokeColor=none;dashed=0;verticalLabelPosition=bottom;verticalAlign=top;align=center;html=1;fontSize=12;fontStyle=0;aspect=fixed;pointerEvents=1;shape=mxgraph.aws4.instance2;&quot; vertex=&quot;1&quot; parent=&quot;1&quot;&gt;&lt;mxGeometry x=&quot;-519&quot; y=&quot;-320&quot; width=&quot;40&quot; height=&quot;40&quot; as=&quot;geometry&quot;/&gt;&lt;/mxCell&gt;&lt;mxCell id=&quot;21&quot; value=&quot;Hardware 1&quot; style=&quot;fillColor=none;strokeColor=#5A6C86;dashed=1;verticalAlign=top;fontStyle=0;fontColor=#5A6C86;&quot; vertex=&quot;1&quot; parent=&quot;1&quot;&gt;&lt;mxGeometry x=&quot;-540&quot; y=&quot;-260&quot; width=&quot;80&quot; height=&quot;90&quot; as=&quot;geometry&quot;/&gt;&lt;/mxCell&gt;&lt;mxCell id=&quot;22&quot; value=&quot;&quot; style=&quot;outlineConnect=0;fontColor=#232F3E;gradientColor=none;fillColor=#D86613;strokeColor=none;dashed=0;verticalLabelPosition=bottom;verticalAlign=top;align=center;html=1;fontSize=12;fontStyle=0;aspect=fixed;pointerEvents=1;shape=mxgraph.aws4.instance2;&quot; vertex=&quot;1&quot; parent=&quot;1&quot;&gt;&lt;mxGeometry x=&quot;-519&quot; y=&quot;-220&quot; width=&quot;40&quot; height=&quot;40&quot; as=&quot;geometry&quot;/&gt;&lt;/mxCell&gt;&lt;mxCell id=&quot;23&quot; value=&quot;Availability Zone&quot; style=&quot;dashed=1;verticalAlign=top;fontStyle=0;fillColor=none;strokeColor=#FA6800;fontColor=#FA6800;&quot; vertex=&quot;1&quot; parent=&quot;1&quot;&gt;&lt;mxGeometry x=&quot;-430&quot; y=&quot;-400&quot; width=&quot;100&quot; height=&quot;240&quot; as=&quot;geometry&quot;/&gt;&lt;/mxCell&gt;&lt;mxCell id=&quot;24&quot; value=&quot;Hardware 1&quot; style=&quot;fillColor=none;strokeColor=#5A6C86;dashed=1;verticalAlign=top;fontStyle=0;fontColor=#5A6C86;&quot; vertex=&quot;1&quot; parent=&quot;1&quot;&gt;&lt;mxGeometry x=&quot;-420&quot; y=&quot;-360&quot; width=&quot;80&quot; height=&quot;90&quot; as=&quot;geometry&quot;/&gt;&lt;/mxCell&gt;&lt;mxCell id=&quot;25&quot; value=&quot;&quot; style=&quot;outlineConnect=0;fontColor=#232F3E;gradientColor=none;fillColor=#D86613;strokeColor=none;dashed=0;verticalLabelPosition=bottom;verticalAlign=top;align=center;html=1;fontSize=12;fontStyle=0;aspect=fixed;pointerEvents=1;shape=mxgraph.aws4.instance2;&quot; vertex=&quot;1&quot; parent=&quot;1&quot;&gt;&lt;mxGeometry x=&quot;-399&quot; y=&quot;-320&quot; width=&quot;40&quot; height=&quot;40&quot; as=&quot;geometry&quot;/&gt;&lt;/mxCell&gt;&lt;mxCell id=&quot;26&quot; value=&quot;Hardware 1&quot; style=&quot;fillColor=none;strokeColor=#5A6C86;dashed=1;verticalAlign=top;fontStyle=0;fontColor=#5A6C86;&quot; vertex=&quot;1&quot; parent=&quot;1&quot;&gt;&lt;mxGeometry x=&quot;-420&quot; y=&quot;-260&quot; width=&quot;80&quot; height=&quot;90&quot; as=&quot;geometry&quot;/&gt;&lt;/mxCell&gt;&lt;mxCell id=&quot;27&quot; value=&quot;&quot; style=&quot;outlineConnect=0;fontColor=#232F3E;gradientColor=none;fillColor=#D86613;strokeColor=none;dashed=0;verticalLabelPosition=bottom;verticalAlign=top;align=center;html=1;fontSize=12;fontStyle=0;aspect=fixed;pointerEvents=1;shape=mxgraph.aws4.instance2;&quot; vertex=&quot;1&quot; parent=&quot;1&quot;&gt;&lt;mxGeometry x=&quot;-399&quot; y=&quot;-220&quot; width=&quot;40&quot; height=&quot;40&quot; as=&quot;geometry&quot;/&gt;&lt;/mxCell&gt;&lt;/root&gt;&lt;/mxGraphModel&gt;"><style type="text/css"></style><rect x="0.5" y="0.5" width="100" height="240" fill="none" stroke="#fa6800" stroke-dasharray="3 3" pointer-events="none"/><g fill="#FA6800" font-family="Helvetica" pointer-events="none" text-anchor="middle" font-size="12px"><text x="50.5" y="18.5">Availability Zone</text></g><rect x="10.5" y="40.5" width="80" height="90" fill="none" stroke="#5a6c86" stroke-dasharray="3 3" pointer-events="none"/><g fill="#5A6C86" font-family="Helvetica" pointer-events="none" text-anchor="middle" font-size="12px"><text x="50.5" y="58.5">Hardware 1</text></g><path d="M 71.5 90.5 L 71.5 88.68 L 66.95 88.68 L 66.95 85.95 C 66.95 85.45 66.55 85.05 66.05 85.05 L 63.32 85.05 L 63.32 80.5 L 61.5 80.5 L 61.5 85.05 L 57.86 85.05 L 57.86 80.5 L 56.05 80.5 L 56.05 85.05 L 52.41 85.05 L 52.41 80.5 L 50.59 80.5 L 50.59 85.05 L 46.95 85.05 L 46.95 80.5 L 45.14 80.5 L 45.14 85.05 L 41.5 85.05 L 41.5 80.5 L 39.68 80.5 L 39.68 85.05 L 36.95 85.05 C 36.45 85.05 36.05 85.45 36.05 85.95 L 36.05 88.68 L 31.5 88.68 L 31.5 90.5 L 36.05 90.5 L 36.05 94.14 L 31.5 94.14 L 31.5 95.95 L 36.05 95.95 L 36.05 99.59 L 31.5 99.59 L 31.5 101.41 L 36.05 101.41 L 36.05 105.05 L 31.5 105.05 L 31.5 106.86 L 36.05 106.86 L 36.05 110.5 L 31.5 110.5 L 31.5 112.32 L 36.05 112.32 L 36.05 115.05 C 36.05 115.55 36.45 115.95 36.95 115.95 L 39.68 115.95 L 39.68 120.5 L 41.5 120.5 L 41.5 115.95 L 45.14 115.95 L 45.14 120.5 L 46.95 120.5 L 46.95 115.95 L 50.59 115.95 L 50.59 120.5 L 52.41 120.5 L 52.41 115.95 L 56.05 115.95 L 56.05 120.5 L 57.86 120.5 L 57.86 115.95 L 61.5 115.95 L 61.5 120.5 L 63.32 120.5 L 63.32 115.95 L 66.05 115.95 C 66.55 115.95 66.95 115.55 66.95 115.05 L 66.95 112.32 L 71.5 112.32 L 71.5 110.5 L 66.95 110.5 L 66.95 106.86 L 71.5 106.86 L 71.5 105.05 L 66.95 105.05 L 66.95 101.41 L 71.5 101.41 L 71.5 99.59 L 66.95 99.59 L 66.95 95.95 L 71.5 95.95 L 71.5 94.14 L 66.95 94.14 L 66.95 90.5 Z M 37.86 114.14 L 37.86 86.86 L 65.14 86.86 L 65.14 114.14 Z" fill="#d86613" stroke="none" pointer-events="none"/><rect x="10.5" y="140.5" width="80" height="90" fill="none" stroke="#5a6c86" stroke-dasharray="3 3" pointer-events="none"/><g fill="#5A6C86" font-family="Helvetica" pointer-events="none" text-anchor="middle" font-size="12px"><text x="50.5" y="158.5">Hardware 1</text></g><path d="M 71.5 190.5 L 71.5 188.68 L 66.95 188.68 L 66.95 185.95 C 66.95 185.45 66.55 185.05 66.05 185.05 L 63.32 185.05 L 63.32 180.5 L 61.5 180.5 L 61.5 185.05 L 57.86 185.05 L 57.86 180.5 L 56.05 180.5 L 56.05 185.05 L 52.41 185.05 L 52.41 180.5 L 50.59 180.5 L 50.59 185.05 L 46.95 185.05 L 46.95 180.5 L 45.14 180.5 L 45.14 185.05 L 41.5 185.05 L 41.5 180.5 L 39.68 180.5 L 39.68 185.05 L 36.95 185.05 C 36.45 185.05 36.05 185.45 36.05 185.95 L 36.05 188.68 L 31.5 188.68 L 31.5 190.5 L 36.05 190.5 L 36.05 194.14 L 31.5 194.14 L 31.5 195.95 L 36.05 195.95 L 36.05 199.59 L 31.5 199.59 L 31.5 201.41 L 36.05 201.41 L 36.05 205.05 L 31.5 205.05 L 31.5 206.86 L 36.05 206.86 L 36.05 210.5 L 31.5 210.5 L 31.5 212.32 L 36.05 212.32 L 36.05 215.05 C 36.05 215.55 36.45 215.95 36.95 215.95 L 39.68 215.95 L 39.68 220.5 L 41.5 220.5 L 41.5 215.95 L 45.14 215.95 L 45.14 220.5 L 46.95 220.5 L 46.95 215.95 L 50.59 215.95 L 50.59 220.5 L 52.41 220.5 L 52.41 215.95 L 56.05 215.95 L 56.05 220.5 L 57.86 220.5 L 57.86 215.95 L 61.5 215.95 L 61.5 220.5 L 63.32 220.5 L 63.32 215.95 L 66.05 215.95 C 66.55 215.95 66.95 215.55 66.95 215.05 L 66.95 212.32 L 71.5 212.32 L 71.5 210.5 L 66.95 210.5 L 66.95 206.86 L 71.5 206.86 L 71.5 205.05 L 66.95 205.05 L 66.95 201.41 L 71.5 201.41 L 71.5 199.59 L 66.95 199.59 L 66.95 195.95 L 71.5 195.95 L 71.5 194.14 L 66.95 194.14 L 66.95 190.5 Z M 37.86 214.14 L 37.86 186.86 L 65.14 186.86 L 65.14 214.14 Z" fill="#d86613" stroke="none" pointer-events="none"/><rect x="120.5" y="0.5" width="100" height="240" fill="none" stroke="#fa6800" stroke-dasharray="3 3" pointer-events="none"/><g fill="#FA6800" font-family="Helvetica" pointer-events="none" text-anchor="middle" font-size="12px"><text x="170.5" y="18.5">Availability Zone</text></g><rect x="130.5" y="40.5" width="80" height="90" fill="none" stroke="#5a6c86" stroke-dasharray="3 3" pointer-events="none"/><g fill="#5A6C86" font-family="Helvetica" pointer-events="none" text-anchor="middle" font-size="12px"><text x="170.5" y="58.5">Hardware 1</text></g><path d="M 191.5 90.5 L 191.5 88.68 L 186.95 88.68 L 186.95 85.95 C 186.95 85.45 186.55 85.05 186.05 85.05 L 183.32 85.05 L 183.32 80.5 L 181.5 80.5 L 181.5 85.05 L 177.86 85.05 L 177.86 80.5 L 176.05 80.5 L 176.05 85.05 L 172.41 85.05 L 172.41 80.5 L 170.59 80.5 L 170.59 85.05 L 166.95 85.05 L 166.95 80.5 L 165.14 80.5 L 165.14 85.05 L 161.5 85.05 L 161.5 80.5 L 159.68 80.5 L 159.68 85.05 L 156.95 85.05 C 156.45 85.05 156.05 85.45 156.05 85.95 L 156.05 88.68 L 151.5 88.68 L 151.5 90.5 L 156.05 90.5 L 156.05 94.14 L 151.5 94.14 L 151.5 95.95 L 156.05 95.95 L 156.05 99.59 L 151.5 99.59 L 151.5 101.41 L 156.05 101.41 L 156.05 105.05 L 151.5 105.05 L 151.5 106.86 L 156.05 106.86 L 156.05 110.5 L 151.5 110.5 L 151.5 112.32 L 156.05 112.32 L 156.05 115.05 C 156.05 115.55 156.45 115.95 156.95 115.95 L 159.68 115.95 L 159.68 120.5 L 161.5 120.5 L 161.5 115.95 L 165.14 115.95 L 165.14 120.5 L 166.95 120.5 L 166.95 115.95 L 170.59 115.95 L 170.59 120.5 L 172.41 120.5 L 172.41 115.95 L 176.05 115.95 L 176.05 120.5 L 177.86 120.5 L 177.86 115.95 L 181.5 115.95 L 181.5 120.5 L 183.32 120.5 L 183.32 115.95 L 186.05 115.95 C 186.55 115.95 186.95 115.55 186.95 115.05 L 186.95 112.32 L 191.5 112.32 L 191.5 110.5 L 186.95 110.5 L 186.95 106.86 L 191.5 106.86 L 191.5 105.05 L 186.95 105.05 L 186.95 101.41 L 191.5 101.41 L 191.5 99.59 L 186.95 99.59 L 186.95 95.95 L 191.5 95.95 L 191.5 94.14 L 186.95 94.14 L 186.95 90.5 Z M 157.86 114.14 L 157.86 86.86 L 185.14 86.86 L 185.14 114.14 Z" fill="#d86613" stroke="none" pointer-events="none"/><rect x="130.5" y="140.5" width="80" height="90" fill="none" stroke="#5a6c86" stroke-dasharray="3 3" pointer-events="none"/><g fill="#5A6C86" font-family="Helvetica" pointer-events="none" text-anchor="middle" font-size="12px"><text x="170.5" y="158.5">Hardware 1</text></g><path d="M 191.5 190.5 L 191.5 188.68 L 186.95 188.68 L 186.95 185.95 C 186.95 185.45 186.55 185.05 186.05 185.05 L 183.32 185.05 L 183.32 180.5 L 181.5 180.5 L 181.5 185.05 L 177.86 185.05 L 177.86 180.5 L 176.05 180.5 L 176.05 185.05 L 172.41 185.05 L 172.41 180.5 L 170.59 180.5 L 170.59 185.05 L 166.95 185.05 L 166.95 180.5 L 165.14 180.5 L 165.14 185.05 L 161.5 185.05 L 161.5 180.5 L 159.68 180.5 L 159.68 185.05 L 156.95 185.05 C 156.45 185.05 156.05 185.45 156.05 185.95 L 156.05 188.68 L 151.5 188.68 L 151.5 190.5 L 156.05 190.5 L 156.05 194.14 L 151.5 194.14 L 151.5 195.95 L 156.05 195.95 L 156.05 199.59 L 151.5 199.59 L 151.5 201.41 L 156.05 201.41 L 156.05 205.05 L 151.5 205.05 L 151.5 206.86 L 156.05 206.86 L 156.05 210.5 L 151.5 210.5 L 151.5 212.32 L 156.05 212.32 L 156.05 215.05 C 156.05 215.55 156.45 215.95 156.95 215.95 L 159.68 215.95 L 159.68 220.5 L 161.5 220.5 L 161.5 215.95 L 165.14 215.95 L 165.14 220.5 L 166.95 220.5 L 166.95 215.95 L 170.59 215.95 L 170.59 220.5 L 172.41 220.5 L 172.41 215.95 L 176.05 215.95 L 176.05 220.5 L 177.86 220.5 L 177.86 215.95 L 181.5 215.95 L 181.5 220.5 L 183.32 220.5 L 183.32 215.95 L 186.05 215.95 C 186.55 215.95 186.95 215.55 186.95 215.05 L 186.95 212.32 L 191.5 212.32 L 191.5 210.5 L 186.95 210.5 L 186.95 206.86 L 191.5 206.86 L 191.5 205.05 L 186.95 205.05 L 186.95 201.41 L 191.5 201.41 L 191.5 199.59 L 186.95 199.59 L 186.95 195.95 L 191.5 195.95 L 191.5 194.14 L 186.95 194.14 L 186.95 190.5 Z M 157.86 214.14 L 157.86 186.86 L 185.14 186.86 L 185.14 214.14 Z" fill="#d86613" stroke="none" pointer-events="none"/><rect x="240.5" y="0.5" width="100" height="240" fill="none" stroke="#fa6800" stroke-dasharray="3 3" pointer-events="none"/><g fill="#FA6800" font-family="Helvetica" pointer-events="none" text-anchor="middle" font-size="12px"><text x="290.5" y="18.5">Availability Zone</text></g><rect x="250.5" y="40.5" width="80" height="90" fill="none" stroke="#5a6c86" stroke-dasharray="3 3" pointer-events="none"/><g fill="#5A6C86" font-family="Helvetica" pointer-events="none" text-anchor="middle" font-size="12px"><text x="290.5" y="58.5">Hardware 1</text></g><path d="M 311.5 90.5 L 311.5 88.68 L 306.95 88.68 L 306.95 85.95 C 306.95 85.45 306.55 85.05 306.05 85.05 L 303.32 85.05 L 303.32 80.5 L 301.5 80.5 L 301.5 85.05 L 297.86 85.05 L 297.86 80.5 L 296.05 80.5 L 296.05 85.05 L 292.41 85.05 L 292.41 80.5 L 290.59 80.5 L 290.59 85.05 L 286.95 85.05 L 286.95 80.5 L 285.14 80.5 L 285.14 85.05 L 281.5 85.05 L 281.5 80.5 L 279.68 80.5 L 279.68 85.05 L 276.95 85.05 C 276.45 85.05 276.05 85.45 276.05 85.95 L 276.05 88.68 L 271.5 88.68 L 271.5 90.5 L 276.05 90.5 L 276.05 94.14 L 271.5 94.14 L 271.5 95.95 L 276.05 95.95 L 276.05 99.59 L 271.5 99.59 L 271.5 101.41 L 276.05 101.41 L 276.05 105.05 L 271.5 105.05 L 271.5 106.86 L 276.05 106.86 L 276.05 110.5 L 271.5 110.5 L 271.5 112.32 L 276.05 112.32 L 276.05 115.05 C 276.05 115.55 276.45 115.95 276.95 115.95 L 279.68 115.95 L 279.68 120.5 L 281.5 120.5 L 281.5 115.95 L 285.14 115.95 L 285.14 120.5 L 286.95 120.5 L 286.95 115.95 L 290.59 115.95 L 290.59 120.5 L 292.41 120.5 L 292.41 115.95 L 296.05 115.95 L 296.05 120.5 L 297.86 120.5 L 297.86 115.95 L 301.5 115.95 L 301.5 120.5 L 303.32 120.5 L 303.32 115.95 L 306.05 115.95 C 306.55 115.95 306.95 115.55 306.95 115.05 L 306.95 112.32 L 311.5 112.32 L 311.5 110.5 L 306.95 110.5 L 306.95 106.86 L 311.5 106.86 L 311.5 105.05 L 306.95 105.05 L 306.95 101.41 L 311.5 101.41 L 311.5 99.59 L 306.95 99.59 L 306.95 95.95 L 311.5 95.95 L 311.5 94.14 L 306.95 94.14 L 306.95 90.5 Z M 277.86 114.14 L 277.86 86.86 L 305.14 86.86 L 305.14 114.14 Z" fill="#d86613" stroke="none" pointer-events="none"/><rect x="250.5" y="140.5" width="80" height="90" fill="none" stroke="#5a6c86" stroke-dasharray="3 3" pointer-events="none"/><g fill="#5A6C86" font-family="Helvetica" pointer-events="none" text-anchor="middle" font-size="12px"><text x="290.5" y="158.5">Hardware 1</text></g><path d="M 311.5 190.5 L 311.5 188.68 L 306.95 188.68 L 306.95 185.95 C 306.95 185.45 306.55 185.05 306.05 185.05 L 303.32 185.05 L 303.32 180.5 L 301.5 180.5 L 301.5 185.05 L 297.86 185.05 L 297.86 180.5 L 296.05 180.5 L 296.05 185.05 L 292.41 185.05 L 292.41 180.5 L 290.59 180.5 L 290.59 185.05 L 286.95 185.05 L 286.95 180.5 L 285.14 180.5 L 285.14 185.05 L 281.5 185.05 L 281.5 180.5 L 279.68 180.5 L 279.68 185.05 L 276.95 185.05 C 276.45 185.05 276.05 185.45 276.05 185.95 L 276.05 188.68 L 271.5 188.68 L 271.5 190.5 L 276.05 190.5 L 276.05 194.14 L 271.5 194.14 L 271.5 195.95 L 276.05 195.95 L 276.05 199.59 L 271.5 199.59 L 271.5 201.41 L 276.05 201.41 L 276.05 205.05 L 271.5 205.05 L 271.5 206.86 L 276.05 206.86 L 276.05 210.5 L 271.5 210.5 L 271.5 212.32 L 276.05 212.32 L 276.05 215.05 C 276.05 215.55 276.45 215.95 276.95 215.95 L 279.68 215.95 L 279.68 220.5 L 281.5 220.5 L 281.5 215.95 L 285.14 215.95 L 285.14 220.5 L 286.95 220.5 L 286.95 215.95 L 290.59 215.95 L 290.59 220.5 L 292.41 220.5 L 292.41 215.95 L 296.05 215.95 L 296.05 220.5 L 297.86 220.5 L 297.86 215.95 L 301.5 215.95 L 301.5 220.5 L 303.32 220.5 L 303.32 215.95 L 306.05 215.95 C 306.55 215.95 306.95 215.55 306.95 215.05 L 306.95 212.32 L 311.5 212.32 L 311.5 210.5 L 306.95 210.5 L 306.95 206.86 L 311.5 206.86 L 311.5 205.05 L 306.95 205.05 L 306.95 201.41 L 311.5 201.41 L 311.5 199.59 L 306.95 199.59 L 306.95 195.95 L 311.5 195.95 L 311.5 194.14 L 306.95 194.14 L 306.95 190.5 Z M 277.86 214.14 L 277.86 186.86 L 305.14 186.86 L 305.14 214.14 Z" fill="#d86613" stroke="none" pointer-events="none"/></svg>