<svg xmlns="http://www.w3.org/2000/svg" version="1.1" height="221px" width="241px" viewBox="-10 -10 261 241" content="&lt;mxGraphModel dx=&quot;901&quot; dy=&quot;718&quot; grid=&quot;1&quot; gridSize=&quot;10&quot; guides=&quot;1&quot; tooltips=&quot;1&quot; connect=&quot;1&quot; arrows=&quot;1&quot; fold=&quot;1&quot; page=&quot;0&quot; pageScale=&quot;1&quot; pageWidth=&quot;827&quot; pageHeight=&quot;1169&quot; math=&quot;0&quot; shadow=&quot;0&quot;&gt;&lt;root&gt;&lt;mxCell id=&quot;0&quot;/&gt;&lt;mxCell id=&quot;1&quot; parent=&quot;0&quot;/&gt;&lt;mxCell id=&quot;9&quot; value=&quot;Availability Zone&quot; style=&quot;dashed=1;verticalAlign=top;fontStyle=0;fillColor=none;strokeColor=#FF8000;fontColor=#FF8000;&quot; parent=&quot;1&quot; vertex=&quot;1&quot;&gt;&lt;mxGeometry x=&quot;-60&quot; y=&quot;120&quot; width=&quot;240&quot; height=&quot;220&quot; as=&quot;geometry&quot;/&gt;&lt;/mxCell&gt;&lt;mxCell id=&quot;2&quot; value=&quot;&quot; style=&quot;outlineConnect=0;fontColor=#232F3E;gradientColor=none;fillColor=#D86613;strokeColor=none;dashed=0;verticalLabelPosition=bottom;verticalAlign=top;align=center;html=1;fontSize=12;fontStyle=0;aspect=fixed;pointerEvents=1;shape=mxgraph.aws4.instance2;&quot; parent=&quot;1&quot; vertex=&quot;1&quot;&gt;&lt;mxGeometry x=&quot;120&quot; y=&quot;200&quot; width=&quot;40&quot; height=&quot;40&quot; as=&quot;geometry&quot;/&gt;&lt;/mxCell&gt;&lt;mxCell id=&quot;3&quot; value=&quot;&quot; style=&quot;outlineConnect=0;fontColor=#232F3E;gradientColor=none;fillColor=#D86613;strokeColor=none;dashed=0;verticalLabelPosition=bottom;verticalAlign=top;align=center;html=1;fontSize=12;fontStyle=0;aspect=fixed;pointerEvents=1;shape=mxgraph.aws4.instance2;&quot; parent=&quot;1&quot; vertex=&quot;1&quot;&gt;&lt;mxGeometry x=&quot;40&quot; y=&quot;200&quot; width=&quot;40&quot; height=&quot;40&quot; as=&quot;geometry&quot;/&gt;&lt;/mxCell&gt;&lt;mxCell id=&quot;4&quot; value=&quot;&quot; style=&quot;outlineConnect=0;fontColor=#232F3E;gradientColor=none;fillColor=#D86613;strokeColor=none;dashed=0;verticalLabelPosition=bottom;verticalAlign=top;align=center;html=1;fontSize=12;fontStyle=0;aspect=fixed;pointerEvents=1;shape=mxgraph.aws4.instance2;&quot; parent=&quot;1&quot; vertex=&quot;1&quot;&gt;&lt;mxGeometry x=&quot;120&quot; y=&quot;280&quot; width=&quot;40&quot; height=&quot;40&quot; as=&quot;geometry&quot;/&gt;&lt;/mxCell&gt;&lt;mxCell id=&quot;5&quot; value=&quot;&quot; style=&quot;outlineConnect=0;fontColor=#232F3E;gradientColor=none;fillColor=#D86613;strokeColor=none;dashed=0;verticalLabelPosition=bottom;verticalAlign=top;align=center;html=1;fontSize=12;fontStyle=0;aspect=fixed;pointerEvents=1;shape=mxgraph.aws4.instance2;&quot; parent=&quot;1&quot; vertex=&quot;1&quot;&gt;&lt;mxGeometry x=&quot;40&quot; y=&quot;280&quot; width=&quot;40&quot; height=&quot;40&quot; as=&quot;geometry&quot;/&gt;&lt;/mxCell&gt;&lt;mxCell id=&quot;6&quot; value=&quot;&quot; style=&quot;outlineConnect=0;fontColor=#232F3E;gradientColor=none;fillColor=#D86613;strokeColor=none;dashed=0;verticalLabelPosition=bottom;verticalAlign=top;align=center;html=1;fontSize=12;fontStyle=0;aspect=fixed;pointerEvents=1;shape=mxgraph.aws4.instance2;&quot; parent=&quot;1&quot; vertex=&quot;1&quot;&gt;&lt;mxGeometry x=&quot;-40&quot; y=&quot;200&quot; width=&quot;40&quot; height=&quot;40&quot; as=&quot;geometry&quot;/&gt;&lt;/mxCell&gt;&lt;mxCell id=&quot;7&quot; value=&quot;&quot; style=&quot;outlineConnect=0;fontColor=#232F3E;gradientColor=none;fillColor=#D86613;strokeColor=none;dashed=0;verticalLabelPosition=bottom;verticalAlign=top;align=center;html=1;fontSize=12;fontStyle=0;aspect=fixed;pointerEvents=1;shape=mxgraph.aws4.instance2;&quot; parent=&quot;1&quot; vertex=&quot;1&quot;&gt;&lt;mxGeometry x=&quot;-40&quot; y=&quot;280&quot; width=&quot;40&quot; height=&quot;40&quot; as=&quot;geometry&quot;/&gt;&lt;/mxCell&gt;&lt;mxCell id=&quot;10&quot; value=&quot;Server Rack&quot; style=&quot;strokeColor=#006EAF;dashed=1;verticalAlign=top;fontStyle=0;fillColor=none;fontColor=#7EA6E0;&quot; parent=&quot;1&quot; vertex=&quot;1&quot;&gt;&lt;mxGeometry x=&quot;-50&quot; y=&quot;160&quot; width=&quot;220&quot; height=&quot;170&quot; as=&quot;geometry&quot;/&gt;&lt;/mxCell&gt;&lt;/root&gt;&lt;/mxGraphModel&gt;"><style type="text/css"></style><rect x="0.5" y="0.5" width="240" height="220" fill="none" stroke="#ff8000" stroke-dasharray="3 3" pointer-events="none"/><g fill="#FF8000" font-family="Helvetica" pointer-events="none" text-anchor="middle" font-size="12px"><text x="120.5" y="18.5">Availability Zone</text></g><path d="M 220.5 90.5 L 220.5 88.68 L 215.95 88.68 L 215.95 85.95 C 215.95 85.45 215.55 85.05 215.05 85.05 L 212.32 85.05 L 212.32 80.5 L 210.5 80.5 L 210.5 85.05 L 206.86 85.05 L 206.86 80.5 L 205.05 80.5 L 205.05 85.05 L 201.41 85.05 L 201.41 80.5 L 199.59 80.5 L 199.59 85.05 L 195.95 85.05 L 195.95 80.5 L 194.14 80.5 L 194.14 85.05 L 190.5 85.05 L 190.5 80.5 L 188.68 80.5 L 188.68 85.05 L 185.95 85.05 C 185.45 85.05 185.05 85.45 185.05 85.95 L 185.05 88.68 L 180.5 88.68 L 180.5 90.5 L 185.05 90.5 L 185.05 94.14 L 180.5 94.14 L 180.5 95.95 L 185.05 95.95 L 185.05 99.59 L 180.5 99.59 L 180.5 101.41 L 185.05 101.41 L 185.05 105.05 L 180.5 105.05 L 180.5 106.86 L 185.05 106.86 L 185.05 110.5 L 180.5 110.5 L 180.5 112.32 L 185.05 112.32 L 185.05 115.05 C 185.05 115.55 185.45 115.95 185.95 115.95 L 188.68 115.95 L 188.68 120.5 L 190.5 120.5 L 190.5 115.95 L 194.14 115.95 L 194.14 120.5 L 195.95 120.5 L 195.95 115.95 L 199.59 115.95 L 199.59 120.5 L 201.41 120.5 L 201.41 115.95 L 205.05 115.95 L 205.05 120.5 L 206.86 120.5 L 206.86 115.95 L 210.5 115.95 L 210.5 120.5 L 212.32 120.5 L 212.32 115.95 L 215.05 115.95 C 215.55 115.95 215.95 115.55 215.95 115.05 L 215.95 112.32 L 220.5 112.32 L 220.5 110.5 L 215.95 110.5 L 215.95 106.86 L 220.5 106.86 L 220.5 105.05 L 215.95 105.05 L 215.95 101.41 L 220.5 101.41 L 220.5 99.59 L 215.95 99.59 L 215.95 95.95 L 220.5 95.95 L 220.5 94.14 L 215.95 94.14 L 215.95 90.5 Z M 186.86 114.14 L 186.86 86.86 L 214.14 86.86 L 214.14 114.14 Z" fill="#d86613" stroke="none" pointer-events="none"/><path d="M 140.5 90.5 L 140.5 88.68 L 135.95 88.68 L 135.95 85.95 C 135.95 85.45 135.55 85.05 135.05 85.05 L 132.32 85.05 L 132.32 80.5 L 130.5 80.5 L 130.5 85.05 L 126.86 85.05 L 126.86 80.5 L 125.05 80.5 L 125.05 85.05 L 121.41 85.05 L 121.41 80.5 L 119.59 80.5 L 119.59 85.05 L 115.95 85.05 L 115.95 80.5 L 114.14 80.5 L 114.14 85.05 L 110.5 85.05 L 110.5 80.5 L 108.68 80.5 L 108.68 85.05 L 105.95 85.05 C 105.45 85.05 105.05 85.45 105.05 85.95 L 105.05 88.68 L 100.5 88.68 L 100.5 90.5 L 105.05 90.5 L 105.05 94.14 L 100.5 94.14 L 100.5 95.95 L 105.05 95.95 L 105.05 99.59 L 100.5 99.59 L 100.5 101.41 L 105.05 101.41 L 105.05 105.05 L 100.5 105.05 L 100.5 106.86 L 105.05 106.86 L 105.05 110.5 L 100.5 110.5 L 100.5 112.32 L 105.05 112.32 L 105.05 115.05 C 105.05 115.55 105.45 115.95 105.95 115.95 L 108.68 115.95 L 108.68 120.5 L 110.5 120.5 L 110.5 115.95 L 114.14 115.95 L 114.14 120.5 L 115.95 120.5 L 115.95 115.95 L 119.59 115.95 L 119.59 120.5 L 121.41 120.5 L 121.41 115.95 L 125.05 115.95 L 125.05 120.5 L 126.86 120.5 L 126.86 115.95 L 130.5 115.95 L 130.5 120.5 L 132.32 120.5 L 132.32 115.95 L 135.05 115.95 C 135.55 115.95 135.95 115.55 135.95 115.05 L 135.95 112.32 L 140.5 112.32 L 140.5 110.5 L 135.95 110.5 L 135.95 106.86 L 140.5 106.86 L 140.5 105.05 L 135.95 105.05 L 135.95 101.41 L 140.5 101.41 L 140.5 99.59 L 135.95 99.59 L 135.95 95.95 L 140.5 95.95 L 140.5 94.14 L 135.95 94.14 L 135.95 90.5 Z M 106.86 114.14 L 106.86 86.86 L 134.14 86.86 L 134.14 114.14 Z" fill="#d86613" stroke="none" pointer-events="none"/><path d="M 220.5 170.5 L 220.5 168.68 L 215.95 168.68 L 215.95 165.95 C 215.95 165.45 215.55 165.05 215.05 165.05 L 212.32 165.05 L 212.32 160.5 L 210.5 160.5 L 210.5 165.05 L 206.86 165.05 L 206.86 160.5 L 205.05 160.5 L 205.05 165.05 L 201.41 165.05 L 201.41 160.5 L 199.59 160.5 L 199.59 165.05 L 195.95 165.05 L 195.95 160.5 L 194.14 160.5 L 194.14 165.05 L 190.5 165.05 L 190.5 160.5 L 188.68 160.5 L 188.68 165.05 L 185.95 165.05 C 185.45 165.05 185.05 165.45 185.05 165.95 L 185.05 168.68 L 180.5 168.68 L 180.5 170.5 L 185.05 170.5 L 185.05 174.14 L 180.5 174.14 L 180.5 175.95 L 185.05 175.95 L 185.05 179.59 L 180.5 179.59 L 180.5 181.41 L 185.05 181.41 L 185.05 185.05 L 180.5 185.05 L 180.5 186.86 L 185.05 186.86 L 185.05 190.5 L 180.5 190.5 L 180.5 192.32 L 185.05 192.32 L 185.05 195.05 C 185.05 195.55 185.45 195.95 185.95 195.95 L 188.68 195.95 L 188.68 200.5 L 190.5 200.5 L 190.5 195.95 L 194.14 195.95 L 194.14 200.5 L 195.95 200.5 L 195.95 195.95 L 199.59 195.95 L 199.59 200.5 L 201.41 200.5 L 201.41 195.95 L 205.05 195.95 L 205.05 200.5 L 206.86 200.5 L 206.86 195.95 L 210.5 195.95 L 210.5 200.5 L 212.32 200.5 L 212.32 195.95 L 215.05 195.95 C 215.55 195.95 215.95 195.55 215.95 195.05 L 215.95 192.32 L 220.5 192.32 L 220.5 190.5 L 215.95 190.5 L 215.95 186.86 L 220.5 186.86 L 220.5 185.05 L 215.95 185.05 L 215.95 181.41 L 220.5 181.41 L 220.5 179.59 L 215.95 179.59 L 215.95 175.95 L 220.5 175.95 L 220.5 174.14 L 215.95 174.14 L 215.95 170.5 Z M 186.86 194.14 L 186.86 166.86 L 214.14 166.86 L 214.14 194.14 Z" fill="#d86613" stroke="none" pointer-events="none"/><path d="M 140.5 170.5 L 140.5 168.68 L 135.95 168.68 L 135.95 165.95 C 135.95 165.45 135.55 165.05 135.05 165.05 L 132.32 165.05 L 132.32 160.5 L 130.5 160.5 L 130.5 165.05 L 126.86 165.05 L 126.86 160.5 L 125.05 160.5 L 125.05 165.05 L 121.41 165.05 L 121.41 160.5 L 119.59 160.5 L 119.59 165.05 L 115.95 165.05 L 115.95 160.5 L 114.14 160.5 L 114.14 165.05 L 110.5 165.05 L 110.5 160.5 L 108.68 160.5 L 108.68 165.05 L 105.95 165.05 C 105.45 165.05 105.05 165.45 105.05 165.95 L 105.05 168.68 L 100.5 168.68 L 100.5 170.5 L 105.05 170.5 L 105.05 174.14 L 100.5 174.14 L 100.5 175.95 L 105.05 175.95 L 105.05 179.59 L 100.5 179.59 L 100.5 181.41 L 105.05 181.41 L 105.05 185.05 L 100.5 185.05 L 100.5 186.86 L 105.05 186.86 L 105.05 190.5 L 100.5 190.5 L 100.5 192.32 L 105.05 192.32 L 105.05 195.05 C 105.05 195.55 105.45 195.95 105.95 195.95 L 108.68 195.95 L 108.68 200.5 L 110.5 200.5 L 110.5 195.95 L 114.14 195.95 L 114.14 200.5 L 115.95 200.5 L 115.95 195.95 L 119.59 195.95 L 119.59 200.5 L 121.41 200.5 L 121.41 195.95 L 125.05 195.95 L 125.05 200.5 L 126.86 200.5 L 126.86 195.95 L 130.5 195.95 L 130.5 200.5 L 132.32 200.5 L 132.32 195.95 L 135.05 195.95 C 135.55 195.95 135.95 195.55 135.95 195.05 L 135.95 192.32 L 140.5 192.32 L 140.5 190.5 L 135.95 190.5 L 135.95 186.86 L 140.5 186.86 L 140.5 185.05 L 135.95 185.05 L 135.95 181.41 L 140.5 181.41 L 140.5 179.59 L 135.95 179.59 L 135.95 175.95 L 140.5 175.95 L 140.5 174.14 L 135.95 174.14 L 135.95 170.5 Z M 106.86 194.14 L 106.86 166.86 L 134.14 166.86 L 134.14 194.14 Z" fill="#d86613" stroke="none" pointer-events="none"/><path d="M 60.5 90.5 L 60.5 88.68 L 55.95 88.68 L 55.95 85.95 C 55.95 85.45 55.55 85.05 55.05 85.05 L 52.32 85.05 L 52.32 80.5 L 50.5 80.5 L 50.5 85.05 L 46.86 85.05 L 46.86 80.5 L 45.05 80.5 L 45.05 85.05 L 41.41 85.05 L 41.41 80.5 L 39.59 80.5 L 39.59 85.05 L 35.95 85.05 L 35.95 80.5 L 34.14 80.5 L 34.14 85.05 L 30.5 85.05 L 30.5 80.5 L 28.68 80.5 L 28.68 85.05 L 25.95 85.05 C 25.45 85.05 25.05 85.45 25.05 85.95 L 25.05 88.68 L 20.5 88.68 L 20.5 90.5 L 25.05 90.5 L 25.05 94.14 L 20.5 94.14 L 20.5 95.95 L 25.05 95.95 L 25.05 99.59 L 20.5 99.59 L 20.5 101.41 L 25.05 101.41 L 25.05 105.05 L 20.5 105.05 L 20.5 106.86 L 25.05 106.86 L 25.05 110.5 L 20.5 110.5 L 20.5 112.32 L 25.05 112.32 L 25.05 115.05 C 25.05 115.55 25.45 115.95 25.95 115.95 L 28.68 115.95 L 28.68 120.5 L 30.5 120.5 L 30.5 115.95 L 34.14 115.95 L 34.14 120.5 L 35.95 120.5 L 35.95 115.95 L 39.59 115.95 L 39.59 120.5 L 41.41 120.5 L 41.41 115.95 L 45.05 115.95 L 45.05 120.5 L 46.86 120.5 L 46.86 115.95 L 50.5 115.95 L 50.5 120.5 L 52.32 120.5 L 52.32 115.95 L 55.05 115.95 C 55.55 115.95 55.95 115.55 55.95 115.05 L 55.95 112.32 L 60.5 112.32 L 60.5 110.5 L 55.95 110.5 L 55.95 106.86 L 60.5 106.86 L 60.5 105.05 L 55.95 105.05 L 55.95 101.41 L 60.5 101.41 L 60.5 99.59 L 55.95 99.59 L 55.95 95.95 L 60.5 95.95 L 60.5 94.14 L 55.95 94.14 L 55.95 90.5 Z M 26.86 114.14 L 26.86 86.86 L 54.14 86.86 L 54.14 114.14 Z" fill="#d86613" stroke="none" pointer-events="none"/><path d="M 60.5 170.5 L 60.5 168.68 L 55.95 168.68 L 55.95 165.95 C 55.95 165.45 55.55 165.05 55.05 165.05 L 52.32 165.05 L 52.32 160.5 L 50.5 160.5 L 50.5 165.05 L 46.86 165.05 L 46.86 160.5 L 45.05 160.5 L 45.05 165.05 L 41.41 165.05 L 41.41 160.5 L 39.59 160.5 L 39.59 165.05 L 35.95 165.05 L 35.95 160.5 L 34.14 160.5 L 34.14 165.05 L 30.5 165.05 L 30.5 160.5 L 28.68 160.5 L 28.68 165.05 L 25.95 165.05 C 25.45 165.05 25.05 165.45 25.05 165.95 L 25.05 168.68 L 20.5 168.68 L 20.5 170.5 L 25.05 170.5 L 25.05 174.14 L 20.5 174.14 L 20.5 175.95 L 25.05 175.95 L 25.05 179.59 L 20.5 179.59 L 20.5 181.41 L 25.05 181.41 L 25.05 185.05 L 20.5 185.05 L 20.5 186.86 L 25.05 186.86 L 25.05 190.5 L 20.5 190.5 L 20.5 192.32 L 25.05 192.32 L 25.05 195.05 C 25.05 195.55 25.45 195.95 25.95 195.95 L 28.68 195.95 L 28.68 200.5 L 30.5 200.5 L 30.5 195.95 L 34.14 195.95 L 34.14 200.5 L 35.95 200.5 L 35.95 195.95 L 39.59 195.95 L 39.59 200.5 L 41.41 200.5 L 41.41 195.95 L 45.05 195.95 L 45.05 200.5 L 46.86 200.5 L 46.86 195.95 L 50.5 195.95 L 50.5 200.5 L 52.32 200.5 L 52.32 195.95 L 55.05 195.95 C 55.55 195.95 55.95 195.55 55.95 195.05 L 55.95 192.32 L 60.5 192.32 L 60.5 190.5 L 55.95 190.5 L 55.95 186.86 L 60.5 186.86 L 60.5 185.05 L 55.95 185.05 L 55.95 181.41 L 60.5 181.41 L 60.5 179.59 L 55.95 179.59 L 55.95 175.95 L 60.5 175.95 L 60.5 174.14 L 55.95 174.14 L 55.95 170.5 Z M 26.86 194.14 L 26.86 166.86 L 54.14 166.86 L 54.14 194.14 Z" fill="#d86613" stroke="none" pointer-events="none"/><rect x="10.5" y="40.5" width="220" height="170" fill="none" stroke="#006eaf" stroke-dasharray="3 3" pointer-events="none"/><g fill="#7EA6E0" font-family="Helvetica" pointer-events="none" text-anchor="middle" font-size="12px"><text x="120.5" y="58.5">Server Rack</text></g></svg>