<svg xmlns="http://www.w3.org/2000/svg" version="1.1" height="291.00000000000006px" width="321.00000000000006px" viewBox="-10 -10 341.00000000000006 311.00000000000006" content="&lt;mxGraphModel dx=&quot;766&quot; dy=&quot;33&quot; grid=&quot;1&quot; gridSize=&quot;10&quot; guides=&quot;1&quot; tooltips=&quot;1&quot; connect=&quot;1&quot; arrows=&quot;1&quot; fold=&quot;1&quot; page=&quot;0&quot; pageScale=&quot;1&quot; pageWidth=&quot;827&quot; pageHeight=&quot;1169&quot; math=&quot;0&quot; shadow=&quot;0&quot;&gt;&lt;root&gt;&lt;mxCell id=&quot;0&quot;/&gt;&lt;mxCell id=&quot;1&quot; parent=&quot;0&quot;/&gt;&lt;mxCell id=&quot;2&quot; value=&quot;Availability Zone&quot; style=&quot;dashed=1;verticalAlign=top;fontStyle=0;fillColor=none;strokeColor=#FA6800;fontColor=#FA6800;&quot; vertex=&quot;1&quot; parent=&quot;1&quot;&gt;&lt;mxGeometry x=&quot;170&quot; y=&quot;400&quot; width=&quot;200&quot; height=&quot;290&quot; as=&quot;geometry&quot;/&gt;&lt;/mxCell&gt;&lt;mxCell id=&quot;4&quot; value=&quot;Server Rack&amp;#10;(Partition 1)&quot; style=&quot;fillColor=none;strokeColor=#5A6C86;dashed=1;verticalAlign=top;fontStyle=0;fontColor=#5A6C86;&quot; vertex=&quot;1&quot; parent=&quot;1&quot;&gt;&lt;mxGeometry x=&quot;180&quot; y=&quot;440&quot; width=&quot;80&quot; height=&quot;240&quot; as=&quot;geometry&quot;/&gt;&lt;/mxCell&gt;&lt;mxCell id=&quot;18&quot; value=&quot;&quot; style=&quot;outlineConnect=0;fontColor=#232F3E;gradientColor=none;fillColor=#D86613;strokeColor=none;dashed=0;verticalLabelPosition=bottom;verticalAlign=top;align=center;html=1;fontSize=12;fontStyle=0;aspect=fixed;pointerEvents=1;shape=mxgraph.aws4.instance2;&quot; vertex=&quot;1&quot; parent=&quot;1&quot;&gt;&lt;mxGeometry x=&quot;200&quot; y=&quot;480&quot; width=&quot;40&quot; height=&quot;40&quot; as=&quot;geometry&quot;/&gt;&lt;/mxCell&gt;&lt;mxCell id=&quot;19&quot; value=&quot;&quot; style=&quot;outlineConnect=0;fontColor=#232F3E;gradientColor=none;fillColor=#D86613;strokeColor=none;dashed=0;verticalLabelPosition=bottom;verticalAlign=top;align=center;html=1;fontSize=12;fontStyle=0;aspect=fixed;pointerEvents=1;shape=mxgraph.aws4.instance2;&quot; vertex=&quot;1&quot; parent=&quot;1&quot;&gt;&lt;mxGeometry x=&quot;200&quot; y=&quot;630&quot; width=&quot;40&quot; height=&quot;40&quot; as=&quot;geometry&quot;/&gt;&lt;/mxCell&gt;&lt;mxCell id=&quot;20&quot; value=&quot;&quot; style=&quot;outlineConnect=0;fontColor=#232F3E;gradientColor=none;fillColor=#D86613;strokeColor=none;dashed=0;verticalLabelPosition=bottom;verticalAlign=top;align=center;html=1;fontSize=12;fontStyle=0;aspect=fixed;pointerEvents=1;shape=mxgraph.aws4.instance2;&quot; vertex=&quot;1&quot; parent=&quot;1&quot;&gt;&lt;mxGeometry x=&quot;200&quot; y=&quot;530&quot; width=&quot;40&quot; height=&quot;40&quot; as=&quot;geometry&quot;/&gt;&lt;/mxCell&gt;&lt;mxCell id=&quot;21&quot; value=&quot;&quot; style=&quot;outlineConnect=0;fontColor=#232F3E;gradientColor=none;fillColor=#D86613;strokeColor=none;dashed=0;verticalLabelPosition=bottom;verticalAlign=top;align=center;html=1;fontSize=12;fontStyle=0;aspect=fixed;pointerEvents=1;shape=mxgraph.aws4.instance2;&quot; vertex=&quot;1&quot; parent=&quot;1&quot;&gt;&lt;mxGeometry x=&quot;200&quot; y=&quot;580&quot; width=&quot;40&quot; height=&quot;40&quot; as=&quot;geometry&quot;/&gt;&lt;/mxCell&gt;&lt;mxCell id=&quot;30&quot; value=&quot;Server Rack&amp;#10;(Partition 2)&quot; style=&quot;fillColor=none;strokeColor=#5A6C86;dashed=1;verticalAlign=top;fontStyle=0;fontColor=#5A6C86;&quot; vertex=&quot;1&quot; parent=&quot;1&quot;&gt;&lt;mxGeometry x=&quot;280&quot; y=&quot;440&quot; width=&quot;80&quot; height=&quot;240&quot; as=&quot;geometry&quot;/&gt;&lt;/mxCell&gt;&lt;mxCell id=&quot;31&quot; value=&quot;&quot; style=&quot;outlineConnect=0;fontColor=#232F3E;gradientColor=none;fillColor=#D86613;strokeColor=none;dashed=0;verticalLabelPosition=bottom;verticalAlign=top;align=center;html=1;fontSize=12;fontStyle=0;aspect=fixed;pointerEvents=1;shape=mxgraph.aws4.instance2;&quot; vertex=&quot;1&quot; parent=&quot;1&quot;&gt;&lt;mxGeometry x=&quot;300&quot; y=&quot;480&quot; width=&quot;40&quot; height=&quot;40&quot; as=&quot;geometry&quot;/&gt;&lt;/mxCell&gt;&lt;mxCell id=&quot;32&quot; value=&quot;&quot; style=&quot;outlineConnect=0;fontColor=#232F3E;gradientColor=none;fillColor=#D86613;strokeColor=none;dashed=0;verticalLabelPosition=bottom;verticalAlign=top;align=center;html=1;fontSize=12;fontStyle=0;aspect=fixed;pointerEvents=1;shape=mxgraph.aws4.instance2;&quot; vertex=&quot;1&quot; parent=&quot;1&quot;&gt;&lt;mxGeometry x=&quot;300&quot; y=&quot;630&quot; width=&quot;40&quot; height=&quot;40&quot; as=&quot;geometry&quot;/&gt;&lt;/mxCell&gt;&lt;mxCell id=&quot;33&quot; value=&quot;&quot; style=&quot;outlineConnect=0;fontColor=#232F3E;gradientColor=none;fillColor=#D86613;strokeColor=none;dashed=0;verticalLabelPosition=bottom;verticalAlign=top;align=center;html=1;fontSize=12;fontStyle=0;aspect=fixed;pointerEvents=1;shape=mxgraph.aws4.instance2;&quot; vertex=&quot;1&quot; parent=&quot;1&quot;&gt;&lt;mxGeometry x=&quot;300&quot; y=&quot;530&quot; width=&quot;40&quot; height=&quot;40&quot; as=&quot;geometry&quot;/&gt;&lt;/mxCell&gt;&lt;mxCell id=&quot;34&quot; value=&quot;&quot; style=&quot;outlineConnect=0;fontColor=#232F3E;gradientColor=none;fillColor=#D86613;strokeColor=none;dashed=0;verticalLabelPosition=bottom;verticalAlign=top;align=center;html=1;fontSize=12;fontStyle=0;aspect=fixed;pointerEvents=1;shape=mxgraph.aws4.instance2;&quot; vertex=&quot;1&quot; parent=&quot;1&quot;&gt;&lt;mxGeometry x=&quot;300&quot; y=&quot;580&quot; width=&quot;40&quot; height=&quot;40&quot; as=&quot;geometry&quot;/&gt;&lt;/mxCell&gt;&lt;mxCell id=&quot;35&quot; value=&quot;Availability Zone&quot; style=&quot;dashed=1;verticalAlign=top;fontStyle=0;fillColor=none;strokeColor=#FA6800;fontColor=#FA6800;&quot; vertex=&quot;1&quot; parent=&quot;1&quot;&gt;&lt;mxGeometry x=&quot;390&quot; y=&quot;400&quot; width=&quot;100&quot; height=&quot;290&quot; as=&quot;geometry&quot;/&gt;&lt;/mxCell&gt;&lt;mxCell id=&quot;36&quot; value=&quot;Server Rack&amp;#10;(Partition 3)&quot; style=&quot;fillColor=none;strokeColor=#5A6C86;dashed=1;verticalAlign=top;fontStyle=0;fontColor=#5A6C86;&quot; vertex=&quot;1&quot; parent=&quot;1&quot;&gt;&lt;mxGeometry x=&quot;400&quot; y=&quot;440&quot; width=&quot;80&quot; height=&quot;240&quot; as=&quot;geometry&quot;/&gt;&lt;/mxCell&gt;&lt;mxCell id=&quot;37&quot; value=&quot;&quot; style=&quot;outlineConnect=0;fontColor=#232F3E;gradientColor=none;fillColor=#D86613;strokeColor=none;dashed=0;verticalLabelPosition=bottom;verticalAlign=top;align=center;html=1;fontSize=12;fontStyle=0;aspect=fixed;pointerEvents=1;shape=mxgraph.aws4.instance2;&quot; vertex=&quot;1&quot; parent=&quot;1&quot;&gt;&lt;mxGeometry x=&quot;420&quot; y=&quot;480&quot; width=&quot;40&quot; height=&quot;40&quot; as=&quot;geometry&quot;/&gt;&lt;/mxCell&gt;&lt;mxCell id=&quot;38&quot; value=&quot;&quot; style=&quot;outlineConnect=0;fontColor=#232F3E;gradientColor=none;fillColor=#D86613;strokeColor=none;dashed=0;verticalLabelPosition=bottom;verticalAlign=top;align=center;html=1;fontSize=12;fontStyle=0;aspect=fixed;pointerEvents=1;shape=mxgraph.aws4.instance2;&quot; vertex=&quot;1&quot; parent=&quot;1&quot;&gt;&lt;mxGeometry x=&quot;420&quot; y=&quot;630&quot; width=&quot;40&quot; height=&quot;40&quot; as=&quot;geometry&quot;/&gt;&lt;/mxCell&gt;&lt;mxCell id=&quot;39&quot; value=&quot;&quot; style=&quot;outlineConnect=0;fontColor=#232F3E;gradientColor=none;fillColor=#D86613;strokeColor=none;dashed=0;verticalLabelPosition=bottom;verticalAlign=top;align=center;html=1;fontSize=12;fontStyle=0;aspect=fixed;pointerEvents=1;shape=mxgraph.aws4.instance2;&quot; vertex=&quot;1&quot; parent=&quot;1&quot;&gt;&lt;mxGeometry x=&quot;420&quot; y=&quot;530&quot; width=&quot;40&quot; height=&quot;40&quot; as=&quot;geometry&quot;/&gt;&lt;/mxCell&gt;&lt;mxCell id=&quot;40&quot; value=&quot;&quot; style=&quot;outlineConnect=0;fontColor=#232F3E;gradientColor=none;fillColor=#D86613;strokeColor=none;dashed=0;verticalLabelPosition=bottom;verticalAlign=top;align=center;html=1;fontSize=12;fontStyle=0;aspect=fixed;pointerEvents=1;shape=mxgraph.aws4.instance2;&quot; vertex=&quot;1&quot; parent=&quot;1&quot;&gt;&lt;mxGeometry x=&quot;420&quot; y=&quot;580&quot; width=&quot;40&quot; height=&quot;40&quot; as=&quot;geometry&quot;/&gt;&lt;/mxCell&gt;&lt;/root&gt;&lt;/mxGraphModel&gt;"><style type="text/css"></style><rect x="0.5" y="0.5" width="200" height="290" fill="none" stroke="#fa6800" stroke-dasharray="3 3" pointer-events="none"/><g fill="#FA6800" font-family="Helvetica" pointer-events="none" text-anchor="middle" font-size="12px"><text x="100.5" y="18.5">Availability Zone</text></g><rect x="10.5" y="40.5" width="80" height="240" fill="none" stroke="#5a6c86" stroke-dasharray="3 3" pointer-events="none"/><g fill="#5A6C86" font-family="Helvetica" pointer-events="none" text-anchor="middle" font-size="12px"><text x="50.5" y="58.5">Server Rack</text><text x="50.5" y="72.5">(Partition 1)</text></g><path d="M 70.5 90.5 L 70.5 88.68 L 65.95 88.68 L 65.95 85.95 C 65.95 85.45 65.55 85.05 65.05 85.05 L 62.32 85.05 L 62.32 80.5 L 60.5 80.5 L 60.5 85.05 L 56.86 85.05 L 56.86 80.5 L 55.05 80.5 L 55.05 85.05 L 51.41 85.05 L 51.41 80.5 L 49.59 80.5 L 49.59 85.05 L 45.95 85.05 L 45.95 80.5 L 44.14 80.5 L 44.14 85.05 L 40.5 85.05 L 40.5 80.5 L 38.68 80.5 L 38.68 85.05 L 35.95 85.05 C 35.45 85.05 35.05 85.45 35.05 85.95 L 35.05 88.68 L 30.5 88.68 L 30.5 90.5 L 35.05 90.5 L 35.05 94.14 L 30.5 94.14 L 30.5 95.95 L 35.05 95.95 L 35.05 99.59 L 30.5 99.59 L 30.5 101.41 L 35.05 101.41 L 35.05 105.05 L 30.5 105.05 L 30.5 106.86 L 35.05 106.86 L 35.05 110.5 L 30.5 110.5 L 30.5 112.32 L 35.05 112.32 L 35.05 115.05 C 35.05 115.55 35.45 115.95 35.95 115.95 L 38.68 115.95 L 38.68 120.5 L 40.5 120.5 L 40.5 115.95 L 44.14 115.95 L 44.14 120.5 L 45.95 120.5 L 45.95 115.95 L 49.59 115.95 L 49.59 120.5 L 51.41 120.5 L 51.41 115.95 L 55.05 115.95 L 55.05 120.5 L 56.86 120.5 L 56.86 115.95 L 60.5 115.95 L 60.5 120.5 L 62.32 120.5 L 62.32 115.95 L 65.05 115.95 C 65.55 115.95 65.95 115.55 65.95 115.05 L 65.95 112.32 L 70.5 112.32 L 70.5 110.5 L 65.95 110.5 L 65.95 106.86 L 70.5 106.86 L 70.5 105.05 L 65.95 105.05 L 65.95 101.41 L 70.5 101.41 L 70.5 99.59 L 65.95 99.59 L 65.95 95.95 L 70.5 95.95 L 70.5 94.14 L 65.95 94.14 L 65.95 90.5 Z M 36.86 114.14 L 36.86 86.86 L 64.14 86.86 L 64.14 114.14 Z" fill="#d86613" stroke="none" pointer-events="none"/><path d="M 70.5 240.5 L 70.5 238.68 L 65.95 238.68 L 65.95 235.95 C 65.95 235.45 65.55 235.05 65.05 235.05 L 62.32 235.05 L 62.32 230.5 L 60.5 230.5 L 60.5 235.05 L 56.86 235.05 L 56.86 230.5 L 55.05 230.5 L 55.05 235.05 L 51.41 235.05 L 51.41 230.5 L 49.59 230.5 L 49.59 235.05 L 45.95 235.05 L 45.95 230.5 L 44.14 230.5 L 44.14 235.05 L 40.5 235.05 L 40.5 230.5 L 38.68 230.5 L 38.68 235.05 L 35.95 235.05 C 35.45 235.05 35.05 235.45 35.05 235.95 L 35.05 238.68 L 30.5 238.68 L 30.5 240.5 L 35.05 240.5 L 35.05 244.14 L 30.5 244.14 L 30.5 245.95 L 35.05 245.95 L 35.05 249.59 L 30.5 249.59 L 30.5 251.41 L 35.05 251.41 L 35.05 255.05 L 30.5 255.05 L 30.5 256.86 L 35.05 256.86 L 35.05 260.5 L 30.5 260.5 L 30.5 262.32 L 35.05 262.32 L 35.05 265.05 C 35.05 265.55 35.45 265.95 35.95 265.95 L 38.68 265.95 L 38.68 270.5 L 40.5 270.5 L 40.5 265.95 L 44.14 265.95 L 44.14 270.5 L 45.95 270.5 L 45.95 265.95 L 49.59 265.95 L 49.59 270.5 L 51.41 270.5 L 51.41 265.95 L 55.05 265.95 L 55.05 270.5 L 56.86 270.5 L 56.86 265.95 L 60.5 265.95 L 60.5 270.5 L 62.32 270.5 L 62.32 265.95 L 65.05 265.95 C 65.55 265.95 65.95 265.55 65.95 265.05 L 65.95 262.32 L 70.5 262.32 L 70.5 260.5 L 65.95 260.5 L 65.95 256.86 L 70.5 256.86 L 70.5 255.05 L 65.95 255.05 L 65.95 251.41 L 70.5 251.41 L 70.5 249.59 L 65.95 249.59 L 65.95 245.95 L 70.5 245.95 L 70.5 244.14 L 65.95 244.14 L 65.95 240.5 Z M 36.86 264.14 L 36.86 236.86 L 64.14 236.86 L 64.14 264.14 Z" fill="#d86613" stroke="none" pointer-events="none"/><path d="M 70.5 140.5 L 70.5 138.68 L 65.95 138.68 L 65.95 135.95 C 65.95 135.45 65.55 135.05 65.05 135.05 L 62.32 135.05 L 62.32 130.5 L 60.5 130.5 L 60.5 135.05 L 56.86 135.05 L 56.86 130.5 L 55.05 130.5 L 55.05 135.05 L 51.41 135.05 L 51.41 130.5 L 49.59 130.5 L 49.59 135.05 L 45.95 135.05 L 45.95 130.5 L 44.14 130.5 L 44.14 135.05 L 40.5 135.05 L 40.5 130.5 L 38.68 130.5 L 38.68 135.05 L 35.95 135.05 C 35.45 135.05 35.05 135.45 35.05 135.95 L 35.05 138.68 L 30.5 138.68 L 30.5 140.5 L 35.05 140.5 L 35.05 144.14 L 30.5 144.14 L 30.5 145.95 L 35.05 145.95 L 35.05 149.59 L 30.5 149.59 L 30.5 151.41 L 35.05 151.41 L 35.05 155.05 L 30.5 155.05 L 30.5 156.86 L 35.05 156.86 L 35.05 160.5 L 30.5 160.5 L 30.5 162.32 L 35.05 162.32 L 35.05 165.05 C 35.05 165.55 35.45 165.95 35.95 165.95 L 38.68 165.95 L 38.68 170.5 L 40.5 170.5 L 40.5 165.95 L 44.14 165.95 L 44.14 170.5 L 45.95 170.5 L 45.95 165.95 L 49.59 165.95 L 49.59 170.5 L 51.41 170.5 L 51.41 165.95 L 55.05 165.95 L 55.05 170.5 L 56.86 170.5 L 56.86 165.95 L 60.5 165.95 L 60.5 170.5 L 62.32 170.5 L 62.32 165.95 L 65.05 165.95 C 65.55 165.95 65.95 165.55 65.95 165.05 L 65.95 162.32 L 70.5 162.32 L 70.5 160.5 L 65.95 160.5 L 65.95 156.86 L 70.5 156.86 L 70.5 155.05 L 65.95 155.05 L 65.95 151.41 L 70.5 151.41 L 70.5 149.59 L 65.95 149.59 L 65.95 145.95 L 70.5 145.95 L 70.5 144.14 L 65.95 144.14 L 65.95 140.5 Z M 36.86 164.14 L 36.86 136.86 L 64.14 136.86 L 64.14 164.14 Z" fill="#d86613" stroke="none" pointer-events="none"/><path d="M 70.5 190.5 L 70.5 188.68 L 65.95 188.68 L 65.95 185.95 C 65.95 185.45 65.55 185.05 65.05 185.05 L 62.32 185.05 L 62.32 180.5 L 60.5 180.5 L 60.5 185.05 L 56.86 185.05 L 56.86 180.5 L 55.05 180.5 L 55.05 185.05 L 51.41 185.05 L 51.41 180.5 L 49.59 180.5 L 49.59 185.05 L 45.95 185.05 L 45.95 180.5 L 44.14 180.5 L 44.14 185.05 L 40.5 185.05 L 40.5 180.5 L 38.68 180.5 L 38.68 185.05 L 35.95 185.05 C 35.45 185.05 35.05 185.45 35.05 185.95 L 35.05 188.68 L 30.5 188.68 L 30.5 190.5 L 35.05 190.5 L 35.05 194.14 L 30.5 194.14 L 30.5 195.95 L 35.05 195.95 L 35.05 199.59 L 30.5 199.59 L 30.5 201.41 L 35.05 201.41 L 35.05 205.05 L 30.5 205.05 L 30.5 206.86 L 35.05 206.86 L 35.05 210.5 L 30.5 210.5 L 30.5 212.32 L 35.05 212.32 L 35.05 215.05 C 35.05 215.55 35.45 215.95 35.95 215.95 L 38.68 215.95 L 38.68 220.5 L 40.5 220.5 L 40.5 215.95 L 44.14 215.95 L 44.14 220.5 L 45.95 220.5 L 45.95 215.95 L 49.59 215.95 L 49.59 220.5 L 51.41 220.5 L 51.41 215.95 L 55.05 215.95 L 55.05 220.5 L 56.86 220.5 L 56.86 215.95 L 60.5 215.95 L 60.5 220.5 L 62.32 220.5 L 62.32 215.95 L 65.05 215.95 C 65.55 215.95 65.95 215.55 65.95 215.05 L 65.95 212.32 L 70.5 212.32 L 70.5 210.5 L 65.95 210.5 L 65.95 206.86 L 70.5 206.86 L 70.5 205.05 L 65.95 205.05 L 65.95 201.41 L 70.5 201.41 L 70.5 199.59 L 65.95 199.59 L 65.95 195.95 L 70.5 195.95 L 70.5 194.14 L 65.95 194.14 L 65.95 190.5 Z M 36.86 214.14 L 36.86 186.86 L 64.14 186.86 L 64.14 214.14 Z" fill="#d86613" stroke="none" pointer-events="none"/><rect x="110.5" y="40.5" width="80" height="240" fill="none" stroke="#5a6c86" stroke-dasharray="3 3" pointer-events="none"/><g fill="#5A6C86" font-family="Helvetica" pointer-events="none" text-anchor="middle" font-size="12px"><text x="150.5" y="58.5">Server Rack</text><text x="150.5" y="72.5">(Partition 2)</text></g><path d="M 170.5 90.5 L 170.5 88.68 L 165.95 88.68 L 165.95 85.95 C 165.95 85.45 165.55 85.05 165.05 85.05 L 162.32 85.05 L 162.32 80.5 L 160.5 80.5 L 160.5 85.05 L 156.86 85.05 L 156.86 80.5 L 155.05 80.5 L 155.05 85.05 L 151.41 85.05 L 151.41 80.5 L 149.59 80.5 L 149.59 85.05 L 145.95 85.05 L 145.95 80.5 L 144.14 80.5 L 144.14 85.05 L 140.5 85.05 L 140.5 80.5 L 138.68 80.5 L 138.68 85.05 L 135.95 85.05 C 135.45 85.05 135.05 85.45 135.05 85.95 L 135.05 88.68 L 130.5 88.68 L 130.5 90.5 L 135.05 90.5 L 135.05 94.14 L 130.5 94.14 L 130.5 95.95 L 135.05 95.95 L 135.05 99.59 L 130.5 99.59 L 130.5 101.41 L 135.05 101.41 L 135.05 105.05 L 130.5 105.05 L 130.5 106.86 L 135.05 106.86 L 135.05 110.5 L 130.5 110.5 L 130.5 112.32 L 135.05 112.32 L 135.05 115.05 C 135.05 115.55 135.45 115.95 135.95 115.95 L 138.68 115.95 L 138.68 120.5 L 140.5 120.5 L 140.5 115.95 L 144.14 115.95 L 144.14 120.5 L 145.95 120.5 L 145.95 115.95 L 149.59 115.95 L 149.59 120.5 L 151.41 120.5 L 151.41 115.95 L 155.05 115.95 L 155.05 120.5 L 156.86 120.5 L 156.86 115.95 L 160.5 115.95 L 160.5 120.5 L 162.32 120.5 L 162.32 115.95 L 165.05 115.95 C 165.55 115.95 165.95 115.55 165.95 115.05 L 165.95 112.32 L 170.5 112.32 L 170.5 110.5 L 165.95 110.5 L 165.95 106.86 L 170.5 106.86 L 170.5 105.05 L 165.95 105.05 L 165.95 101.41 L 170.5 101.41 L 170.5 99.59 L 165.95 99.59 L 165.95 95.95 L 170.5 95.95 L 170.5 94.14 L 165.95 94.14 L 165.95 90.5 Z M 136.86 114.14 L 136.86 86.86 L 164.14 86.86 L 164.14 114.14 Z" fill="#d86613" stroke="none" pointer-events="none"/><path d="M 170.5 240.5 L 170.5 238.68 L 165.95 238.68 L 165.95 235.95 C 165.95 235.45 165.55 235.05 165.05 235.05 L 162.32 235.05 L 162.32 230.5 L 160.5 230.5 L 160.5 235.05 L 156.86 235.05 L 156.86 230.5 L 155.05 230.5 L 155.05 235.05 L 151.41 235.05 L 151.41 230.5 L 149.59 230.5 L 149.59 235.05 L 145.95 235.05 L 145.95 230.5 L 144.14 230.5 L 144.14 235.05 L 140.5 235.05 L 140.5 230.5 L 138.68 230.5 L 138.68 235.05 L 135.95 235.05 C 135.45 235.05 135.05 235.45 135.05 235.95 L 135.05 238.68 L 130.5 238.68 L 130.5 240.5 L 135.05 240.5 L 135.05 244.14 L 130.5 244.14 L 130.5 245.95 L 135.05 245.95 L 135.05 249.59 L 130.5 249.59 L 130.5 251.41 L 135.05 251.41 L 135.05 255.05 L 130.5 255.05 L 130.5 256.86 L 135.05 256.86 L 135.05 260.5 L 130.5 260.5 L 130.5 262.32 L 135.05 262.32 L 135.05 265.05 C 135.05 265.55 135.45 265.95 135.95 265.95 L 138.68 265.95 L 138.68 270.5 L 140.5 270.5 L 140.5 265.95 L 144.14 265.95 L 144.14 270.5 L 145.95 270.5 L 145.95 265.95 L 149.59 265.95 L 149.59 270.5 L 151.41 270.5 L 151.41 265.95 L 155.05 265.95 L 155.05 270.5 L 156.86 270.5 L 156.86 265.95 L 160.5 265.95 L 160.5 270.5 L 162.32 270.5 L 162.32 265.95 L 165.05 265.95 C 165.55 265.95 165.95 265.55 165.95 265.05 L 165.95 262.32 L 170.5 262.32 L 170.5 260.5 L 165.95 260.5 L 165.95 256.86 L 170.5 256.86 L 170.5 255.05 L 165.95 255.05 L 165.95 251.41 L 170.5 251.41 L 170.5 249.59 L 165.95 249.59 L 165.95 245.95 L 170.5 245.95 L 170.5 244.14 L 165.95 244.14 L 165.95 240.5 Z M 136.86 264.14 L 136.86 236.86 L 164.14 236.86 L 164.14 264.14 Z" fill="#d86613" stroke="none" pointer-events="none"/><path d="M 170.5 140.5 L 170.5 138.68 L 165.95 138.68 L 165.95 135.95 C 165.95 135.45 165.55 135.05 165.05 135.05 L 162.32 135.05 L 162.32 130.5 L 160.5 130.5 L 160.5 135.05 L 156.86 135.05 L 156.86 130.5 L 155.05 130.5 L 155.05 135.05 L 151.41 135.05 L 151.41 130.5 L 149.59 130.5 L 149.59 135.05 L 145.95 135.05 L 145.95 130.5 L 144.14 130.5 L 144.14 135.05 L 140.5 135.05 L 140.5 130.5 L 138.68 130.5 L 138.68 135.05 L 135.95 135.05 C 135.45 135.05 135.05 135.45 135.05 135.95 L 135.05 138.68 L 130.5 138.68 L 130.5 140.5 L 135.05 140.5 L 135.05 144.14 L 130.5 144.14 L 130.5 145.95 L 135.05 145.95 L 135.05 149.59 L 130.5 149.59 L 130.5 151.41 L 135.05 151.41 L 135.05 155.05 L 130.5 155.05 L 130.5 156.86 L 135.05 156.86 L 135.05 160.5 L 130.5 160.5 L 130.5 162.32 L 135.05 162.32 L 135.05 165.05 C 135.05 165.55 135.45 165.95 135.95 165.95 L 138.68 165.95 L 138.68 170.5 L 140.5 170.5 L 140.5 165.95 L 144.14 165.95 L 144.14 170.5 L 145.95 170.5 L 145.95 165.95 L 149.59 165.95 L 149.59 170.5 L 151.41 170.5 L 151.41 165.95 L 155.05 165.95 L 155.05 170.5 L 156.86 170.5 L 156.86 165.95 L 160.5 165.95 L 160.5 170.5 L 162.32 170.5 L 162.32 165.95 L 165.05 165.95 C 165.55 165.95 165.95 165.55 165.95 165.05 L 165.95 162.32 L 170.5 162.32 L 170.5 160.5 L 165.95 160.5 L 165.95 156.86 L 170.5 156.86 L 170.5 155.05 L 165.95 155.05 L 165.95 151.41 L 170.5 151.41 L 170.5 149.59 L 165.95 149.59 L 165.95 145.95 L 170.5 145.95 L 170.5 144.14 L 165.95 144.14 L 165.95 140.5 Z M 136.86 164.14 L 136.86 136.86 L 164.14 136.86 L 164.14 164.14 Z" fill="#d86613" stroke="none" pointer-events="none"/><path d="M 170.5 190.5 L 170.5 188.68 L 165.95 188.68 L 165.95 185.95 C 165.95 185.45 165.55 185.05 165.05 185.05 L 162.32 185.05 L 162.32 180.5 L 160.5 180.5 L 160.5 185.05 L 156.86 185.05 L 156.86 180.5 L 155.05 180.5 L 155.05 185.05 L 151.41 185.05 L 151.41 180.5 L 149.59 180.5 L 149.59 185.05 L 145.95 185.05 L 145.95 180.5 L 144.14 180.5 L 144.14 185.05 L 140.5 185.05 L 140.5 180.5 L 138.68 180.5 L 138.68 185.05 L 135.95 185.05 C 135.45 185.05 135.05 185.45 135.05 185.95 L 135.05 188.68 L 130.5 188.68 L 130.5 190.5 L 135.05 190.5 L 135.05 194.14 L 130.5 194.14 L 130.5 195.95 L 135.05 195.95 L 135.05 199.59 L 130.5 199.59 L 130.5 201.41 L 135.05 201.41 L 135.05 205.05 L 130.5 205.05 L 130.5 206.86 L 135.05 206.86 L 135.05 210.5 L 130.5 210.5 L 130.5 212.32 L 135.05 212.32 L 135.05 215.05 C 135.05 215.55 135.45 215.95 135.95 215.95 L 138.68 215.95 L 138.68 220.5 L 140.5 220.5 L 140.5 215.95 L 144.14 215.95 L 144.14 220.5 L 145.95 220.5 L 145.95 215.95 L 149.59 215.95 L 149.59 220.5 L 151.41 220.5 L 151.41 215.95 L 155.05 215.95 L 155.05 220.5 L 156.86 220.5 L 156.86 215.95 L 160.5 215.95 L 160.5 220.5 L 162.32 220.5 L 162.32 215.95 L 165.05 215.95 C 165.55 215.95 165.95 215.55 165.95 215.05 L 165.95 212.32 L 170.5 212.32 L 170.5 210.5 L 165.95 210.5 L 165.95 206.86 L 170.5 206.86 L 170.5 205.05 L 165.95 205.05 L 165.95 201.41 L 170.5 201.41 L 170.5 199.59 L 165.95 199.59 L 165.95 195.95 L 170.5 195.95 L 170.5 194.14 L 165.95 194.14 L 165.95 190.5 Z M 136.86 214.14 L 136.86 186.86 L 164.14 186.86 L 164.14 214.14 Z" fill="#d86613" stroke="none" pointer-events="none"/><rect x="220.5" y="0.5" width="100" height="290" fill="none" stroke="#fa6800" stroke-dasharray="3 3" pointer-events="none"/><g fill="#FA6800" font-family="Helvetica" pointer-events="none" text-anchor="middle" font-size="12px"><text x="270.5" y="18.5">Availability Zone</text></g><rect x="230.5" y="40.5" width="80" height="240" fill="none" stroke="#5a6c86" stroke-dasharray="3 3" pointer-events="none"/><g fill="#5A6C86" font-family="Helvetica" pointer-events="none" text-anchor="middle" font-size="12px"><text x="270.5" y="58.5">Server Rack</text><text x="270.5" y="72.5">(Partition 3)</text></g><path d="M 290.5 90.5 L 290.5 88.68 L 285.95 88.68 L 285.95 85.95 C 285.95 85.45 285.55 85.05 285.05 85.05 L 282.32 85.05 L 282.32 80.5 L 280.5 80.5 L 280.5 85.05 L 276.86 85.05 L 276.86 80.5 L 275.05 80.5 L 275.05 85.05 L 271.41 85.05 L 271.41 80.5 L 269.59 80.5 L 269.59 85.05 L 265.95 85.05 L 265.95 80.5 L 264.14 80.5 L 264.14 85.05 L 260.5 85.05 L 260.5 80.5 L 258.68 80.5 L 258.68 85.05 L 255.95 85.05 C 255.45 85.05 255.05 85.45 255.05 85.95 L 255.05 88.68 L 250.5 88.68 L 250.5 90.5 L 255.05 90.5 L 255.05 94.14 L 250.5 94.14 L 250.5 95.95 L 255.05 95.95 L 255.05 99.59 L 250.5 99.59 L 250.5 101.41 L 255.05 101.41 L 255.05 105.05 L 250.5 105.05 L 250.5 106.86 L 255.05 106.86 L 255.05 110.5 L 250.5 110.5 L 250.5 112.32 L 255.05 112.32 L 255.05 115.05 C 255.05 115.55 255.45 115.95 255.95 115.95 L 258.68 115.95 L 258.68 120.5 L 260.5 120.5 L 260.5 115.95 L 264.14 115.95 L 264.14 120.5 L 265.95 120.5 L 265.95 115.95 L 269.59 115.95 L 269.59 120.5 L 271.41 120.5 L 271.41 115.95 L 275.05 115.95 L 275.05 120.5 L 276.86 120.5 L 276.86 115.95 L 280.5 115.95 L 280.5 120.5 L 282.32 120.5 L 282.32 115.95 L 285.05 115.95 C 285.55 115.95 285.95 115.55 285.95 115.05 L 285.95 112.32 L 290.5 112.32 L 290.5 110.5 L 285.95 110.5 L 285.95 106.86 L 290.5 106.86 L 290.5 105.05 L 285.95 105.05 L 285.95 101.41 L 290.5 101.41 L 290.5 99.59 L 285.95 99.59 L 285.95 95.95 L 290.5 95.95 L 290.5 94.14 L 285.95 94.14 L 285.95 90.5 Z M 256.86 114.14 L 256.86 86.86 L 284.14 86.86 L 284.14 114.14 Z" fill="#d86613" stroke="none" pointer-events="none"/><path d="M 290.5 240.5 L 290.5 238.68 L 285.95 238.68 L 285.95 235.95 C 285.95 235.45 285.55 235.05 285.05 235.05 L 282.32 235.05 L 282.32 230.5 L 280.5 230.5 L 280.5 235.05 L 276.86 235.05 L 276.86 230.5 L 275.05 230.5 L 275.05 235.05 L 271.41 235.05 L 271.41 230.5 L 269.59 230.5 L 269.59 235.05 L 265.95 235.05 L 265.95 230.5 L 264.14 230.5 L 264.14 235.05 L 260.5 235.05 L 260.5 230.5 L 258.68 230.5 L 258.68 235.05 L 255.95 235.05 C 255.45 235.05 255.05 235.45 255.05 235.95 L 255.05 238.68 L 250.5 238.68 L 250.5 240.5 L 255.05 240.5 L 255.05 244.14 L 250.5 244.14 L 250.5 245.95 L 255.05 245.95 L 255.05 249.59 L 250.5 249.59 L 250.5 251.41 L 255.05 251.41 L 255.05 255.05 L 250.5 255.05 L 250.5 256.86 L 255.05 256.86 L 255.05 260.5 L 250.5 260.5 L 250.5 262.32 L 255.05 262.32 L 255.05 265.05 C 255.05 265.55 255.45 265.95 255.95 265.95 L 258.68 265.95 L 258.68 270.5 L 260.5 270.5 L 260.5 265.95 L 264.14 265.95 L 264.14 270.5 L 265.95 270.5 L 265.95 265.95 L 269.59 265.95 L 269.59 270.5 L 271.41 270.5 L 271.41 265.95 L 275.05 265.95 L 275.05 270.5 L 276.86 270.5 L 276.86 265.95 L 280.5 265.95 L 280.5 270.5 L 282.32 270.5 L 282.32 265.95 L 285.05 265.95 C 285.55 265.95 285.95 265.55 285.95 265.05 L 285.95 262.32 L 290.5 262.32 L 290.5 260.5 L 285.95 260.5 L 285.95 256.86 L 290.5 256.86 L 290.5 255.05 L 285.95 255.05 L 285.95 251.41 L 290.5 251.41 L 290.5 249.59 L 285.95 249.59 L 285.95 245.95 L 290.5 245.95 L 290.5 244.14 L 285.95 244.14 L 285.95 240.5 Z M 256.86 264.14 L 256.86 236.86 L 284.14 236.86 L 284.14 264.14 Z" fill="#d86613" stroke="none" pointer-events="none"/><path d="M 290.5 140.5 L 290.5 138.68 L 285.95 138.68 L 285.95 135.95 C 285.95 135.45 285.55 135.05 285.05 135.05 L 282.32 135.05 L 282.32 130.5 L 280.5 130.5 L 280.5 135.05 L 276.86 135.05 L 276.86 130.5 L 275.05 130.5 L 275.05 135.05 L 271.41 135.05 L 271.41 130.5 L 269.59 130.5 L 269.59 135.05 L 265.95 135.05 L 265.95 130.5 L 264.14 130.5 L 264.14 135.05 L 260.5 135.05 L 260.5 130.5 L 258.68 130.5 L 258.68 135.05 L 255.95 135.05 C 255.45 135.05 255.05 135.45 255.05 135.95 L 255.05 138.68 L 250.5 138.68 L 250.5 140.5 L 255.05 140.5 L 255.05 144.14 L 250.5 144.14 L 250.5 145.95 L 255.05 145.95 L 255.05 149.59 L 250.5 149.59 L 250.5 151.41 L 255.05 151.41 L 255.05 155.05 L 250.5 155.05 L 250.5 156.86 L 255.05 156.86 L 255.05 160.5 L 250.5 160.5 L 250.5 162.32 L 255.05 162.32 L 255.05 165.05 C 255.05 165.55 255.45 165.95 255.95 165.95 L 258.68 165.95 L 258.68 170.5 L 260.5 170.5 L 260.5 165.95 L 264.14 165.95 L 264.14 170.5 L 265.95 170.5 L 265.95 165.95 L 269.59 165.95 L 269.59 170.5 L 271.41 170.5 L 271.41 165.95 L 275.05 165.95 L 275.05 170.5 L 276.86 170.5 L 276.86 165.95 L 280.5 165.95 L 280.5 170.5 L 282.32 170.5 L 282.32 165.95 L 285.05 165.95 C 285.55 165.95 285.95 165.55 285.95 165.05 L 285.95 162.32 L 290.5 162.32 L 290.5 160.5 L 285.95 160.5 L 285.95 156.86 L 290.5 156.86 L 290.5 155.05 L 285.95 155.05 L 285.95 151.41 L 290.5 151.41 L 290.5 149.59 L 285.95 149.59 L 285.95 145.95 L 290.5 145.95 L 290.5 144.14 L 285.95 144.14 L 285.95 140.5 Z M 256.86 164.14 L 256.86 136.86 L 284.14 136.86 L 284.14 164.14 Z" fill="#d86613" stroke="none" pointer-events="none"/><path d="M 290.5 190.5 L 290.5 188.68 L 285.95 188.68 L 285.95 185.95 C 285.95 185.45 285.55 185.05 285.05 185.05 L 282.32 185.05 L 282.32 180.5 L 280.5 180.5 L 280.5 185.05 L 276.86 185.05 L 276.86 180.5 L 275.05 180.5 L 275.05 185.05 L 271.41 185.05 L 271.41 180.5 L 269.59 180.5 L 269.59 185.05 L 265.95 185.05 L 265.95 180.5 L 264.14 180.5 L 264.14 185.05 L 260.5 185.05 L 260.5 180.5 L 258.68 180.5 L 258.68 185.05 L 255.95 185.05 C 255.45 185.05 255.05 185.45 255.05 185.95 L 255.05 188.68 L 250.5 188.68 L 250.5 190.5 L 255.05 190.5 L 255.05 194.14 L 250.5 194.14 L 250.5 195.95 L 255.05 195.95 L 255.05 199.59 L 250.5 199.59 L 250.5 201.41 L 255.05 201.41 L 255.05 205.05 L 250.5 205.05 L 250.5 206.86 L 255.05 206.86 L 255.05 210.5 L 250.5 210.5 L 250.5 212.32 L 255.05 212.32 L 255.05 215.05 C 255.05 215.55 255.45 215.95 255.95 215.95 L 258.68 215.95 L 258.68 220.5 L 260.5 220.5 L 260.5 215.95 L 264.14 215.95 L 264.14 220.5 L 265.95 220.5 L 265.95 215.95 L 269.59 215.95 L 269.59 220.5 L 271.41 220.5 L 271.41 215.95 L 275.05 215.95 L 275.05 220.5 L 276.86 220.5 L 276.86 215.95 L 280.5 215.95 L 280.5 220.5 L 282.32 220.5 L 282.32 215.95 L 285.05 215.95 C 285.55 215.95 285.95 215.55 285.95 215.05 L 285.95 212.32 L 290.5 212.32 L 290.5 210.5 L 285.95 210.5 L 285.95 206.86 L 290.5 206.86 L 290.5 205.05 L 285.95 205.05 L 285.95 201.41 L 290.5 201.41 L 290.5 199.59 L 285.95 199.59 L 285.95 195.95 L 290.5 195.95 L 290.5 194.14 L 285.95 194.14 L 285.95 190.5 Z M 256.86 214.14 L 256.86 186.86 L 284.14 186.86 L 284.14 214.14 Z" fill="#d86613" stroke="none" pointer-events="none"/></svg>