<svg xmlns="http://www.w3.org/2000/svg" version="1.1" height="211px" width="491px" viewBox="-10 -10 511 231" content="&lt;mxGraphModel dx=&quot;920&quot; dy=&quot;519&quot; grid=&quot;1&quot; gridSize=&quot;10&quot; guides=&quot;1&quot; tooltips=&quot;1&quot; connect=&quot;1&quot; arrows=&quot;1&quot; fold=&quot;1&quot; page=&quot;0&quot; pageScale=&quot;1&quot; pageWidth=&quot;827&quot; pageHeight=&quot;1169&quot; math=&quot;0&quot; shadow=&quot;0&quot;&gt;&lt;root&gt;&lt;mxCell id=&quot;0&quot;/&gt;&lt;mxCell id=&quot;1&quot; parent=&quot;0&quot;/&gt;&lt;mxCell id=&quot;2&quot; value=&quot;&quot; style=&quot;outlineConnect=0;fontColor=#000000;fillColor=#fa6800;strokeColor=#C73500;dashed=0;verticalLabelPosition=bottom;verticalAlign=top;align=center;html=1;fontSize=12;fontStyle=0;aspect=fixed;pointerEvents=1;shape=mxgraph.aws4.internet;&quot; vertex=&quot;1&quot; parent=&quot;1&quot;&gt;&lt;mxGeometry x=&quot;-80&quot; y=&quot;175&quot; width=&quot;81.25&quot; height=&quot;50&quot; as=&quot;geometry&quot;/&gt;&lt;/mxCell&gt;&lt;mxCell id=&quot;3&quot; value=&quot;&quot; style=&quot;outlineConnect=0;fontColor=#232F3E;gradientColor=none;fillColor=#5A30B5;strokeColor=none;dashed=0;verticalLabelPosition=bottom;verticalAlign=top;align=center;html=1;fontSize=12;fontStyle=0;aspect=fixed;pointerEvents=1;shape=mxgraph.aws4.network_load_balancer;&quot; vertex=&quot;1&quot; parent=&quot;1&quot;&gt;&lt;mxGeometry x=&quot;80&quot; y=&quot;160&quot; width=&quot;80&quot; height=&quot;80&quot; as=&quot;geometry&quot;/&gt;&lt;/mxCell&gt;&lt;mxCell id=&quot;4&quot; value=&quot;&quot; style=&quot;outlineConnect=0;fontColor=#232F3E;gradientColor=none;fillColor=#D86613;strokeColor=none;dashed=0;verticalLabelPosition=bottom;verticalAlign=top;align=center;html=1;fontSize=12;fontStyle=0;aspect=fixed;pointerEvents=1;shape=mxgraph.aws4.instance2;&quot; vertex=&quot;1&quot; parent=&quot;1&quot;&gt;&lt;mxGeometry x=&quot;280&quot; y=&quot;320&quot; width=&quot;40&quot; height=&quot;40&quot; as=&quot;geometry&quot;/&gt;&lt;/mxCell&gt;&lt;mxCell id=&quot;5&quot; value=&quot;Generic group&quot; style=&quot;fillColor=none;strokeColor=#5A6C86;dashed=1;verticalAlign=top;fontStyle=0;fontColor=#5A6C86;&quot; vertex=&quot;1&quot; parent=&quot;1&quot;&gt;&lt;mxGeometry x=&quot;270&quot; y=&quot;280&quot; width=&quot;140&quot; height=&quot;90&quot; as=&quot;geometry&quot;/&gt;&lt;/mxCell&gt;&lt;mxCell id=&quot;6&quot; value=&quot;&quot; style=&quot;outlineConnect=0;fontColor=#232F3E;gradientColor=none;fillColor=#D86613;strokeColor=none;dashed=0;verticalLabelPosition=bottom;verticalAlign=top;align=center;html=1;fontSize=12;fontStyle=0;aspect=fixed;pointerEvents=1;shape=mxgraph.aws4.instance2;&quot; vertex=&quot;1&quot; parent=&quot;1&quot;&gt;&lt;mxGeometry x=&quot;360&quot; y=&quot;320&quot; width=&quot;40&quot; height=&quot;40&quot; as=&quot;geometry&quot;/&gt;&lt;/mxCell&gt;&lt;/root&gt;&lt;/mxGraphModel&gt;"><style type="text/css"></style><path d="M 59.68 51.81 L 53.38 58.12 L 53.38 37.72 L 49.87 37.72 L 49.87 57.92 L 43.83 51.78 L 41.33 54.25 L 50.45 63.51 C 50.78 63.84 51.22 64.03 51.69 64.03 L 51.7 64.03 C 52.16 64.03 52.61 63.85 52.94 63.52 L 62.16 54.29 Z M 38.21 48.19 L 40.69 45.71 L 31.46 36.48 C 31.13 36.15 30.69 35.97 30.22 35.97 L 30.22 35.97 C 29.75 35.97 29.3 36.16 28.97 36.49 L 19.85 45.75 L 22.36 48.21 L 28.39 42.08 L 28.39 65.44 L 31.9 65.44 L 31.9 41.89 Z M 34.67 65.47 L 47.07 65.48 L 47.07 61.97 L 34.67 61.96 Z M 79.75 50.66 C 79.75 55.02 78.43 58.55 75.81 61.14 C 71.51 65.41 65.27 65.5 64.78 65.5 L 64.76 65.5 L 56.4 65.49 L 56.41 61.98 L 64.77 61.99 C 64.84 61.99 70.03 61.95 73.36 58.63 C 75.27 56.72 76.24 54.04 76.24 50.66 C 76.24 48.58 75.67 45.48 70.75 42.46 C 68.16 40.88 65.74 40.36 64.82 40.21 C 63.89 40.05 63.25 39.2 63.36 38.27 C 63.05 34.59 61.33 32.02 58.62 31.2 C 56.27 30.49 53.77 31.32 52.22 33.31 C 51.83 33.81 51.21 34.07 50.57 33.97 C 49.94 33.87 49.41 33.44 49.19 32.85 C 48.11 29.92 46.54 27.47 44.53 25.55 C 42.06 23.19 35.27 18.1 25.67 21.98 C 20.17 24.2 15.86 30.58 15.86 36.51 C 15.86 37.17 15.9 37.83 15.98 38.48 C 16.09 39.33 15.57 40.13 14.75 40.38 C 14.68 40.4 14.61 40.41 14.55 40.43 C 11.31 41.24 6.01 43.69 6.01 50.95 C 6.01 56.47 9.17 59.52 11.81 61.11 C 12.72 61.65 13.76 61.94 14.83 61.94 L 25.63 61.95 L 25.63 65.46 L 14.83 65.45 C 13.13 65.45 11.46 64.99 10.01 64.12 C 7.21 62.44 2.5 58.49 2.5 50.95 C 2.5 44.43 6.16 39.46 12.37 37.41 C 12.35 37.11 12.35 36.81 12.35 36.51 C 12.35 29.13 17.51 21.49 24.36 18.72 C 32.33 15.5 40.78 17.11 46.96 23.02 C 48.77 24.75 50.28 26.83 51.45 29.22 C 53.79 27.52 56.78 26.98 59.63 27.84 C 63.47 29 66.08 32.4 66.75 37.02 C 68.73 37.52 70.8 38.38 72.58 39.47 C 77.4 42.42 79.75 46.08 79.75 50.66 Z" fill="#fa6800" stroke="none" pointer-events="none"/><path d="M 222.77 33.91 L 213.23 33.91 C 212.22 33.91 211.41 34.72 211.41 35.73 L 211.41 45.27 C 211.41 46.28 212.22 47.09 213.23 47.09 L 222.77 47.09 C 223.78 47.09 224.59 46.28 224.59 45.27 L 224.59 35.73 C 224.59 34.72 223.78 33.91 222.77 33.91 Z M 215.05 43.45 L 215.05 37.54 L 220.95 37.54 L 220.95 43.45 Z M 208.93 57.13 C 209.19 58.1 208.62 59.1 207.65 59.36 L 200.35 61.34 L 199.4 57.84 L 202.25 57.06 L 188.98 50.06 L 190.68 46.85 L 204.33 54.05 L 203.44 50.77 L 206.95 49.82 Z M 186.02 30.78 L 170.22 30.78 C 169.21 30.78 168.4 31.6 168.4 32.6 L 168.4 48.4 C 168.4 49.4 169.21 50.22 170.22 50.22 L 186.02 50.22 C 187.02 50.22 187.84 49.4 187.84 48.4 L 187.84 32.6 C 187.84 31.6 187.02 30.78 186.02 30.78 Z M 172.04 46.58 L 172.04 34.42 L 184.2 34.42 L 184.2 46.58 Z M 222.77 16.41 L 213.23 16.41 C 212.22 16.41 211.41 17.22 211.41 18.23 L 211.41 27.77 C 211.41 28.78 212.22 29.59 213.23 29.59 L 222.77 29.59 C 223.78 29.59 224.59 28.78 224.59 27.77 L 224.59 18.23 C 224.59 17.22 223.78 16.41 222.77 16.41 Z M 215.05 25.95 L 215.05 20.05 L 220.95 20.05 L 220.95 25.95 Z M 188.98 30.94 L 202.25 23.94 L 199.4 23.16 L 200.35 19.66 L 207.65 21.63 C 208.62 21.9 209.19 22.89 208.93 23.87 L 206.95 31.18 L 203.44 30.23 L 204.33 26.95 L 190.68 34.15 Z M 222.77 51.41 L 213.23 51.41 C 212.22 51.41 211.41 52.22 211.41 53.23 L 211.41 62.77 C 211.41 63.78 212.22 64.59 213.23 64.59 L 222.77 64.59 C 223.78 64.59 224.59 63.78 224.59 62.77 L 224.59 53.23 C 224.59 52.22 223.78 51.41 222.77 51.41 Z M 215.05 60.95 L 215.05 55.05 L 220.95 55.05 L 220.95 60.95 Z M 209.74 39.21 C 210.45 39.92 210.45 41.07 209.74 41.78 L 204.39 47.14 L 201.82 44.57 L 204.07 42.32 L 190.95 42.32 L 190.95 38.68 L 204.07 38.68 L 201.82 36.43 L 204.39 33.86 Z M 200.5 0.5 C 178.44 0.5 160.5 18.44 160.5 40.5 C 160.5 62.56 178.44 80.5 200.5 80.5 C 222.56 80.5 240.5 62.56 240.5 40.5 C 240.5 18.44 222.56 0.5 200.5 0.5 Z M 200.5 76.86 C 180.45 76.86 164.14 60.55 164.14 40.5 C 164.14 20.45 180.45 4.14 200.5 4.14 C 220.55 4.14 236.86 20.45 236.86 40.5 C 236.86 60.55 220.55 76.86 200.5 76.86 Z" fill="#5a30b5" stroke="none" pointer-events="none"/><path d="M 400.5 170.5 L 400.5 168.68 L 395.95 168.68 L 395.95 165.95 C 395.95 165.45 395.55 165.05 395.05 165.05 L 392.32 165.05 L 392.32 160.5 L 390.5 160.5 L 390.5 165.05 L 386.86 165.05 L 386.86 160.5 L 385.05 160.5 L 385.05 165.05 L 381.41 165.05 L 381.41 160.5 L 379.59 160.5 L 379.59 165.05 L 375.95 165.05 L 375.95 160.5 L 374.14 160.5 L 374.14 165.05 L 370.5 165.05 L 370.5 160.5 L 368.68 160.5 L 368.68 165.05 L 365.95 165.05 C 365.45 165.05 365.05 165.45 365.05 165.95 L 365.05 168.68 L 360.5 168.68 L 360.5 170.5 L 365.05 170.5 L 365.05 174.14 L 360.5 174.14 L 360.5 175.95 L 365.05 175.95 L 365.05 179.59 L 360.5 179.59 L 360.5 181.41 L 365.05 181.41 L 365.05 185.05 L 360.5 185.05 L 360.5 186.86 L 365.05 186.86 L 365.05 190.5 L 360.5 190.5 L 360.5 192.32 L 365.05 192.32 L 365.05 195.05 C 365.05 195.55 365.45 195.95 365.95 195.95 L 368.68 195.95 L 368.68 200.5 L 370.5 200.5 L 370.5 195.95 L 374.14 195.95 L 374.14 200.5 L 375.95 200.5 L 375.95 195.95 L 379.59 195.95 L 379.59 200.5 L 381.41 200.5 L 381.41 195.95 L 385.05 195.95 L 385.05 200.5 L 386.86 200.5 L 386.86 195.95 L 390.5 195.95 L 390.5 200.5 L 392.32 200.5 L 392.32 195.95 L 395.05 195.95 C 395.55 195.95 395.95 195.55 395.95 195.05 L 395.95 192.32 L 400.5 192.32 L 400.5 190.5 L 395.95 190.5 L 395.95 186.86 L 400.5 186.86 L 400.5 185.05 L 395.95 185.05 L 395.95 181.41 L 400.5 181.41 L 400.5 179.59 L 395.95 179.59 L 395.95 175.95 L 400.5 175.95 L 400.5 174.14 L 395.95 174.14 L 395.95 170.5 Z M 366.86 194.14 L 366.86 166.86 L 394.14 166.86 L 394.14 194.14 Z" fill="#d86613" stroke="none" pointer-events="none"/><rect x="350.5" y="120.5" width="140" height="90" fill="none" stroke="#5a6c86" stroke-dasharray="3 3" pointer-events="none"/><g fill="#5A6C86" font-family="Helvetica" pointer-events="none" text-anchor="middle" font-size="12px"><text x="420.5" y="138.5">Generic group</text></g><path d="M 480.5 170.5 L 480.5 168.68 L 475.95 168.68 L 475.95 165.95 C 475.95 165.45 475.55 165.05 475.05 165.05 L 472.32 165.05 L 472.32 160.5 L 470.5 160.5 L 470.5 165.05 L 466.86 165.05 L 466.86 160.5 L 465.05 160.5 L 465.05 165.05 L 461.41 165.05 L 461.41 160.5 L 459.59 160.5 L 459.59 165.05 L 455.95 165.05 L 455.95 160.5 L 454.14 160.5 L 454.14 165.05 L 450.5 165.05 L 450.5 160.5 L 448.68 160.5 L 448.68 165.05 L 445.95 165.05 C 445.45 165.05 445.05 165.45 445.05 165.95 L 445.05 168.68 L 440.5 168.68 L 440.5 170.5 L 445.05 170.5 L 445.05 174.14 L 440.5 174.14 L 440.5 175.95 L 445.05 175.95 L 445.05 179.59 L 440.5 179.59 L 440.5 181.41 L 445.05 181.41 L 445.05 185.05 L 440.5 185.05 L 440.5 186.86 L 445.05 186.86 L 445.05 190.5 L 440.5 190.5 L 440.5 192.32 L 445.05 192.32 L 445.05 195.05 C 445.05 195.55 445.45 195.95 445.95 195.95 L 448.68 195.95 L 448.68 200.5 L 450.5 200.5 L 450.5 195.95 L 454.14 195.95 L 454.14 200.5 L 455.95 200.5 L 455.95 195.95 L 459.59 195.95 L 459.59 200.5 L 461.41 200.5 L 461.41 195.95 L 465.05 195.95 L 465.05 200.5 L 466.86 200.5 L 466.86 195.95 L 470.5 195.95 L 470.5 200.5 L 472.32 200.5 L 472.32 195.95 L 475.05 195.95 C 475.55 195.95 475.95 195.55 475.95 195.05 L 475.95 192.32 L 480.5 192.32 L 480.5 190.5 L 475.95 190.5 L 475.95 186.86 L 480.5 186.86 L 480.5 185.05 L 475.95 185.05 L 475.95 181.41 L 480.5 181.41 L 480.5 179.59 L 475.95 179.59 L 475.95 175.95 L 480.5 175.95 L 480.5 174.14 L 475.95 174.14 L 475.95 170.5 Z M 446.86 194.14 L 446.86 166.86 L 474.14 166.86 L 474.14 194.14 Z" fill="#d86613" stroke="none" pointer-events="none"/></svg>