<svg xmlns="http://www.w3.org/2000/svg" version="1.1" height="399px" width="359px" viewBox="-10 -10 379 419" content="&lt;mxGraphModel dx=&quot;790&quot; dy=&quot;247&quot; grid=&quot;1&quot; gridSize=&quot;10&quot; guides=&quot;1&quot; tooltips=&quot;1&quot; connect=&quot;1&quot; arrows=&quot;1&quot; fold=&quot;1&quot; page=&quot;0&quot; pageScale=&quot;1&quot; pageWidth=&quot;827&quot; pageHeight=&quot;1169&quot; math=&quot;0&quot; shadow=&quot;0&quot;&gt;&lt;root&gt;&lt;mxCell id=&quot;0&quot;/&gt;&lt;mxCell id=&quot;1&quot; parent=&quot;0&quot;/&gt;&lt;mxCell id=&quot;2&quot; value=&quot;Availability Zone&quot; style=&quot;fillColor=none;strokeColor=#147EBA;dashed=1;verticalAlign=top;fontStyle=0;fontColor=#147EBA;&quot; vertex=&quot;1&quot; parent=&quot;1&quot;&gt;&lt;mxGeometry x=&quot;-270&quot; y=&quot;50&quot; width=&quot;130&quot; height=&quot;130&quot; as=&quot;geometry&quot;/&gt;&lt;/mxCell&gt;&lt;mxCell id=&quot;3&quot; value=&quot;&quot; style=&quot;outlineConnect=0;fontColor=#232F3E;gradientColor=none;fillColor=#D86613;strokeColor=none;dashed=0;verticalLabelPosition=bottom;verticalAlign=top;align=center;html=1;fontSize=12;fontStyle=0;aspect=fixed;pointerEvents=1;shape=mxgraph.aws4.instance2;&quot; vertex=&quot;1&quot; parent=&quot;1&quot;&gt;&lt;mxGeometry x=&quot;40&quot; y=&quot;240&quot; width=&quot;48&quot; height=&quot;48&quot; as=&quot;geometry&quot;/&gt;&lt;/mxCell&gt;&lt;mxCell id=&quot;4&quot; value=&quot;&quot; style=&quot;outlineConnect=0;fontColor=#232F3E;gradientColor=none;fillColor=#D86613;strokeColor=none;dashed=0;verticalLabelPosition=bottom;verticalAlign=top;align=center;html=1;fontSize=12;fontStyle=0;aspect=fixed;pointerEvents=1;shape=mxgraph.aws4.instance2;&quot; vertex=&quot;1&quot; parent=&quot;1&quot;&gt;&lt;mxGeometry x=&quot;-170&quot; y=&quot;400&quot; width=&quot;48&quot; height=&quot;48&quot; as=&quot;geometry&quot;/&gt;&lt;/mxCell&gt;&lt;mxCell id=&quot;5&quot; value=&quot;&quot; style=&quot;outlineConnect=0;fontColor=#232F3E;gradientColor=none;fillColor=#5A30B5;strokeColor=none;dashed=0;verticalLabelPosition=bottom;verticalAlign=top;align=center;html=1;fontSize=12;fontStyle=0;aspect=fixed;pointerEvents=1;shape=mxgraph.aws4.elastic_network_interface;&quot; vertex=&quot;1&quot; parent=&quot;1&quot;&gt;&lt;mxGeometry x=&quot;-60&quot; y=&quot;70&quot; width=&quot;78&quot; height=&quot;78&quot; as=&quot;geometry&quot;/&gt;&lt;/mxCell&gt;&lt;/root&gt;&lt;/mxGraphModel&gt;"><style type="text/css"></style><rect x="0.5" y="0.5" width="130" height="130" fill="none" stroke="#147eba" stroke-dasharray="3 3" pointer-events="none"/><g fill="#147EBA" font-family="Helvetica" pointer-events="none" text-anchor="middle" font-size="12px"><text x="65.5" y="18.5">Availability Zone</text></g><path d="M 358.5 202.5 L 358.5 200.32 L 353.05 200.32 L 353.05 197.05 C 353.05 196.44 352.56 195.95 351.95 195.95 L 348.68 195.95 L 348.68 190.5 L 346.5 190.5 L 346.5 195.95 L 342.14 195.95 L 342.14 190.5 L 339.95 190.5 L 339.95 195.95 L 335.59 195.95 L 335.59 190.5 L 333.41 190.5 L 333.41 195.95 L 329.05 195.95 L 329.05 190.5 L 326.86 190.5 L 326.86 195.95 L 322.5 195.95 L 322.5 190.5 L 320.32 190.5 L 320.32 195.95 L 317.05 195.95 C 316.44 195.95 315.95 196.44 315.95 197.05 L 315.95 200.32 L 310.5 200.32 L 310.5 202.5 L 315.95 202.5 L 315.95 206.86 L 310.5 206.86 L 310.5 209.05 L 315.95 209.05 L 315.95 213.41 L 310.5 213.41 L 310.5 215.59 L 315.95 215.59 L 315.95 219.95 L 310.5 219.95 L 310.5 222.14 L 315.95 222.14 L 315.95 226.5 L 310.5 226.5 L 310.5 228.68 L 315.95 228.68 L 315.95 231.95 C 315.95 232.56 316.44 233.05 317.05 233.05 L 320.32 233.05 L 320.32 238.5 L 322.5 238.5 L 322.5 233.05 L 326.86 233.05 L 326.86 238.5 L 329.05 238.5 L 329.05 233.05 L 333.41 233.05 L 333.41 238.5 L 335.59 238.5 L 335.59 233.05 L 339.95 233.05 L 339.95 238.5 L 342.14 238.5 L 342.14 233.05 L 346.5 233.05 L 346.5 238.5 L 348.68 238.5 L 348.68 233.05 L 351.95 233.05 C 352.56 233.05 353.05 232.56 353.05 231.95 L 353.05 228.68 L 358.5 228.68 L 358.5 226.5 L 353.05 226.5 L 353.05 222.14 L 358.5 222.14 L 358.5 219.95 L 353.05 219.95 L 353.05 215.59 L 358.5 215.59 L 358.5 213.41 L 353.05 213.41 L 353.05 209.05 L 358.5 209.05 L 358.5 206.86 L 353.05 206.86 L 353.05 202.5 Z M 318.14 230.86 L 318.14 198.14 L 350.86 198.14 L 350.86 230.86 Z" fill="#d86613" stroke="none" pointer-events="none"/><path d="M 148.5 362.5 L 148.5 360.32 L 143.05 360.32 L 143.05 357.05 C 143.05 356.44 142.56 355.95 141.95 355.95 L 138.68 355.95 L 138.68 350.5 L 136.5 350.5 L 136.5 355.95 L 132.14 355.95 L 132.14 350.5 L 129.95 350.5 L 129.95 355.95 L 125.59 355.95 L 125.59 350.5 L 123.41 350.5 L 123.41 355.95 L 119.05 355.95 L 119.05 350.5 L 116.86 350.5 L 116.86 355.95 L 112.5 355.95 L 112.5 350.5 L 110.32 350.5 L 110.32 355.95 L 107.05 355.95 C 106.44 355.95 105.95 356.44 105.95 357.05 L 105.95 360.32 L 100.5 360.32 L 100.5 362.5 L 105.95 362.5 L 105.95 366.86 L 100.5 366.86 L 100.5 369.05 L 105.95 369.05 L 105.95 373.41 L 100.5 373.41 L 100.5 375.59 L 105.95 375.59 L 105.95 379.95 L 100.5 379.95 L 100.5 382.14 L 105.95 382.14 L 105.95 386.5 L 100.5 386.5 L 100.5 388.68 L 105.95 388.68 L 105.95 391.95 C 105.95 392.56 106.44 393.05 107.05 393.05 L 110.32 393.05 L 110.32 398.5 L 112.5 398.5 L 112.5 393.05 L 116.86 393.05 L 116.86 398.5 L 119.05 398.5 L 119.05 393.05 L 123.41 393.05 L 123.41 398.5 L 125.59 398.5 L 125.59 393.05 L 129.95 393.05 L 129.95 398.5 L 132.14 398.5 L 132.14 393.05 L 136.5 393.05 L 136.5 398.5 L 138.68 398.5 L 138.68 393.05 L 141.95 393.05 C 142.56 393.05 143.05 392.56 143.05 391.95 L 143.05 388.68 L 148.5 388.68 L 148.5 386.5 L 143.05 386.5 L 143.05 382.14 L 148.5 382.14 L 148.5 379.95 L 143.05 379.95 L 143.05 375.59 L 148.5 375.59 L 148.5 373.41 L 143.05 373.41 L 143.05 369.05 L 148.5 369.05 L 148.5 366.86 L 143.05 366.86 L 143.05 362.5 Z M 108.14 390.86 L 108.14 358.14 L 140.86 358.14 L 140.86 390.86 Z" fill="#d86613" stroke="none" pointer-events="none"/><path d="M 249.5 20.5 C 228 20.5 210.5 37.99 210.5 59.5 C 210.5 81 228 98.5 249.5 98.5 C 271.01 98.5 288.5 81 288.5 59.5 C 288.5 37.99 271.01 20.5 249.5 20.5 Z M 249.5 94.95 C 229.95 94.95 214.05 79.05 214.05 59.5 C 214.05 39.95 229.95 24.05 249.5 24.05 C 269.05 24.05 284.95 39.95 284.95 59.5 C 284.95 79.05 269.05 94.95 249.5 94.95 Z M 232.66 43.99 L 232.66 78.11 C 232.66 79.09 231.87 79.89 230.89 79.89 L 225.3 79.89 L 225.3 76.34 L 229.12 76.34 L 229.12 45.76 L 225.3 45.76 L 225.3 42.22 L 230.89 42.22 C 231.87 42.22 232.66 43.01 232.66 43.99 Z M 275.87 45.32 L 237.09 45.32 C 236.11 45.32 235.32 46.11 235.32 47.09 L 235.32 70.36 C 235.32 71.34 236.11 72.13 237.09 72.13 L 238.42 72.13 L 238.42 75.01 C 238.42 75.99 239.21 76.78 240.19 76.78 L 255.71 76.78 C 256.68 76.78 257.48 75.99 257.48 75.01 L 257.48 72.13 L 260.14 72.13 L 260.14 75.01 C 260.14 75.99 260.93 76.78 261.91 76.78 L 269.67 76.78 C 270.64 76.78 271.44 75.99 271.44 75.01 L 271.44 72.13 L 275.87 72.13 C 276.85 72.13 277.64 71.34 277.64 70.36 L 277.64 47.09 C 277.64 46.11 276.85 45.32 275.87 45.32 Z M 274.1 68.59 L 269.67 68.59 C 268.68 68.59 267.89 69.38 267.89 70.36 L 267.89 73.24 L 263.68 73.24 L 263.68 70.36 C 263.68 69.38 262.89 68.59 261.91 68.59 L 255.71 68.59 C 254.73 68.59 253.93 69.38 253.93 70.36 L 253.93 73.24 L 241.97 73.24 L 241.97 70.36 C 241.97 69.38 241.17 68.59 240.19 68.59 L 238.86 68.59 L 238.86 48.86 L 274.1 48.86 Z M 244.85 65.93 L 266.56 65.93 C 267.54 65.93 268.34 65.13 268.34 64.15 L 268.34 53.29 C 268.34 52.31 267.54 51.52 266.56 51.52 L 244.85 51.52 C 243.87 51.52 243.07 52.31 243.07 53.29 L 243.07 64.15 C 243.07 65.13 243.87 65.93 244.85 65.93 Z M 257.48 62.38 L 257.48 55.07 L 264.79 55.07 L 264.79 62.38 Z M 246.62 62.38 L 246.62 55.07 L 253.93 55.07 L 253.93 62.38 Z" fill="#5a30b5" stroke="none" pointer-events="none"/></svg>