<svg xmlns="http://www.w3.org/2000/svg" version="1.1" height="349px" width="173px" viewBox="-10 -10 193 369" content="&lt;mxGraphModel dx=&quot;1460&quot; dy=&quot;519&quot; grid=&quot;1&quot; gridSize=&quot;10&quot; guides=&quot;1&quot; tooltips=&quot;1&quot; connect=&quot;1&quot; arrows=&quot;1&quot; fold=&quot;1&quot; page=&quot;0&quot; pageScale=&quot;1&quot; pageWidth=&quot;827&quot; pageHeight=&quot;1169&quot; math=&quot;0&quot; shadow=&quot;0&quot;&gt;&lt;root&gt;&lt;mxCell id=&quot;0&quot;/&gt;&lt;mxCell id=&quot;1&quot; parent=&quot;0&quot;/&gt;&lt;mxCell id=&quot;2&quot; value=&quot;Availability Zone&quot; style=&quot;fillColor=none;strokeColor=#147EBA;dashed=1;verticalAlign=top;fontStyle=0;fontColor=#147EBA;&quot; vertex=&quot;1&quot; parent=&quot;1&quot;&gt;&lt;mxGeometry x=&quot;-280&quot; width=&quot;130&quot; height=&quot;130&quot; as=&quot;geometry&quot;/&gt;&lt;/mxCell&gt;&lt;mxCell id=&quot;3&quot; value=&quot;&quot; style=&quot;outlineConnect=0;fontColor=#232F3E;gradientColor=none;fillColor=#D86613;strokeColor=none;dashed=0;verticalLabelPosition=bottom;verticalAlign=top;align=center;html=1;fontSize=12;fontStyle=0;aspect=fixed;pointerEvents=1;shape=mxgraph.aws4.instance2;&quot; vertex=&quot;1&quot; parent=&quot;1&quot;&gt;&lt;mxGeometry x=&quot;-180&quot; y=&quot;300&quot; width=&quot;48&quot; height=&quot;48&quot; as=&quot;geometry&quot;/&gt;&lt;/mxCell&gt;&lt;mxCell id=&quot;4&quot; value=&quot;&quot; style=&quot;outlineConnect=0;fontColor=#232F3E;gradientColor=none;fillColor=#277116;strokeColor=none;dashed=0;verticalLabelPosition=bottom;verticalAlign=top;align=center;html=1;fontSize=12;fontStyle=0;aspect=fixed;pointerEvents=1;shape=mxgraph.aws4.volume;&quot; vertex=&quot;1&quot; parent=&quot;1&quot;&gt;&lt;mxGeometry x=&quot;-170&quot; y=&quot;210&quot; width=&quot;62&quot; height=&quot;78&quot; as=&quot;geometry&quot;/&gt;&lt;/mxCell&gt;&lt;/root&gt;&lt;/mxGraphModel&gt;"><style type="text/css"></style><rect x="0.5" y="0.5" width="130" height="130" fill="none" stroke="#147eba" stroke-dasharray="3 3" pointer-events="none"/><g fill="#147EBA" font-family="Helvetica" pointer-events="none" text-anchor="middle" font-size="12px"><text x="65.5" y="18.5">Availability Zone</text></g><path d="M 148.5 312.5 L 148.5 310.32 L 143.05 310.32 L 143.05 307.05 C 143.05 306.44 142.56 305.95 141.95 305.95 L 138.68 305.95 L 138.68 300.5 L 136.5 300.5 L 136.5 305.95 L 132.14 305.95 L 132.14 300.5 L 129.95 300.5 L 129.95 305.95 L 125.59 305.95 L 125.59 300.5 L 123.41 300.5 L 123.41 305.95 L 119.05 305.95 L 119.05 300.5 L 116.86 300.5 L 116.86 305.95 L 112.5 305.95 L 112.5 300.5 L 110.32 300.5 L 110.32 305.95 L 107.05 305.95 C 106.44 305.95 105.95 306.44 105.95 307.05 L 105.95 310.32 L 100.5 310.32 L 100.5 312.5 L 105.95 312.5 L 105.95 316.86 L 100.5 316.86 L 100.5 319.05 L 105.95 319.05 L 105.95 323.41 L 100.5 323.41 L 100.5 325.59 L 105.95 325.59 L 105.95 329.95 L 100.5 329.95 L 100.5 332.14 L 105.95 332.14 L 105.95 336.5 L 100.5 336.5 L 100.5 338.68 L 105.95 338.68 L 105.95 341.95 C 105.95 342.56 106.44 343.05 107.05 343.05 L 110.32 343.05 L 110.32 348.5 L 112.5 348.5 L 112.5 343.05 L 116.86 343.05 L 116.86 348.5 L 119.05 348.5 L 119.05 343.05 L 123.41 343.05 L 123.41 348.5 L 125.59 348.5 L 125.59 343.05 L 129.95 343.05 L 129.95 348.5 L 132.14 348.5 L 132.14 343.05 L 136.5 343.05 L 136.5 348.5 L 138.68 348.5 L 138.68 343.05 L 141.95 343.05 C 142.56 343.05 143.05 342.56 143.05 341.95 L 143.05 338.68 L 148.5 338.68 L 148.5 336.5 L 143.05 336.5 L 143.05 332.14 L 148.5 332.14 L 148.5 329.95 L 143.05 329.95 L 143.05 325.59 L 148.5 325.59 L 148.5 323.41 L 143.05 323.41 L 143.05 319.05 L 148.5 319.05 L 148.5 316.86 L 143.05 316.86 L 143.05 312.5 Z M 108.14 340.86 L 108.14 308.14 L 140.86 308.14 L 140.86 340.86 Z" fill="#d86613" stroke="none" pointer-events="none"/><path d="M 170.64 230.91 L 112.47 230.91 C 111.5 230.91 110.72 231.69 110.72 232.66 L 110.72 286.24 C 110.72 287.21 111.5 287.99 112.47 287.99 L 170.64 287.99 C 171.61 287.99 172.39 287.21 172.39 286.24 L 172.39 232.66 C 172.39 231.69 171.61 230.91 170.64 230.91 Z M 114.22 284.49 L 114.22 234.41 L 168.89 234.41 L 168.89 284.49 Z M 112.36 228.29 L 170.64 228.29 C 171.3 228.29 171.91 227.92 172.2 227.32 C 172.5 226.73 172.44 226.02 172.04 225.49 L 161.68 211.71 C 161.35 211.27 160.83 211.01 160.28 211.01 L 122.72 211.01 C 122.17 211.01 121.65 211.27 121.32 211.71 L 110.96 225.49 C 110.56 226.02 110.5 226.73 110.8 227.32 C 111.09 227.92 111.7 228.29 112.36 228.29 Z M 123.59 214.51 L 159.4 214.51 L 167.13 224.79 L 115.87 224.79 Z" fill="#277116" stroke="none" pointer-events="none"/></svg>