<svg xmlns="http://www.w3.org/2000/svg" version="1.1" height="81px" width="81px" viewBox="-10 -10 101 101" content="&lt;mxGraphModel dx=&quot;1460&quot; dy=&quot;519&quot; grid=&quot;1&quot; gridSize=&quot;10&quot; guides=&quot;1&quot; tooltips=&quot;1&quot; connect=&quot;1&quot; arrows=&quot;1&quot; fold=&quot;1&quot; page=&quot;0&quot; pageScale=&quot;1&quot; pageWidth=&quot;827&quot; pageHeight=&quot;1169&quot; math=&quot;0&quot; shadow=&quot;0&quot;&gt;&lt;root&gt;&lt;mxCell id=&quot;0&quot;/&gt;&lt;mxCell id=&quot;1&quot; parent=&quot;0&quot;/&gt;&lt;mxCell id=&quot;2&quot; value=&quot;&quot; style=&quot;outlineConnect=0;fontColor=#232F3E;gradientColor=none;fillColor=#D86613;strokeColor=none;dashed=0;verticalLabelPosition=bottom;verticalAlign=top;align=center;html=1;fontSize=12;fontStyle=0;aspect=fixed;pointerEvents=1;shape=mxgraph.aws4.instance2;&quot; vertex=&quot;1&quot; parent=&quot;1&quot;&gt;&lt;mxGeometry x=&quot;-200&quot; y=&quot;40&quot; width=&quot;80&quot; height=&quot;80&quot; as=&quot;geometry&quot;/&gt;&lt;/mxCell&gt;&lt;/root&gt;&lt;/mxGraphModel&gt;"><style type="text/css"></style><path d="M 80.5 20.5 L 80.5 16.86 L 71.41 16.86 L 71.41 11.41 C 71.41 10.41 70.59 9.59 69.59 9.59 L 64.14 9.59 L 64.14 0.5 L 60.5 0.5 L 60.5 9.59 L 53.23 9.59 L 53.23 0.5 L 49.59 0.5 L 49.59 9.59 L 42.32 9.59 L 42.32 0.5 L 38.68 0.5 L 38.68 9.59 L 31.41 9.59 L 31.41 0.5 L 27.77 0.5 L 27.77 9.59 L 20.5 9.59 L 20.5 0.5 L 16.86 0.5 L 16.86 9.59 L 11.41 9.59 C 10.4 9.59 9.59 10.41 9.59 11.41 L 9.59 16.86 L 0.5 16.86 L 0.5 20.5 L 9.59 20.5 L 9.59 27.77 L 0.5 27.77 L 0.5 31.41 L 9.59 31.41 L 9.59 38.68 L 0.5 38.68 L 0.5 42.32 L 9.59 42.32 L 9.59 49.59 L 0.5 49.59 L 0.5 53.23 L 9.59 53.23 L 9.59 60.5 L 0.5 60.5 L 0.5 64.14 L 9.59 64.14 L 9.59 69.59 C 9.59 70.6 10.4 71.41 11.41 71.41 L 16.86 71.41 L 16.86 80.5 L 20.5 80.5 L 20.5 71.41 L 27.77 71.41 L 27.77 80.5 L 31.41 80.5 L 31.41 71.41 L 38.68 71.41 L 38.68 80.5 L 42.32 80.5 L 42.32 71.41 L 49.59 71.41 L 49.59 80.5 L 53.23 80.5 L 53.23 71.41 L 60.5 71.41 L 60.5 80.5 L 64.14 80.5 L 64.14 71.41 L 69.59 71.41 C 70.59 71.41 71.41 70.6 71.41 69.59 L 71.41 64.14 L 80.5 64.14 L 80.5 60.5 L 71.41 60.5 L 71.41 53.23 L 80.5 53.23 L 80.5 49.59 L 71.41 49.59 L 71.41 42.32 L 80.5 42.32 L 80.5 38.68 L 71.41 38.68 L 71.41 31.41 L 80.5 31.41 L 80.5 27.77 L 71.41 27.77 L 71.41 20.5 Z M 13.23 67.77 L 13.23 13.23 L 67.77 13.23 L 67.77 67.77 Z" fill="#d86613" stroke="none" pointer-events="none"/></svg>