<svg xmlns="http://www.w3.org/2000/svg" version="1.1" height="350.99999999999994px" width="540.9999999999999px" viewBox="-10 -10 560.9999999999999 370.99999999999994" content="&lt;mxGraphModel dx=&quot;762&quot; dy=&quot;247&quot; grid=&quot;1&quot; gridSize=&quot;10&quot; guides=&quot;1&quot; tooltips=&quot;1&quot; connect=&quot;1&quot; arrows=&quot;1&quot; fold=&quot;1&quot; page=&quot;0&quot; pageScale=&quot;1&quot; pageWidth=&quot;827&quot; pageHeight=&quot;1169&quot; math=&quot;0&quot; shadow=&quot;0&quot;&gt;&lt;root&gt;&lt;mxCell id=&quot;0&quot;/&gt;&lt;mxCell id=&quot;1&quot; parent=&quot;0&quot;/&gt;&lt;mxCell id=&quot;2&quot; value=&quot;&quot; style=&quot;outlineConnect=0;fontColor=#232F3E;gradientColor=none;fillColor=#5A30B5;strokeColor=none;dashed=0;verticalLabelPosition=bottom;verticalAlign=top;align=center;html=1;fontSize=12;fontStyle=0;aspect=fixed;pointerEvents=1;shape=mxgraph.aws4.application_load_balancer;&quot; vertex=&quot;1&quot; parent=&quot;1&quot;&gt;&lt;mxGeometry x=&quot;80&quot; y=&quot;200&quot; width=&quot;80&quot; height=&quot;80&quot; as=&quot;geometry&quot;/&gt;&lt;/mxCell&gt;&lt;mxCell id=&quot;3&quot; value=&quot;&quot; style=&quot;outlineConnect=0;fontColor=#232F3E;gradientColor=none;fillColor=#232F3E;strokeColor=none;dashed=0;verticalLabelPosition=bottom;verticalAlign=top;align=center;html=1;fontSize=12;fontStyle=0;aspect=fixed;pointerEvents=1;shape=mxgraph.aws4.internet;&quot; vertex=&quot;1&quot; parent=&quot;1&quot;&gt;&lt;mxGeometry x=&quot;-120&quot; y=&quot;215&quot; width=&quot;81.25&quot; height=&quot;50&quot; as=&quot;geometry&quot;/&gt;&lt;/mxCell&gt;&lt;mxCell id=&quot;5&quot; value=&quot;Target Group 2&amp;#10;Private IPs&quot; style=&quot;fillColor=none;strokeColor=#5A6C86;dashed=1;verticalAlign=top;fontStyle=0;fontColor=#5A6C86;&quot; vertex=&quot;1&quot; parent=&quot;1&quot;&gt;&lt;mxGeometry x=&quot;220&quot; y=&quot;280&quot; width=&quot;200&quot; height=&quot;150&quot; as=&quot;geometry&quot;/&gt;&lt;/mxCell&gt;&lt;mxCell id=&quot;10&quot; value=&quot;&quot; style=&quot;outlineConnect=0;fontColor=#232F3E;gradientColor=none;fillColor=#232F3E;strokeColor=none;dashed=0;verticalLabelPosition=bottom;verticalAlign=top;align=center;html=1;fontSize=12;fontStyle=0;aspect=fixed;pointerEvents=1;shape=mxgraph.aws4.traditional_server;&quot; vertex=&quot;1&quot; parent=&quot;1&quot;&gt;&lt;mxGeometry x=&quot;230&quot; y=&quot;340&quot; width=&quot;46.15&quot; height=&quot;80&quot; as=&quot;geometry&quot;/&gt;&lt;/mxCell&gt;&lt;mxCell id=&quot;11&quot; value=&quot;&quot; style=&quot;outlineConnect=0;fontColor=#232F3E;gradientColor=none;fillColor=#232F3E;strokeColor=none;dashed=0;verticalLabelPosition=bottom;verticalAlign=top;align=center;html=1;fontSize=12;fontStyle=0;aspect=fixed;pointerEvents=1;shape=mxgraph.aws4.traditional_server;&quot; vertex=&quot;1&quot; parent=&quot;1&quot;&gt;&lt;mxGeometry x=&quot;360&quot; y=&quot;340&quot; width=&quot;46.15&quot; height=&quot;80&quot; as=&quot;geometry&quot;/&gt;&lt;/mxCell&gt;&lt;mxCell id=&quot;12&quot; value=&quot;&quot; style=&quot;outlineConnect=0;fontColor=#232F3E;gradientColor=none;fillColor=#232F3E;strokeColor=none;dashed=0;verticalLabelPosition=bottom;verticalAlign=top;align=center;html=1;fontSize=12;fontStyle=0;aspect=fixed;pointerEvents=1;shape=mxgraph.aws4.traditional_server;&quot; vertex=&quot;1&quot; parent=&quot;1&quot;&gt;&lt;mxGeometry x=&quot;296.92&quot; y=&quot;340&quot; width=&quot;46.15&quot; height=&quot;80&quot; as=&quot;geometry&quot;/&gt;&lt;/mxCell&gt;&lt;mxCell id=&quot;13&quot; value=&quot;&quot; style=&quot;group&quot; vertex=&quot;1&quot; connectable=&quot;0&quot; parent=&quot;1&quot;&gt;&lt;mxGeometry x=&quot;260&quot; y=&quot;80&quot; width=&quot;120&quot; height=&quot;110&quot; as=&quot;geometry&quot;/&gt;&lt;/mxCell&gt;&lt;mxCell id=&quot;4&quot; value=&quot;Target Group 1&amp;#10;EC2&quot; style=&quot;fillColor=none;strokeColor=#5A6C86;dashed=1;verticalAlign=top;fontStyle=0;fontColor=#5A6C86;&quot; vertex=&quot;1&quot; parent=&quot;13&quot;&gt;&lt;mxGeometry width=&quot;120&quot; height=&quot;110&quot; as=&quot;geometry&quot;/&gt;&lt;/mxCell&gt;&lt;mxCell id=&quot;6&quot; value=&quot;&quot; style=&quot;outlineConnect=0;fontColor=#232F3E;gradientColor=none;fillColor=#D86613;strokeColor=none;dashed=0;verticalLabelPosition=bottom;verticalAlign=top;align=center;html=1;fontSize=12;fontStyle=0;aspect=fixed;pointerEvents=1;shape=mxgraph.aws4.instance2;&quot; vertex=&quot;1&quot; parent=&quot;13&quot;&gt;&lt;mxGeometry x=&quot;10&quot; y=&quot;60&quot; width=&quot;40&quot; height=&quot;40&quot; as=&quot;geometry&quot;/&gt;&lt;/mxCell&gt;&lt;mxCell id=&quot;7&quot; value=&quot;&quot; style=&quot;outlineConnect=0;fontColor=#232F3E;gradientColor=none;fillColor=#D86613;strokeColor=none;dashed=0;verticalLabelPosition=bottom;verticalAlign=top;align=center;html=1;fontSize=12;fontStyle=0;aspect=fixed;pointerEvents=1;shape=mxgraph.aws4.instance2;&quot; vertex=&quot;1&quot; parent=&quot;13&quot;&gt;&lt;mxGeometry x=&quot;70&quot; y=&quot;60&quot; width=&quot;40&quot; height=&quot;40&quot; as=&quot;geometry&quot;/&gt;&lt;/mxCell&gt;&lt;/root&gt;&lt;/mxGraphModel&gt;"><style type="text/css"></style><path d="M 240.5 120.5 C 218.44 120.5 200.5 138.44 200.5 160.5 C 200.5 182.56 218.44 200.5 240.5 200.5 C 262.55 200.5 280.5 182.56 280.5 160.5 C 280.5 138.44 262.55 120.5 240.5 120.5 Z M 240.5 196.86 C 220.45 196.86 204.14 180.55 204.14 160.5 C 204.14 140.45 220.45 124.14 240.5 124.14 C 260.55 124.14 276.86 140.45 276.86 160.5 C 276.86 180.55 260.55 196.86 240.5 196.86 Z M 264.2 171.41 L 261.41 171.41 L 261.41 165.27 C 261.41 164.27 260.59 163.45 259.59 163.45 L 255.05 163.45 L 255.05 157.32 C 255.05 156.31 254.23 155.5 253.23 155.5 L 242.32 155.5 L 242.32 151.18 L 253.23 151.18 C 254.23 151.18 255.05 150.37 255.05 149.36 L 255.05 135.05 C 255.05 134.04 254.23 133.23 253.23 133.23 L 227.77 133.23 C 226.77 133.23 225.96 134.04 225.96 135.05 L 225.96 149.36 C 225.96 150.37 226.77 151.18 227.77 151.18 L 238.68 151.18 L 238.68 155.5 L 227.77 155.5 C 226.77 155.5 225.96 156.31 225.96 157.32 L 225.96 163.45 L 221.41 163.45 C 220.41 163.45 219.59 164.27 219.59 165.27 L 219.59 171.41 L 216.8 171.41 C 215.8 171.41 214.98 172.22 214.98 173.23 L 214.98 181.18 C 214.98 182.19 215.8 183 216.8 183 L 224.59 183 C 225.6 183 226.41 182.19 226.41 181.18 L 226.41 173.23 C 226.41 172.22 225.6 171.41 224.59 171.41 L 223.23 171.41 L 223.23 167.09 L 230.73 167.09 L 230.73 171.41 L 229.36 171.41 C 228.36 171.41 227.55 172.22 227.55 173.23 L 227.55 181.18 C 227.55 182.19 228.36 183 229.36 183 L 237.32 183 C 238.32 183 239.14 182.19 239.14 181.18 L 239.14 173.23 C 239.14 172.22 238.32 171.41 237.32 171.41 L 234.36 171.41 L 234.36 165.27 C 234.36 164.27 233.55 163.45 232.55 163.45 L 229.59 163.45 L 229.59 159.14 L 251.41 159.14 L 251.41 163.45 L 248.46 163.45 C 247.45 163.45 246.64 164.27 246.64 165.27 L 246.64 171.41 L 243.68 171.41 C 242.68 171.41 241.86 172.22 241.86 173.23 L 241.86 181.18 C 241.86 182.19 242.68 183 243.68 183 L 251.64 183 C 252.64 183 253.46 182.19 253.46 181.18 L 253.46 173.23 C 253.46 172.22 252.64 171.41 251.64 171.41 L 250.27 171.41 L 250.27 167.09 L 257.77 167.09 L 257.77 171.41 L 256.3 171.41 C 255.29 171.41 254.48 172.22 254.48 173.23 L 254.48 181.18 C 254.48 182.19 255.29 183 256.3 183 L 264.2 183 C 265.2 183 266.02 182.19 266.02 181.18 L 266.02 173.23 C 266.02 172.22 265.2 171.41 264.2 171.41 Z M 229.59 147.55 L 229.59 136.86 L 251.41 136.86 L 251.41 147.55 Z M 218.62 179.36 L 218.62 175.05 L 222.77 175.05 L 222.77 179.36 Z M 231.18 179.36 L 231.18 175.05 L 235.5 175.05 L 235.5 179.36 Z M 245.5 179.36 L 245.5 175.05 L 249.82 175.05 L 249.82 179.36 Z M 258.12 179.36 L 258.12 175.05 L 262.38 175.05 L 262.38 179.36 Z" fill="#5a30b5" stroke="none" pointer-events="none"/><path d="M 59.68 171.81 L 53.38 178.12 L 53.38 157.72 L 49.87 157.72 L 49.87 177.92 L 43.83 171.78 L 41.33 174.25 L 50.45 183.51 C 50.78 183.84 51.22 184.03 51.69 184.03 L 51.7 184.03 C 52.16 184.03 52.61 183.85 52.94 183.52 L 62.16 174.29 Z M 38.21 168.19 L 40.69 165.71 L 31.46 156.48 C 31.13 156.15 30.69 155.97 30.22 155.97 L 30.22 155.97 C 29.75 155.97 29.3 156.16 28.97 156.49 L 19.85 165.75 L 22.36 168.21 L 28.39 162.08 L 28.39 185.44 L 31.9 185.44 L 31.9 161.89 Z M 34.67 185.47 L 47.07 185.48 L 47.07 181.97 L 34.67 181.96 Z M 79.75 170.66 C 79.75 175.02 78.43 178.55 75.81 181.14 C 71.51 185.41 65.27 185.5 64.78 185.5 L 64.76 185.5 L 56.4 185.49 L 56.41 181.98 L 64.77 181.99 C 64.84 181.99 70.03 181.95 73.36 178.63 C 75.27 176.72 76.24 174.04 76.24 170.66 C 76.24 168.58 75.67 165.48 70.75 162.46 C 68.16 160.88 65.74 160.36 64.82 160.21 C 63.89 160.05 63.25 159.2 63.36 158.27 C 63.05 154.59 61.33 152.02 58.62 151.2 C 56.27 150.49 53.77 151.32 52.22 153.31 C 51.83 153.81 51.21 154.07 50.57 153.97 C 49.94 153.87 49.41 153.44 49.19 152.85 C 48.11 149.92 46.54 147.47 44.53 145.55 C 42.06 143.19 35.27 138.1 25.67 141.98 C 20.17 144.2 15.86 150.58 15.86 156.51 C 15.86 157.17 15.9 157.83 15.98 158.48 C 16.09 159.33 15.57 160.13 14.75 160.38 C 14.68 160.4 14.61 160.41 14.55 160.43 C 11.31 161.24 6.01 163.69 6.01 170.95 C 6.01 176.47 9.17 179.52 11.81 181.11 C 12.72 181.65 13.76 181.94 14.83 181.94 L 25.63 181.95 L 25.63 185.46 L 14.83 185.45 C 13.13 185.45 11.46 184.99 10.01 184.12 C 7.21 182.44 2.5 178.49 2.5 170.95 C 2.5 164.43 6.16 159.46 12.37 157.41 C 12.35 157.11 12.35 156.81 12.35 156.51 C 12.35 149.13 17.51 141.49 24.36 138.72 C 32.33 135.5 40.78 137.11 46.96 143.02 C 48.77 144.75 50.28 146.83 51.45 149.22 C 53.79 147.52 56.78 146.98 59.63 147.84 C 63.47 149 66.08 152.4 66.75 157.02 C 68.73 157.52 70.8 158.38 72.58 159.47 C 77.4 162.42 79.75 166.08 79.75 170.66 Z" fill="#232f3e" stroke="none" pointer-events="none"/><rect x="340.5" y="200.5" width="200" height="150" fill="none" stroke="#5a6c86" stroke-dasharray="3 3" pointer-events="none"/><g fill="#5A6C86" font-family="Helvetica" pointer-events="none" text-anchor="middle" font-size="12px"><text x="440.5" y="218.5">Target Group 2</text><text x="440.5" y="232.5">Private IPs</text></g><path d="M 393.99 260.67 L 353.16 260.67 C 351.69 260.67 350.5 261.86 350.5 263.33 L 350.5 337.67 C 350.5 339.14 351.69 340.33 353.16 340.33 L 393.99 340.33 C 395.46 340.33 396.65 339.14 396.65 337.67 L 396.65 263.33 C 396.65 261.86 395.46 260.67 393.99 260.67 Z M 354.12 336.71 L 354.12 264.29 L 393.03 264.29 L 393.03 336.71 Z M 358.53 272.42 L 388.62 272.42 L 388.62 268.8 L 358.53 268.8 Z M 358.53 280.15 L 388.62 280.15 L 388.62 276.53 L 358.53 276.53 Z M 358.53 288.17 L 388.62 288.17 L 388.62 284.55 L 358.53 284.55 Z M 358.53 296 L 388.62 296 L 388.62 292.38 L 358.53 292.38 Z" fill="#232f3e" stroke="none" pointer-events="none"/><path d="M 523.99 260.67 L 483.16 260.67 C 481.69 260.67 480.5 261.86 480.5 263.33 L 480.5 337.67 C 480.5 339.14 481.69 340.33 483.16 340.33 L 523.99 340.33 C 525.46 340.33 526.65 339.14 526.65 337.67 L 526.65 263.33 C 526.65 261.86 525.46 260.67 523.99 260.67 Z M 484.12 336.71 L 484.12 264.29 L 523.03 264.29 L 523.03 336.71 Z M 488.53 272.42 L 518.62 272.42 L 518.62 268.8 L 488.53 268.8 Z M 488.53 280.15 L 518.62 280.15 L 518.62 276.53 L 488.53 276.53 Z M 488.53 288.17 L 518.62 288.17 L 518.62 284.55 L 488.53 284.55 Z M 488.53 296 L 518.62 296 L 518.62 292.38 L 488.53 292.38 Z" fill="#232f3e" stroke="none" pointer-events="none"/><path d="M 460.91 260.67 L 420.08 260.67 C 418.61 260.67 417.42 261.86 417.42 263.33 L 417.42 337.67 C 417.42 339.14 418.61 340.33 420.08 340.33 L 460.91 340.33 C 462.38 340.33 463.57 339.14 463.57 337.67 L 463.57 263.33 C 463.57 261.86 462.38 260.67 460.91 260.67 Z M 421.04 336.71 L 421.04 264.29 L 459.95 264.29 L 459.95 336.71 Z M 425.45 272.42 L 455.54 272.42 L 455.54 268.8 L 425.45 268.8 Z M 425.45 280.15 L 455.54 280.15 L 455.54 276.53 L 425.45 276.53 Z M 425.45 288.17 L 455.54 288.17 L 455.54 284.55 L 425.45 284.55 Z M 425.45 296 L 455.54 296 L 455.54 292.38 L 425.45 292.38 Z" fill="#232f3e" stroke="none" pointer-events="none"/><rect x="380.5" y="0.5" width="120" height="110" fill="none" stroke="#5a6c86" stroke-dasharray="3 3" pointer-events="none"/><g fill="#5A6C86" font-family="Helvetica" pointer-events="none" text-anchor="middle" font-size="12px"><text x="440.5" y="18.5">Target Group 1</text><text x="440.5" y="32.5">EC2</text></g><path d="M 430.5 70.5 L 430.5 68.68 L 425.95 68.68 L 425.95 65.95 C 425.95 65.45 425.55 65.05 425.05 65.05 L 422.32 65.05 L 422.32 60.5 L 420.5 60.5 L 420.5 65.05 L 416.86 65.05 L 416.86 60.5 L 415.05 60.5 L 415.05 65.05 L 411.41 65.05 L 411.41 60.5 L 409.59 60.5 L 409.59 65.05 L 405.95 65.05 L 405.95 60.5 L 404.14 60.5 L 404.14 65.05 L 400.5 65.05 L 400.5 60.5 L 398.68 60.5 L 398.68 65.05 L 395.95 65.05 C 395.45 65.05 395.05 65.45 395.05 65.95 L 395.05 68.68 L 390.5 68.68 L 390.5 70.5 L 395.05 70.5 L 395.05 74.14 L 390.5 74.14 L 390.5 75.95 L 395.05 75.95 L 395.05 79.59 L 390.5 79.59 L 390.5 81.41 L 395.05 81.41 L 395.05 85.05 L 390.5 85.05 L 390.5 86.86 L 395.05 86.86 L 395.05 90.5 L 390.5 90.5 L 390.5 92.32 L 395.05 92.32 L 395.05 95.05 C 395.05 95.55 395.45 95.95 395.95 95.95 L 398.68 95.95 L 398.68 100.5 L 400.5 100.5 L 400.5 95.95 L 404.14 95.95 L 404.14 100.5 L 405.95 100.5 L 405.95 95.95 L 409.59 95.95 L 409.59 100.5 L 411.41 100.5 L 411.41 95.95 L 415.05 95.95 L 415.05 100.5 L 416.86 100.5 L 416.86 95.95 L 420.5 95.95 L 420.5 100.5 L 422.32 100.5 L 422.32 95.95 L 425.05 95.95 C 425.55 95.95 425.95 95.55 425.95 95.05 L 425.95 92.32 L 430.5 92.32 L 430.5 90.5 L 425.95 90.5 L 425.95 86.86 L 430.5 86.86 L 430.5 85.05 L 425.95 85.05 L 425.95 81.41 L 430.5 81.41 L 430.5 79.59 L 425.95 79.59 L 425.95 75.95 L 430.5 75.95 L 430.5 74.14 L 425.95 74.14 L 425.95 70.5 Z M 396.86 94.14 L 396.86 66.86 L 424.14 66.86 L 424.14 94.14 Z" fill="#d86613" stroke="none" pointer-events="none"/><path d="M 490.5 70.5 L 490.5 68.68 L 485.95 68.68 L 485.95 65.95 C 485.95 65.45 485.55 65.05 485.05 65.05 L 482.32 65.05 L 482.32 60.5 L 480.5 60.5 L 480.5 65.05 L 476.86 65.05 L 476.86 60.5 L 475.05 60.5 L 475.05 65.05 L 471.41 65.05 L 471.41 60.5 L 469.59 60.5 L 469.59 65.05 L 465.95 65.05 L 465.95 60.5 L 464.14 60.5 L 464.14 65.05 L 460.5 65.05 L 460.5 60.5 L 458.68 60.5 L 458.68 65.05 L 455.95 65.05 C 455.45 65.05 455.05 65.45 455.05 65.95 L 455.05 68.68 L 450.5 68.68 L 450.5 70.5 L 455.05 70.5 L 455.05 74.14 L 450.5 74.14 L 450.5 75.95 L 455.05 75.95 L 455.05 79.59 L 450.5 79.59 L 450.5 81.41 L 455.05 81.41 L 455.05 85.05 L 450.5 85.05 L 450.5 86.86 L 455.05 86.86 L 455.05 90.5 L 450.5 90.5 L 450.5 92.32 L 455.05 92.32 L 455.05 95.05 C 455.05 95.55 455.45 95.95 455.95 95.95 L 458.68 95.95 L 458.68 100.5 L 460.5 100.5 L 460.5 95.95 L 464.14 95.95 L 464.14 100.5 L 465.95 100.5 L 465.95 95.95 L 469.59 95.95 L 469.59 100.5 L 471.41 100.5 L 471.41 95.95 L 475.05 95.95 L 475.05 100.5 L 476.86 100.5 L 476.86 95.95 L 480.5 95.95 L 480.5 100.5 L 482.32 100.5 L 482.32 95.95 L 485.05 95.95 C 485.55 95.95 485.95 95.55 485.95 95.05 L 485.95 92.32 L 490.5 92.32 L 490.5 90.5 L 485.95 90.5 L 485.95 86.86 L 490.5 86.86 L 490.5 85.05 L 485.95 85.05 L 485.95 81.41 L 490.5 81.41 L 490.5 79.59 L 485.95 79.59 L 485.95 75.95 L 490.5 75.95 L 490.5 74.14 L 485.95 74.14 L 485.95 70.5 Z M 456.86 94.14 L 456.86 66.86 L 484.14 66.86 L 484.14 94.14 Z" fill="#d86613" stroke="none" pointer-events="none"/></svg>