<svg xmlns="http://www.w3.org/2000/svg" version="1.1" height="81px" width="81px" viewBox="-10 -10 101 101" content="&lt;mxGraphModel dx=&quot;760&quot; dy=&quot;519&quot; grid=&quot;1&quot; gridSize=&quot;10&quot; guides=&quot;1&quot; tooltips=&quot;1&quot; connect=&quot;1&quot; arrows=&quot;1&quot; fold=&quot;1&quot; page=&quot;0&quot; pageScale=&quot;1&quot; pageWidth=&quot;827&quot; pageHeight=&quot;1169&quot; math=&quot;0&quot; shadow=&quot;0&quot;&gt;&lt;root&gt;&lt;mxCell id=&quot;0&quot;/&gt;&lt;mxCell id=&quot;1&quot; parent=&quot;0&quot;/&gt;&lt;mxCell id=&quot;2&quot; value=&quot;&quot; style=&quot;outlineConnect=0;fontColor=#232F3E;gradientColor=none;fillColor=#5A30B5;strokeColor=none;dashed=0;verticalLabelPosition=bottom;verticalAlign=top;align=center;html=1;fontSize=12;fontStyle=0;aspect=fixed;pointerEvents=1;shape=mxgraph.aws4.application_load_balancer;&quot; vertex=&quot;1&quot; parent=&quot;1&quot;&gt;&lt;mxGeometry x=&quot;80&quot; y=&quot;200&quot; width=&quot;80&quot; height=&quot;80&quot; as=&quot;geometry&quot;/&gt;&lt;/mxCell&gt;&lt;/root&gt;&lt;/mxGraphModel&gt;"><style type="text/css"></style><path d="M 40.5 0.5 C 18.44 0.5 0.5 18.44 0.5 40.5 C 0.5 62.56 18.44 80.5 40.5 80.5 C 62.55 80.5 80.5 62.56 80.5 40.5 C 80.5 18.44 62.55 0.5 40.5 0.5 Z M 40.5 76.86 C 20.45 76.86 4.14 60.55 4.14 40.5 C 4.14 20.45 20.45 4.14 40.5 4.14 C 60.55 4.14 76.86 20.45 76.86 40.5 C 76.86 60.55 60.55 76.86 40.5 76.86 Z M 64.2 51.41 L 61.41 51.41 L 61.41 45.27 C 61.41 44.27 60.59 43.45 59.59 43.45 L 55.05 43.45 L 55.05 37.32 C 55.05 36.31 54.23 35.5 53.23 35.5 L 42.32 35.5 L 42.32 31.18 L 53.23 31.18 C 54.23 31.18 55.05 30.37 55.05 29.36 L 55.05 15.05 C 55.05 14.04 54.23 13.23 53.23 13.23 L 27.77 13.23 C 26.77 13.23 25.96 14.04 25.96 15.05 L 25.96 29.36 C 25.96 30.37 26.77 31.18 27.77 31.18 L 38.68 31.18 L 38.68 35.5 L 27.77 35.5 C 26.77 35.5 25.96 36.31 25.96 37.32 L 25.96 43.45 L 21.41 43.45 C 20.41 43.45 19.59 44.27 19.59 45.27 L 19.59 51.41 L 16.8 51.41 C 15.8 51.41 14.98 52.22 14.98 53.23 L 14.98 61.18 C 14.98 62.19 15.8 63 16.8 63 L 24.59 63 C 25.6 63 26.41 62.19 26.41 61.18 L 26.41 53.23 C 26.41 52.22 25.6 51.41 24.59 51.41 L 23.23 51.41 L 23.23 47.09 L 30.73 47.09 L 30.73 51.41 L 29.36 51.41 C 28.36 51.41 27.55 52.22 27.55 53.23 L 27.55 61.18 C 27.55 62.19 28.36 63 29.36 63 L 37.32 63 C 38.32 63 39.14 62.19 39.14 61.18 L 39.14 53.23 C 39.14 52.22 38.32 51.41 37.32 51.41 L 34.36 51.41 L 34.36 45.27 C 34.36 44.27 33.55 43.45 32.55 43.45 L 29.59 43.45 L 29.59 39.14 L 51.41 39.14 L 51.41 43.45 L 48.46 43.45 C 47.45 43.45 46.64 44.27 46.64 45.27 L 46.64 51.41 L 43.68 51.41 C 42.68 51.41 41.86 52.22 41.86 53.23 L 41.86 61.18 C 41.86 62.19 42.68 63 43.68 63 L 51.64 63 C 52.64 63 53.46 62.19 53.46 61.18 L 53.46 53.23 C 53.46 52.22 52.64 51.41 51.64 51.41 L 50.27 51.41 L 50.27 47.09 L 57.77 47.09 L 57.77 51.41 L 56.3 51.41 C 55.29 51.41 54.48 52.22 54.48 53.23 L 54.48 61.18 C 54.48 62.19 55.29 63 56.3 63 L 64.2 63 C 65.2 63 66.02 62.19 66.02 61.18 L 66.02 53.23 C 66.02 52.22 65.2 51.41 64.2 51.41 Z M 29.59 27.55 L 29.59 16.86 L 51.41 16.86 L 51.41 27.55 Z M 18.62 59.36 L 18.62 55.05 L 22.77 55.05 L 22.77 59.36 Z M 31.18 59.36 L 31.18 55.05 L 35.5 55.05 L 35.5 59.36 Z M 45.5 59.36 L 45.5 55.05 L 49.82 55.05 L 49.82 59.36 Z M 58.12 59.36 L 58.12 55.05 L 62.38 55.05 L 62.38 59.36 Z" fill="#5a30b5" stroke="none" pointer-events="none"/></svg>