<svg xmlns="http://www.w3.org/2000/svg" version="1.1" height="121px" width="474.59000000000003px" viewBox="-10 -10 494.59000000000003 141" content="&lt;mxGraphModel dx=&quot;1006&quot; dy=&quot;297&quot; grid=&quot;1&quot; gridSize=&quot;10&quot; guides=&quot;1&quot; tooltips=&quot;1&quot; connect=&quot;1&quot; arrows=&quot;1&quot; fold=&quot;1&quot; page=&quot;0&quot; pageScale=&quot;1&quot; pageWidth=&quot;827&quot; pageHeight=&quot;1169&quot; math=&quot;0&quot; shadow=&quot;0&quot;&gt;&lt;root&gt;&lt;mxCell id=&quot;0&quot;/&gt;&lt;mxCell id=&quot;1&quot; parent=&quot;0&quot;/&gt;&lt;mxCell id=&quot;8&quot; value=&quot;&quot; style=&quot;outlineConnect=0;fontColor=#232F3E;gradientColor=none;fillColor=#277116;strokeColor=none;dashed=0;verticalLabelPosition=bottom;verticalAlign=top;align=center;html=1;fontSize=12;fontStyle=0;aspect=fixed;pointerEvents=1;shape=mxgraph.aws4.volume;&quot; vertex=&quot;1&quot; parent=&quot;1&quot;&gt;&lt;mxGeometry x=&quot;-30&quot; y=&quot;80&quot; width=&quot;63.59&quot; height=&quot;80&quot; as=&quot;geometry&quot;/&gt;&lt;/mxCell&gt;&lt;mxCell id=&quot;5&quot; value=&quot;&quot; style=&quot;outlineConnect=0;fontColor=#232F3E;gradientColor=none;fillColor=#277116;strokeColor=none;dashed=0;verticalLabelPosition=bottom;verticalAlign=top;align=center;html=1;fontSize=12;fontStyle=0;aspect=fixed;pointerEvents=1;shape=mxgraph.aws4.volume;&quot; vertex=&quot;1&quot; parent=&quot;1&quot;&gt;&lt;mxGeometry x=&quot;-150&quot; y=&quot;80&quot; width=&quot;63.59&quot; height=&quot;80&quot; as=&quot;geometry&quot;/&gt;&lt;/mxCell&gt;&lt;mxCell id=&quot;3&quot; value=&quot;&quot; style=&quot;outlineConnect=0;fontColor=#232F3E;gradientColor=none;fillColor=#277116;strokeColor=none;dashed=0;verticalLabelPosition=bottom;verticalAlign=top;align=center;html=1;fontSize=12;fontStyle=0;aspect=fixed;pointerEvents=1;shape=mxgraph.aws4.volume;&quot; vertex=&quot;1&quot; parent=&quot;1&quot;&gt;&lt;mxGeometry x=&quot;90&quot; y=&quot;80&quot; width=&quot;63.59&quot; height=&quot;80&quot; as=&quot;geometry&quot;/&gt;&lt;/mxCell&gt;&lt;mxCell id=&quot;2&quot; value=&quot;&quot; style=&quot;outlineConnect=0;fontColor=#232F3E;gradientColor=none;fillColor=#D86613;strokeColor=none;dashed=0;verticalLabelPosition=bottom;verticalAlign=top;align=center;html=1;fontSize=12;fontStyle=0;aspect=fixed;pointerEvents=1;shape=mxgraph.aws4.instance2;&quot; vertex=&quot;1&quot; parent=&quot;1&quot;&gt;&lt;mxGeometry x=&quot;-200&quot; y=&quot;40&quot; width=&quot;80&quot; height=&quot;80&quot; as=&quot;geometry&quot;/&gt;&lt;/mxCell&gt;&lt;mxCell id=&quot;4&quot; value=&quot;&quot; style=&quot;pointerEvents=1;shadow=0;dashed=0;html=1;strokeColor=none;fillColor=#4495D1;labelPosition=center;verticalLabelPosition=bottom;verticalAlign=top;align=center;outlineConnect=0;shape=mxgraph.veeam.ram;&quot; vertex=&quot;1&quot; parent=&quot;1&quot;&gt;&lt;mxGeometry x=&quot;-185&quot; y=&quot;80&quot; width=&quot;50&quot; height=&quot;20&quot; as=&quot;geometry&quot;/&gt;&lt;/mxCell&gt;&lt;mxCell id=&quot;6&quot; value=&quot;&quot; style=&quot;outlineConnect=0;fontColor=#232F3E;gradientColor=none;fillColor=#D86613;strokeColor=none;dashed=0;verticalLabelPosition=bottom;verticalAlign=top;align=center;html=1;fontSize=12;fontStyle=0;aspect=fixed;pointerEvents=1;shape=mxgraph.aws4.instance2;&quot; vertex=&quot;1&quot; parent=&quot;1&quot;&gt;&lt;mxGeometry x=&quot;-80&quot; y=&quot;40&quot; width=&quot;80&quot; height=&quot;80&quot; as=&quot;geometry&quot;/&gt;&lt;/mxCell&gt;&lt;mxCell id=&quot;7&quot; value=&quot;&quot; style=&quot;pointerEvents=1;shadow=0;dashed=0;html=1;strokeColor=none;fillColor=#4495D1;labelPosition=center;verticalLabelPosition=bottom;verticalAlign=top;align=center;outlineConnect=0;shape=mxgraph.veeam.ram;&quot; vertex=&quot;1&quot; parent=&quot;1&quot;&gt;&lt;mxGeometry x=&quot;55&quot; y=&quot;80&quot; width=&quot;50&quot; height=&quot;20&quot; as=&quot;geometry&quot;/&gt;&lt;/mxCell&gt;&lt;mxCell id=&quot;9&quot; value=&quot;&quot; style=&quot;outlineConnect=0;fontColor=#232F3E;gradientColor=none;fillColor=#D86613;strokeColor=none;dashed=0;verticalLabelPosition=bottom;verticalAlign=top;align=center;html=1;fontSize=12;fontStyle=0;aspect=fixed;pointerEvents=1;shape=mxgraph.aws4.instance2;&quot; vertex=&quot;1&quot; parent=&quot;1&quot;&gt;&lt;mxGeometry x=&quot;40&quot; y=&quot;40&quot; width=&quot;80&quot; height=&quot;80&quot; as=&quot;geometry&quot;/&gt;&lt;/mxCell&gt;&lt;mxCell id=&quot;10&quot; value=&quot;&quot; style=&quot;pointerEvents=1;shadow=0;dashed=0;html=1;strokeColor=none;fillColor=#4495D1;labelPosition=center;verticalLabelPosition=bottom;verticalAlign=top;align=center;outlineConnect=0;shape=mxgraph.veeam.ram;&quot; vertex=&quot;1&quot; parent=&quot;1&quot;&gt;&lt;mxGeometry x=&quot;-23.21&quot; y=&quot;130&quot; width=&quot;50&quot; height=&quot;20&quot; as=&quot;geometry&quot;/&gt;&lt;/mxCell&gt;&lt;mxCell id=&quot;11&quot; value=&quot;&quot; style=&quot;outlineConnect=0;fontColor=#232F3E;gradientColor=none;fillColor=#277116;strokeColor=none;dashed=0;verticalLabelPosition=bottom;verticalAlign=top;align=center;html=1;fontSize=12;fontStyle=0;aspect=fixed;pointerEvents=1;shape=mxgraph.aws4.volume;&quot; vertex=&quot;1&quot; parent=&quot;1&quot;&gt;&lt;mxGeometry x=&quot;-270&quot; y=&quot;80&quot; width=&quot;63.59&quot; height=&quot;80&quot; as=&quot;geometry&quot;/&gt;&lt;/mxCell&gt;&lt;mxCell id=&quot;12&quot; value=&quot;&quot; style=&quot;outlineConnect=0;fontColor=#232F3E;gradientColor=none;fillColor=#D86613;strokeColor=none;dashed=0;verticalLabelPosition=bottom;verticalAlign=top;align=center;html=1;fontSize=12;fontStyle=0;aspect=fixed;pointerEvents=1;shape=mxgraph.aws4.instance2;&quot; vertex=&quot;1&quot; parent=&quot;1&quot;&gt;&lt;mxGeometry x=&quot;-320&quot; y=&quot;40&quot; width=&quot;80&quot; height=&quot;80&quot; as=&quot;geometry&quot;/&gt;&lt;/mxCell&gt;&lt;mxCell id=&quot;13&quot; value=&quot;&quot; style=&quot;pointerEvents=1;shadow=0;dashed=0;html=1;strokeColor=none;fillColor=#4495D1;labelPosition=center;verticalLabelPosition=bottom;verticalAlign=top;align=center;outlineConnect=0;shape=mxgraph.veeam.ram;&quot; vertex=&quot;1&quot; parent=&quot;1&quot;&gt;&lt;mxGeometry x=&quot;-305&quot; y=&quot;80&quot; width=&quot;50&quot; height=&quot;20&quot; as=&quot;geometry&quot;/&gt;&lt;/mxCell&gt;&lt;mxCell id=&quot;15&quot; value=&quot;&quot; style=&quot;pointerEvents=1;shadow=0;dashed=0;html=1;strokeColor=none;fillColor=#4495D1;labelPosition=center;verticalLabelPosition=bottom;verticalAlign=top;align=center;outlineConnect=0;shape=mxgraph.veeam.ram;&quot; vertex=&quot;1&quot; parent=&quot;1&quot;&gt;&lt;mxGeometry x=&quot;-143.21&quot; y=&quot;130&quot; width=&quot;50&quot; height=&quot;20&quot; as=&quot;geometry&quot;/&gt;&lt;/mxCell&gt;&lt;/root&gt;&lt;/mxGraphModel&gt;"><style type="text/css"></style><path d="M 352.18 61.43 L 292.52 61.43 C 291.52 61.43 290.72 62.24 290.72 63.23 L 290.72 118.18 C 290.72 119.17 291.52 119.98 292.52 119.98 L 352.18 119.98 C 353.17 119.98 353.98 119.17 353.98 118.18 L 353.98 63.23 C 353.98 62.24 353.17 61.43 352.18 61.43 Z M 294.31 116.39 L 294.31 65.02 L 350.39 65.02 L 350.39 116.39 Z M 292.41 58.75 L 352.18 58.75 C 352.86 58.75 353.48 58.36 353.78 57.75 C 354.09 57.14 354.02 56.42 353.61 55.87 L 342.99 41.74 C 342.65 41.29 342.12 41.02 341.55 41.02 L 303.03 41.02 C 302.47 41.02 301.94 41.29 301.6 41.74 L 290.98 55.87 C 290.57 56.42 290.5 57.14 290.81 57.75 C 291.11 58.36 291.73 58.75 292.41 58.75 Z M 303.93 44.61 L 340.66 44.61 L 348.58 55.16 L 296.01 55.16 Z" fill="#277116" stroke="none" pointer-events="none"/><path d="M 232.18 61.43 L 172.52 61.43 C 171.52 61.43 170.72 62.24 170.72 63.23 L 170.72 118.18 C 170.72 119.17 171.52 119.98 172.52 119.98 L 232.18 119.98 C 233.17 119.98 233.98 119.17 233.98 118.18 L 233.98 63.23 C 233.98 62.24 233.17 61.43 232.18 61.43 Z M 174.31 116.39 L 174.31 65.02 L 230.39 65.02 L 230.39 116.39 Z M 172.41 58.75 L 232.18 58.75 C 232.86 58.75 233.48 58.36 233.78 57.75 C 234.09 57.14 234.02 56.42 233.61 55.87 L 222.99 41.74 C 222.65 41.29 222.12 41.02 221.55 41.02 L 183.03 41.02 C 182.47 41.02 181.94 41.29 181.6 41.74 L 170.98 55.87 C 170.57 56.42 170.5 57.14 170.81 57.75 C 171.11 58.36 171.73 58.75 172.41 58.75 Z M 183.93 44.61 L 220.66 44.61 L 228.58 55.16 L 176.01 55.16 Z" fill="#277116" stroke="none" pointer-events="none"/><path d="M 472.18 61.43 L 412.52 61.43 C 411.52 61.43 410.72 62.24 410.72 63.23 L 410.72 118.18 C 410.72 119.17 411.52 119.98 412.52 119.98 L 472.18 119.98 C 473.17 119.98 473.98 119.17 473.98 118.18 L 473.98 63.23 C 473.98 62.24 473.17 61.43 472.18 61.43 Z M 414.31 116.39 L 414.31 65.02 L 470.39 65.02 L 470.39 116.39 Z M 412.41 58.75 L 472.18 58.75 C 472.86 58.75 473.48 58.36 473.78 57.75 C 474.09 57.14 474.02 56.42 473.61 55.87 L 462.99 41.74 C 462.65 41.29 462.12 41.02 461.55 41.02 L 423.03 41.02 C 422.47 41.02 421.94 41.29 421.6 41.74 L 410.98 55.87 C 410.57 56.42 410.5 57.14 410.81 57.75 C 411.11 58.36 411.73 58.75 412.41 58.75 Z M 423.93 44.61 L 460.66 44.61 L 468.58 55.16 L 416.01 55.16 Z" fill="#277116" stroke="none" pointer-events="none"/><path d="M 200.5 20.5 L 200.5 16.86 L 191.41 16.86 L 191.41 11.41 C 191.41 10.41 190.59 9.59 189.59 9.59 L 184.14 9.59 L 184.14 0.5 L 180.5 0.5 L 180.5 9.59 L 173.23 9.59 L 173.23 0.5 L 169.59 0.5 L 169.59 9.59 L 162.32 9.59 L 162.32 0.5 L 158.68 0.5 L 158.68 9.59 L 151.41 9.59 L 151.41 0.5 L 147.77 0.5 L 147.77 9.59 L 140.5 9.59 L 140.5 0.5 L 136.86 0.5 L 136.86 9.59 L 131.41 9.59 C 130.4 9.59 129.59 10.41 129.59 11.41 L 129.59 16.86 L 120.5 16.86 L 120.5 20.5 L 129.59 20.5 L 129.59 27.77 L 120.5 27.77 L 120.5 31.41 L 129.59 31.41 L 129.59 38.68 L 120.5 38.68 L 120.5 42.32 L 129.59 42.32 L 129.59 49.59 L 120.5 49.59 L 120.5 53.23 L 129.59 53.23 L 129.59 60.5 L 120.5 60.5 L 120.5 64.14 L 129.59 64.14 L 129.59 69.59 C 129.59 70.6 130.4 71.41 131.41 71.41 L 136.86 71.41 L 136.86 80.5 L 140.5 80.5 L 140.5 71.41 L 147.77 71.41 L 147.77 80.5 L 151.41 80.5 L 151.41 71.41 L 158.68 71.41 L 158.68 80.5 L 162.32 80.5 L 162.32 71.41 L 169.59 71.41 L 169.59 80.5 L 173.23 80.5 L 173.23 71.41 L 180.5 71.41 L 180.5 80.5 L 184.14 80.5 L 184.14 71.41 L 189.59 71.41 C 190.59 71.41 191.41 70.6 191.41 69.59 L 191.41 64.14 L 200.5 64.14 L 200.5 60.5 L 191.41 60.5 L 191.41 53.23 L 200.5 53.23 L 200.5 49.59 L 191.41 49.59 L 191.41 42.32 L 200.5 42.32 L 200.5 38.68 L 191.41 38.68 L 191.41 31.41 L 200.5 31.41 L 200.5 27.77 L 191.41 27.77 L 191.41 20.5 Z M 133.23 67.77 L 133.23 13.23 L 187.77 13.23 L 187.77 67.77 Z" fill="#d86613" stroke="none" pointer-events="none"/><path d="M 135.5 56.21 L 135.5 42.09 L 136.08 42.09 C 136.76 42.09 137.48 41.58 137.48 40.94 L 137.48 40.5 L 183.33 40.5 L 183.33 40.95 C 183.33 41.62 184.06 42.09 184.68 42.09 L 185.5 42.09 L 185.5 56.21 L 181.39 56.21 L 181.39 60.5 L 163.02 60.5 L 163.02 60.13 C 163.03 58.97 161.81 58.19 160.57 58.19 C 158.94 58.19 158.05 59.25 158.03 59.94 L 158.02 60.5 L 138.38 60.5 L 138.38 56.21 L 135.5 56.21 Z" fill="#4495d1" stroke="none" pointer-events="none"/><path d="M 139.48 59.69 L 157.03 59.69 C 157.24 58.41 158.81 57.33 160.58 57.33 C 162.18 57.33 163.79 58.2 164.14 59.69 L 180.23 59.69 L 180.23 56.21 L 177.58 56.21 L 177.58 58.76 L 176.51 58.76 L 176.51 56.21 L 175.25 56.21 L 175.25 58.76 L 174.14 58.76 L 174.14 56.21 L 172.88 56.21 L 172.88 58.76 L 171.76 58.76 L 171.76 56.21 L 170.66 56.21 L 170.66 58.76 L 169.56 58.76 L 169.56 56.21 L 168.33 56.21 L 168.33 58.76 L 167.18 58.76 L 167.18 56.21 L 165.92 56.21 L 165.92 58.76 L 164.82 58.76 L 164.82 56.21 L 155.54 56.21 L 155.54 58.76 L 154.43 58.76 L 154.43 56.21 L 153.21 56.21 L 153.21 58.76 L 152.07 58.76 L 152.07 56.21 L 150.84 56.21 L 150.84 58.76 L 149.73 58.76 L 149.73 56.21 L 148.62 56.21 L 148.62 58.76 L 147.52 58.76 L 147.52 56.21 L 146.3 56.21 L 146.3 58.76 L 145.19 58.76 L 145.19 56.21 L 143.93 56.21 L 143.93 58.76 L 142.81 58.76 L 142.81 56.21 L 139.48 56.21 L 139.48 59.69 Z M 139.36 52.55 L 144.55 52.55 L 144.55 43.72 L 139.36 43.72 L 139.36 52.55 Z M 146.07 52.55 L 151.13 52.55 L 151.13 43.72 L 146.07 43.72 L 146.07 52.55 Z M 153.14 52.55 L 158.2 52.55 L 158.2 43.72 L 153.14 43.72 L 153.14 52.55 Z M 162.5 52.55 L 167.7 52.55 L 167.7 43.72 L 162.5 43.72 L 162.5 52.55 Z M 169.25 52.55 L 174.31 52.55 L 174.31 43.72 L 169.25 43.72 L 169.25 52.55 Z M 176.33 52.55 L 181.39 52.55 L 181.39 43.72 L 176.33 43.72 L 176.33 52.55 Z" fill="#ffffff" stroke="none" pointer-events="none"/><path d="M 320.5 20.5 L 320.5 16.86 L 311.41 16.86 L 311.41 11.41 C 311.41 10.41 310.59 9.59 309.59 9.59 L 304.14 9.59 L 304.14 0.5 L 300.5 0.5 L 300.5 9.59 L 293.23 9.59 L 293.23 0.5 L 289.59 0.5 L 289.59 9.59 L 282.32 9.59 L 282.32 0.5 L 278.68 0.5 L 278.68 9.59 L 271.41 9.59 L 271.41 0.5 L 267.77 0.5 L 267.77 9.59 L 260.5 9.59 L 260.5 0.5 L 256.86 0.5 L 256.86 9.59 L 251.41 9.59 C 250.4 9.59 249.59 10.41 249.59 11.41 L 249.59 16.86 L 240.5 16.86 L 240.5 20.5 L 249.59 20.5 L 249.59 27.77 L 240.5 27.77 L 240.5 31.41 L 249.59 31.41 L 249.59 38.68 L 240.5 38.68 L 240.5 42.32 L 249.59 42.32 L 249.59 49.59 L 240.5 49.59 L 240.5 53.23 L 249.59 53.23 L 249.59 60.5 L 240.5 60.5 L 240.5 64.14 L 249.59 64.14 L 249.59 69.59 C 249.59 70.6 250.4 71.41 251.41 71.41 L 256.86 71.41 L 256.86 80.5 L 260.5 80.5 L 260.5 71.41 L 267.77 71.41 L 267.77 80.5 L 271.41 80.5 L 271.41 71.41 L 278.68 71.41 L 278.68 80.5 L 282.32 80.5 L 282.32 71.41 L 289.59 71.41 L 289.59 80.5 L 293.23 80.5 L 293.23 71.41 L 300.5 71.41 L 300.5 80.5 L 304.14 80.5 L 304.14 71.41 L 309.59 71.41 C 310.59 71.41 311.41 70.6 311.41 69.59 L 311.41 64.14 L 320.5 64.14 L 320.5 60.5 L 311.41 60.5 L 311.41 53.23 L 320.5 53.23 L 320.5 49.59 L 311.41 49.59 L 311.41 42.32 L 320.5 42.32 L 320.5 38.68 L 311.41 38.68 L 311.41 31.41 L 320.5 31.41 L 320.5 27.77 L 311.41 27.77 L 311.41 20.5 Z M 253.23 67.77 L 253.23 13.23 L 307.77 13.23 L 307.77 67.77 Z" fill="#d86613" stroke="none" pointer-events="none"/><path d="M 375.5 56.21 L 375.5 42.09 L 376.08 42.09 C 376.76 42.09 377.48 41.58 377.48 40.94 L 377.48 40.5 L 423.33 40.5 L 423.33 40.95 C 423.33 41.62 424.06 42.09 424.68 42.09 L 425.5 42.09 L 425.5 56.21 L 421.39 56.21 L 421.39 60.5 L 403.02 60.5 L 403.02 60.13 C 403.03 58.97 401.81 58.19 400.57 58.19 C 398.94 58.19 398.05 59.25 398.03 59.94 L 398.02 60.5 L 378.38 60.5 L 378.38 56.21 L 375.5 56.21 Z" fill="#4495d1" stroke="none" pointer-events="none"/><path d="M 379.48 59.69 L 397.03 59.69 C 397.24 58.41 398.81 57.33 400.58 57.33 C 402.18 57.33 403.79 58.2 404.14 59.69 L 420.23 59.69 L 420.23 56.21 L 417.58 56.21 L 417.58 58.76 L 416.51 58.76 L 416.51 56.21 L 415.25 56.21 L 415.25 58.76 L 414.14 58.76 L 414.14 56.21 L 412.88 56.21 L 412.88 58.76 L 411.76 58.76 L 411.76 56.21 L 410.66 56.21 L 410.66 58.76 L 409.56 58.76 L 409.56 56.21 L 408.33 56.21 L 408.33 58.76 L 407.18 58.76 L 407.18 56.21 L 405.92 56.21 L 405.92 58.76 L 404.82 58.76 L 404.82 56.21 L 395.54 56.21 L 395.54 58.76 L 394.43 58.76 L 394.43 56.21 L 393.21 56.21 L 393.21 58.76 L 392.07 58.76 L 392.07 56.21 L 390.84 56.21 L 390.84 58.76 L 389.73 58.76 L 389.73 56.21 L 388.62 56.21 L 388.62 58.76 L 387.52 58.76 L 387.52 56.21 L 386.3 56.21 L 386.3 58.76 L 385.19 58.76 L 385.19 56.21 L 383.93 56.21 L 383.93 58.76 L 382.81 58.76 L 382.81 56.21 L 379.48 56.21 L 379.48 59.69 Z M 379.36 52.55 L 384.55 52.55 L 384.55 43.72 L 379.36 43.72 L 379.36 52.55 Z M 386.07 52.55 L 391.13 52.55 L 391.13 43.72 L 386.07 43.72 L 386.07 52.55 Z M 393.14 52.55 L 398.2 52.55 L 398.2 43.72 L 393.14 43.72 L 393.14 52.55 Z M 402.5 52.55 L 407.7 52.55 L 407.7 43.72 L 402.5 43.72 L 402.5 52.55 Z M 409.25 52.55 L 414.31 52.55 L 414.31 43.72 L 409.25 43.72 L 409.25 52.55 Z M 416.33 52.55 L 421.39 52.55 L 421.39 43.72 L 416.33 43.72 L 416.33 52.55 Z" fill="#ffffff" stroke="none" pointer-events="none"/><path d="M 440.5 20.5 L 440.5 16.86 L 431.41 16.86 L 431.41 11.41 C 431.41 10.41 430.59 9.59 429.59 9.59 L 424.14 9.59 L 424.14 0.5 L 420.5 0.5 L 420.5 9.59 L 413.23 9.59 L 413.23 0.5 L 409.59 0.5 L 409.59 9.59 L 402.32 9.59 L 402.32 0.5 L 398.68 0.5 L 398.68 9.59 L 391.41 9.59 L 391.41 0.5 L 387.77 0.5 L 387.77 9.59 L 380.5 9.59 L 380.5 0.5 L 376.86 0.5 L 376.86 9.59 L 371.41 9.59 C 370.4 9.59 369.59 10.41 369.59 11.41 L 369.59 16.86 L 360.5 16.86 L 360.5 20.5 L 369.59 20.5 L 369.59 27.77 L 360.5 27.77 L 360.5 31.41 L 369.59 31.41 L 369.59 38.68 L 360.5 38.68 L 360.5 42.32 L 369.59 42.32 L 369.59 49.59 L 360.5 49.59 L 360.5 53.23 L 369.59 53.23 L 369.59 60.5 L 360.5 60.5 L 360.5 64.14 L 369.59 64.14 L 369.59 69.59 C 369.59 70.6 370.4 71.41 371.41 71.41 L 376.86 71.41 L 376.86 80.5 L 380.5 80.5 L 380.5 71.41 L 387.77 71.41 L 387.77 80.5 L 391.41 80.5 L 391.41 71.41 L 398.68 71.41 L 398.68 80.5 L 402.32 80.5 L 402.32 71.41 L 409.59 71.41 L 409.59 80.5 L 413.23 80.5 L 413.23 71.41 L 420.5 71.41 L 420.5 80.5 L 424.14 80.5 L 424.14 71.41 L 429.59 71.41 C 430.59 71.41 431.41 70.6 431.41 69.59 L 431.41 64.14 L 440.5 64.14 L 440.5 60.5 L 431.41 60.5 L 431.41 53.23 L 440.5 53.23 L 440.5 49.59 L 431.41 49.59 L 431.41 42.32 L 440.5 42.32 L 440.5 38.68 L 431.41 38.68 L 431.41 31.41 L 440.5 31.41 L 440.5 27.77 L 431.41 27.77 L 431.41 20.5 Z M 373.23 67.77 L 373.23 13.23 L 427.77 13.23 L 427.77 67.77 Z" fill="#d86613" stroke="none" pointer-events="none"/><path d="M 297.29 106.21 L 297.29 92.09 L 297.87 92.09 C 298.55 92.09 299.27 91.58 299.27 90.94 L 299.27 90.5 L 345.12 90.5 L 345.12 90.95 C 345.12 91.62 345.85 92.09 346.47 92.09 L 347.29 92.09 L 347.29 106.21 L 343.18 106.21 L 343.18 110.5 L 324.81 110.5 L 324.81 110.13 C 324.82 108.97 323.6 108.19 322.36 108.19 C 320.73 108.19 319.84 109.25 319.82 109.94 L 319.81 110.5 L 300.17 110.5 L 300.17 106.21 L 297.29 106.21 Z" fill="#4495d1" stroke="none" pointer-events="none"/><path d="M 301.27 109.69 L 318.82 109.69 C 319.03 108.41 320.6 107.33 322.37 107.33 C 323.97 107.33 325.58 108.2 325.93 109.69 L 342.02 109.69 L 342.02 106.21 L 339.37 106.21 L 339.37 108.76 L 338.3 108.76 L 338.3 106.21 L 337.04 106.21 L 337.04 108.76 L 335.93 108.76 L 335.93 106.21 L 334.67 106.21 L 334.67 108.76 L 333.55 108.76 L 333.55 106.21 L 332.45 106.21 L 332.45 108.76 L 331.35 108.76 L 331.35 106.21 L 330.12 106.21 L 330.12 108.76 L 328.97 108.76 L 328.97 106.21 L 327.71 106.21 L 327.71 108.76 L 326.61 108.76 L 326.61 106.21 L 317.33 106.21 L 317.33 108.76 L 316.22 108.76 L 316.22 106.21 L 315 106.21 L 315 108.76 L 313.86 108.76 L 313.86 106.21 L 312.63 106.21 L 312.63 108.76 L 311.52 108.76 L 311.52 106.21 L 310.41 106.21 L 310.41 108.76 L 309.31 108.76 L 309.31 106.21 L 308.09 106.21 L 308.09 108.76 L 306.98 108.76 L 306.98 106.21 L 305.72 106.21 L 305.72 108.76 L 304.6 108.76 L 304.6 106.21 L 301.27 106.21 L 301.27 109.69 Z M 301.15 102.55 L 306.34 102.55 L 306.34 93.72 L 301.15 93.72 L 301.15 102.55 Z M 307.86 102.55 L 312.92 102.55 L 312.92 93.72 L 307.86 93.72 L 307.86 102.55 Z M 314.93 102.55 L 319.99 102.55 L 319.99 93.72 L 314.93 93.72 L 314.93 102.55 Z M 324.29 102.55 L 329.49 102.55 L 329.49 93.72 L 324.29 93.72 L 324.29 102.55 Z M 331.04 102.55 L 336.1 102.55 L 336.1 93.72 L 331.04 93.72 L 331.04 102.55 Z M 338.12 102.55 L 343.18 102.55 L 343.18 93.72 L 338.12 93.72 L 338.12 102.55 Z" fill="#ffffff" stroke="none" pointer-events="none"/><path d="M 112.18 61.43 L 52.52 61.43 C 51.52 61.43 50.72 62.24 50.72 63.23 L 50.72 118.18 C 50.72 119.17 51.52 119.98 52.52 119.98 L 112.18 119.98 C 113.17 119.98 113.98 119.17 113.98 118.18 L 113.98 63.23 C 113.98 62.24 113.17 61.43 112.18 61.43 Z M 54.31 116.39 L 54.31 65.02 L 110.39 65.02 L 110.39 116.39 Z M 52.41 58.75 L 112.18 58.75 C 112.86 58.75 113.48 58.36 113.78 57.75 C 114.09 57.14 114.02 56.42 113.61 55.87 L 102.99 41.74 C 102.65 41.29 102.12 41.02 101.55 41.02 L 63.03 41.02 C 62.47 41.02 61.94 41.29 61.6 41.74 L 50.98 55.87 C 50.57 56.42 50.5 57.14 50.81 57.75 C 51.11 58.36 51.73 58.75 52.41 58.75 Z M 63.93 44.61 L 100.66 44.61 L 108.58 55.16 L 56.01 55.16 Z" fill="#277116" stroke="none" pointer-events="none"/><path d="M 80.5 20.5 L 80.5 16.86 L 71.41 16.86 L 71.41 11.41 C 71.41 10.41 70.59 9.59 69.59 9.59 L 64.14 9.59 L 64.14 0.5 L 60.5 0.5 L 60.5 9.59 L 53.23 9.59 L 53.23 0.5 L 49.59 0.5 L 49.59 9.59 L 42.32 9.59 L 42.32 0.5 L 38.68 0.5 L 38.68 9.59 L 31.41 9.59 L 31.41 0.5 L 27.77 0.5 L 27.77 9.59 L 20.5 9.59 L 20.5 0.5 L 16.86 0.5 L 16.86 9.59 L 11.41 9.59 C 10.4 9.59 9.59 10.41 9.59 11.41 L 9.59 16.86 L 0.5 16.86 L 0.5 20.5 L 9.59 20.5 L 9.59 27.77 L 0.5 27.77 L 0.5 31.41 L 9.59 31.41 L 9.59 38.68 L 0.5 38.68 L 0.5 42.32 L 9.59 42.32 L 9.59 49.59 L 0.5 49.59 L 0.5 53.23 L 9.59 53.23 L 9.59 60.5 L 0.5 60.5 L 0.5 64.14 L 9.59 64.14 L 9.59 69.59 C 9.59 70.6 10.4 71.41 11.41 71.41 L 16.86 71.41 L 16.86 80.5 L 20.5 80.5 L 20.5 71.41 L 27.77 71.41 L 27.77 80.5 L 31.41 80.5 L 31.41 71.41 L 38.68 71.41 L 38.68 80.5 L 42.32 80.5 L 42.32 71.41 L 49.59 71.41 L 49.59 80.5 L 53.23 80.5 L 53.23 71.41 L 60.5 71.41 L 60.5 80.5 L 64.14 80.5 L 64.14 71.41 L 69.59 71.41 C 70.59 71.41 71.41 70.6 71.41 69.59 L 71.41 64.14 L 80.5 64.14 L 80.5 60.5 L 71.41 60.5 L 71.41 53.23 L 80.5 53.23 L 80.5 49.59 L 71.41 49.59 L 71.41 42.32 L 80.5 42.32 L 80.5 38.68 L 71.41 38.68 L 71.41 31.41 L 80.5 31.41 L 80.5 27.77 L 71.41 27.77 L 71.41 20.5 Z M 13.23 67.77 L 13.23 13.23 L 67.77 13.23 L 67.77 67.77 Z" fill="#d86613" stroke="none" pointer-events="none"/><path d="M 15.5 56.21 L 15.5 42.09 L 16.08 42.09 C 16.76 42.09 17.48 41.58 17.48 40.94 L 17.48 40.5 L 63.33 40.5 L 63.33 40.95 C 63.33 41.62 64.06 42.09 64.68 42.09 L 65.5 42.09 L 65.5 56.21 L 61.39 56.21 L 61.39 60.5 L 43.02 60.5 L 43.02 60.13 C 43.03 58.97 41.81 58.19 40.57 58.19 C 38.94 58.19 38.05 59.25 38.03 59.94 L 38.02 60.5 L 18.38 60.5 L 18.38 56.21 L 15.5 56.21 Z" fill="#4495d1" stroke="none" pointer-events="none"/><path d="M 19.48 59.69 L 37.03 59.69 C 37.24 58.41 38.81 57.33 40.58 57.33 C 42.18 57.33 43.79 58.2 44.14 59.69 L 60.23 59.69 L 60.23 56.21 L 57.58 56.21 L 57.58 58.76 L 56.51 58.76 L 56.51 56.21 L 55.25 56.21 L 55.25 58.76 L 54.14 58.76 L 54.14 56.21 L 52.88 56.21 L 52.88 58.76 L 51.76 58.76 L 51.76 56.21 L 50.66 56.21 L 50.66 58.76 L 49.56 58.76 L 49.56 56.21 L 48.33 56.21 L 48.33 58.76 L 47.18 58.76 L 47.18 56.21 L 45.92 56.21 L 45.92 58.76 L 44.82 58.76 L 44.82 56.21 L 35.54 56.21 L 35.54 58.76 L 34.43 58.76 L 34.43 56.21 L 33.21 56.21 L 33.21 58.76 L 32.07 58.76 L 32.07 56.21 L 30.84 56.21 L 30.84 58.76 L 29.73 58.76 L 29.73 56.21 L 28.62 56.21 L 28.62 58.76 L 27.52 58.76 L 27.52 56.21 L 26.3 56.21 L 26.3 58.76 L 25.19 58.76 L 25.19 56.21 L 23.93 56.21 L 23.93 58.76 L 22.81 58.76 L 22.81 56.21 L 19.48 56.21 L 19.48 59.69 Z M 19.36 52.55 L 24.55 52.55 L 24.55 43.72 L 19.36 43.72 L 19.36 52.55 Z M 26.07 52.55 L 31.13 52.55 L 31.13 43.72 L 26.07 43.72 L 26.07 52.55 Z M 33.14 52.55 L 38.2 52.55 L 38.2 43.72 L 33.14 43.72 L 33.14 52.55 Z M 42.5 52.55 L 47.7 52.55 L 47.7 43.72 L 42.5 43.72 L 42.5 52.55 Z M 49.25 52.55 L 54.31 52.55 L 54.31 43.72 L 49.25 43.72 L 49.25 52.55 Z M 56.33 52.55 L 61.39 52.55 L 61.39 43.72 L 56.33 43.72 L 56.33 52.55 Z" fill="#ffffff" stroke="none" pointer-events="none"/><path d="M 177.29 106.21 L 177.29 92.09 L 177.87 92.09 C 178.55 92.09 179.27 91.58 179.27 90.94 L 179.27 90.5 L 225.12 90.5 L 225.12 90.95 C 225.12 91.62 225.85 92.09 226.47 92.09 L 227.29 92.09 L 227.29 106.21 L 223.18 106.21 L 223.18 110.5 L 204.81 110.5 L 204.81 110.13 C 204.82 108.97 203.6 108.19 202.36 108.19 C 200.73 108.19 199.84 109.25 199.82 109.94 L 199.81 110.5 L 180.17 110.5 L 180.17 106.21 L 177.29 106.21 Z" fill="#4495d1" stroke="none" pointer-events="none"/><path d="M 181.27 109.69 L 198.82 109.69 C 199.03 108.41 200.6 107.33 202.37 107.33 C 203.97 107.33 205.58 108.2 205.93 109.69 L 222.02 109.69 L 222.02 106.21 L 219.37 106.21 L 219.37 108.76 L 218.3 108.76 L 218.3 106.21 L 217.04 106.21 L 217.04 108.76 L 215.93 108.76 L 215.93 106.21 L 214.67 106.21 L 214.67 108.76 L 213.55 108.76 L 213.55 106.21 L 212.45 106.21 L 212.45 108.76 L 211.35 108.76 L 211.35 106.21 L 210.12 106.21 L 210.12 108.76 L 208.97 108.76 L 208.97 106.21 L 207.71 106.21 L 207.71 108.76 L 206.61 108.76 L 206.61 106.21 L 197.33 106.21 L 197.33 108.76 L 196.22 108.76 L 196.22 106.21 L 195 106.21 L 195 108.76 L 193.86 108.76 L 193.86 106.21 L 192.63 106.21 L 192.63 108.76 L 191.52 108.76 L 191.52 106.21 L 190.41 106.21 L 190.41 108.76 L 189.31 108.76 L 189.31 106.21 L 188.09 106.21 L 188.09 108.76 L 186.98 108.76 L 186.98 106.21 L 185.72 106.21 L 185.72 108.76 L 184.6 108.76 L 184.6 106.21 L 181.27 106.21 L 181.27 109.69 Z M 181.15 102.55 L 186.34 102.55 L 186.34 93.72 L 181.15 93.72 L 181.15 102.55 Z M 187.86 102.55 L 192.92 102.55 L 192.92 93.72 L 187.86 93.72 L 187.86 102.55 Z M 194.93 102.55 L 199.99 102.55 L 199.99 93.72 L 194.93 93.72 L 194.93 102.55 Z M 204.29 102.55 L 209.49 102.55 L 209.49 93.72 L 204.29 93.72 L 204.29 102.55 Z M 211.04 102.55 L 216.1 102.55 L 216.1 93.72 L 211.04 93.72 L 211.04 102.55 Z M 218.12 102.55 L 223.18 102.55 L 223.18 93.72 L 218.12 93.72 L 218.12 102.55 Z" fill="#ffffff" stroke="none" pointer-events="none"/></svg>